<?xml version="1.0" encoding="utf-8" standalone="no"?>
<!DOCTYPE svg PUBLIC "-//W3C//DTD SVG 1.1//EN"
  "http://www.w3.org/Graphics/SVG/1.1/DTD/svg11.dtd">
<!-- Created with matplotlib (https://matplotlib.org/) -->
<svg height="216pt" version="1.1" viewBox="0 0 360 216" width="360pt" xmlns="http://www.w3.org/2000/svg" xmlns:xlink="http://www.w3.org/1999/xlink">
 <defs>
  <style type="text/css">
*{stroke-linecap:butt;stroke-linejoin:round;}
  </style>
 </defs>
 <g id="figure_1">
  <g id="patch_1">
   <path d="M 0 216 
L 360 216 
L 360 0 
L 0 0 
z
" style="fill:#ffffff;"/>
  </g>
  <g id="axes_1">
   <g id="patch_2">
    <path d="M 46.572 173.028 
L 350.928 173.028 
L 350.928 9.072 
L 46.572 9.072 
z
" style="fill:#ffffff;"/>
   </g>
   <g id="matplotlib.axis_1">
    <g id="xtick_1">
     <g id="line2d_1">
      <defs>
       <path d="M 0 0 
L 0 6 
" id="m37aa6756b2" style="stroke:#262626;stroke-width:1.25;"/>
      </defs>
      <g>
       <use style="fill:#262626;stroke:#262626;stroke-width:1.25;" x="60.406364" xlink:href="#m37aa6756b2" y="179.028"/>
      </g>
     </g>
     <g id="text_1">
      <!-- 0 -->
      <defs>
       <path d="M 27.046875 69.921875 
Q 40.625 69.921875 46.6875 58.734375 
Q 51.375 50.09375 51.375 35.0625 
Q 51.375 20.796875 47.125 11.46875 
Q 40.96875 -1.90625 27 -1.90625 
Q 14.40625 -1.90625 8.25 9.03125 
Q 3.125 18.171875 3.125 33.546875 
Q 3.125 45.453125 6.203125 54 
Q 11.96875 69.921875 27.046875 69.921875 
z
M 26.953125 6.109375 
Q 33.796875 6.109375 37.84375 12.15625 
Q 41.890625 18.21875 41.890625 34.71875 
Q 41.890625 46.625 38.953125 54.3125 
Q 36.03125 62.015625 27.59375 62.015625 
Q 19.828125 62.015625 16.234375 54.703125 
Q 12.640625 47.40625 12.640625 33.203125 
Q 12.640625 22.515625 14.9375 16.015625 
Q 18.453125 6.109375 26.953125 6.109375 
z
" id="Helvetica-48"/>
      </defs>
      <g style="fill:#262626;" transform="translate(58.265403 194.051547)scale(0.077 -0.077)">
       <use xlink:href="#Helvetica-48"/>
      </g>
     </g>
    </g>
    <g id="xtick_2">
     <g id="line2d_2">
      <g>
       <use style="fill:#262626;stroke:#262626;stroke-width:1.25;" x="115.743818" xlink:href="#m37aa6756b2" y="179.028"/>
      </g>
     </g>
     <g id="text_2">
      <!-- 20 -->
      <defs>
       <path d="M 3.125 0 
Q 3.609375 9.03125 6.859375 15.71875 
Q 10.109375 22.40625 19.53125 27.875 
L 28.90625 33.296875 
Q 35.203125 36.96875 37.75 39.546875 
Q 41.75 43.609375 41.75 48.828125 
Q 41.75 54.9375 38.078125 58.515625 
Q 34.421875 62.109375 28.328125 62.109375 
Q 19.28125 62.109375 15.828125 55.28125 
Q 13.96875 51.609375 13.765625 45.125 
L 4.828125 45.125 
Q 4.984375 54.25 8.203125 60.015625 
Q 13.921875 70.171875 28.375 70.171875 
Q 40.375 70.171875 45.921875 63.671875 
Q 51.46875 57.171875 51.46875 49.21875 
Q 51.46875 40.828125 45.5625 34.859375 
Q 42.140625 31.390625 33.296875 26.46875 
L 26.609375 22.75 
Q 21.828125 20.125 19.09375 17.71875 
Q 14.203125 13.484375 12.9375 8.296875 
L 51.125 8.296875 
L 51.125 0 
L 3.125 0 
z
" id="Helvetica-50"/>
      </defs>
      <g style="fill:#262626;" transform="translate(111.461896 194.051547)scale(0.077 -0.077)">
       <use xlink:href="#Helvetica-50"/>
       <use x="55.615234" xlink:href="#Helvetica-48"/>
      </g>
     </g>
    </g>
    <g id="xtick_3">
     <g id="line2d_3">
      <g>
       <use style="fill:#262626;stroke:#262626;stroke-width:1.25;" x="171.081273" xlink:href="#m37aa6756b2" y="179.028"/>
      </g>
     </g>
     <g id="text_3">
      <!-- 40 -->
      <defs>
       <path d="M 33.0625 24.75 
L 33.0625 56.453125 
L 10.640625 24.75 
z
M 33.203125 0 
L 33.203125 17.09375 
L 2.546875 17.09375 
L 2.546875 25.6875 
L 34.578125 70.125 
L 42 70.125 
L 42 24.75 
L 52.296875 24.75 
L 52.296875 17.09375 
L 42 17.09375 
L 42 0 
z
" id="Helvetica-52"/>
      </defs>
      <g style="fill:#262626;" transform="translate(166.799351 194.051547)scale(0.077 -0.077)">
       <use xlink:href="#Helvetica-52"/>
       <use x="55.615234" xlink:href="#Helvetica-48"/>
      </g>
     </g>
    </g>
    <g id="xtick_4">
     <g id="line2d_4">
      <g>
       <use style="fill:#262626;stroke:#262626;stroke-width:1.25;" x="226.418727" xlink:href="#m37aa6756b2" y="179.028"/>
      </g>
     </g>
     <g id="text_4">
      <!-- 60 -->
      <defs>
       <path d="M 29.25 70.21875 
Q 40.96875 70.21875 45.578125 64.140625 
Q 50.203125 58.0625 50.203125 51.609375 
L 41.5 51.609375 
Q 40.71875 55.765625 39.015625 58.109375 
Q 35.84375 62.5 29.390625 62.5 
Q 22.015625 62.5 17.671875 55.6875 
Q 13.328125 48.875 12.84375 36.1875 
Q 15.875 40.625 20.453125 42.828125 
Q 24.65625 44.78125 29.828125 44.78125 
Q 38.625 44.78125 45.15625 39.15625 
Q 51.703125 33.546875 51.703125 22.40625 
Q 51.703125 12.890625 45.5 5.53125 
Q 39.3125 -1.8125 27.828125 -1.8125 
Q 18.015625 -1.8125 10.890625 5.640625 
Q 3.765625 13.09375 3.765625 30.71875 
Q 3.765625 43.75 6.9375 52.828125 
Q 13.03125 70.21875 29.25 70.21875 
z
M 28.609375 6 
Q 35.546875 6 38.984375 10.65625 
Q 42.4375 15.328125 42.4375 21.6875 
Q 42.4375 27.046875 39.359375 31.90625 
Q 36.28125 36.765625 28.171875 36.765625 
Q 22.515625 36.765625 18.234375 33 
Q 13.96875 29.25 13.96875 21.6875 
Q 13.96875 15.046875 17.84375 10.515625 
Q 21.734375 6 28.609375 6 
z
" id="Helvetica-54"/>
      </defs>
      <g style="fill:#262626;" transform="translate(222.136805 194.051547)scale(0.077 -0.077)">
       <use xlink:href="#Helvetica-54"/>
       <use x="55.615234" xlink:href="#Helvetica-48"/>
      </g>
     </g>
    </g>
    <g id="xtick_5">
     <g id="line2d_5">
      <g>
       <use style="fill:#262626;stroke:#262626;stroke-width:1.25;" x="281.756182" xlink:href="#m37aa6756b2" y="179.028"/>
      </g>
     </g>
     <g id="text_5">
      <!-- 80 -->
      <defs>
       <path d="M 27.203125 40.625 
Q 33.015625 40.625 36.28125 43.875 
Q 39.546875 47.125 39.546875 51.609375 
Q 39.546875 55.515625 36.421875 58.78125 
Q 33.296875 62.0625 26.90625 62.0625 
Q 20.5625 62.0625 17.71875 58.78125 
Q 14.890625 55.515625 14.890625 51.125 
Q 14.890625 46.1875 18.546875 43.40625 
Q 22.21875 40.625 27.203125 40.625 
z
M 27.734375 6 
Q 33.84375 6 37.859375 9.296875 
Q 41.890625 12.59375 41.890625 19.140625 
Q 41.890625 25.921875 37.734375 29.4375 
Q 33.59375 32.953125 27.09375 32.953125 
Q 20.796875 32.953125 16.8125 29.359375 
Q 12.84375 25.78125 12.84375 19.4375 
Q 12.84375 13.96875 16.484375 9.984375 
Q 20.125 6 27.734375 6 
z
M 15.234375 37.25 
Q 11.578125 38.8125 9.515625 40.921875 
Q 5.671875 44.828125 5.671875 51.078125 
Q 5.671875 58.890625 11.328125 64.5 
Q 17 70.125 27.390625 70.125 
Q 37.453125 70.125 43.15625 64.8125 
Q 48.875 59.515625 48.875 52.4375 
Q 48.875 45.90625 45.5625 41.84375 
Q 43.703125 39.546875 39.796875 37.359375 
Q 44.140625 35.359375 46.625 32.765625 
Q 51.265625 27.875 51.265625 20.0625 
Q 51.265625 10.84375 45.0625 4.421875 
Q 38.875 -2 27.546875 -2 
Q 17.328125 -2 10.265625 3.53125 
Q 3.21875 9.078125 3.21875 19.625 
Q 3.21875 25.828125 6.25 30.34375 
Q 9.28125 34.859375 15.234375 37.25 
z
" id="Helvetica-56"/>
      </defs>
      <g style="fill:#262626;" transform="translate(277.47426 194.051547)scale(0.077 -0.077)">
       <use xlink:href="#Helvetica-56"/>
       <use x="55.615234" xlink:href="#Helvetica-48"/>
      </g>
     </g>
    </g>
    <g id="xtick_6">
     <g id="line2d_6">
      <g>
       <use style="fill:#262626;stroke:#262626;stroke-width:1.25;" x="337.093636" xlink:href="#m37aa6756b2" y="179.028"/>
      </g>
     </g>
     <g id="text_6">
      <!-- 100 -->
      <defs>
       <path d="M 9.578125 49.515625 
L 9.578125 56.25 
Q 19.09375 57.171875 22.84375 59.34375 
Q 26.609375 61.53125 28.46875 69.625 
L 35.40625 69.625 
L 35.40625 0 
L 26.03125 0 
L 26.03125 49.515625 
z
" id="Helvetica-49"/>
      </defs>
      <g style="fill:#262626;" transform="translate(330.670754 194.051547)scale(0.077 -0.077)">
       <use xlink:href="#Helvetica-49"/>
       <use x="55.615234" xlink:href="#Helvetica-48"/>
       <use x="111.230469" xlink:href="#Helvetica-48"/>
      </g>
     </g>
    </g>
    <g id="text_7">
     <!-- Percent through gene -->
     <defs>
      <path d="M 8.546875 71.734375 
L 40.828125 71.734375 
Q 50.390625 71.734375 56.25 66.328125 
Q 62.109375 60.9375 62.109375 51.171875 
Q 62.109375 42.78125 56.875 36.546875 
Q 51.65625 30.328125 40.828125 30.328125 
L 18.265625 30.328125 
L 18.265625 0 
L 8.546875 0 
z
M 52.296875 51.125 
Q 52.296875 59.03125 46.4375 61.859375 
Q 43.21875 63.375 37.59375 63.375 
L 18.265625 63.375 
L 18.265625 38.53125 
L 37.59375 38.53125 
Q 44.140625 38.53125 48.21875 41.3125 
Q 52.296875 44.09375 52.296875 51.125 
z
" id="Helvetica-80"/>
      <path d="M 28.21875 53.46875 
Q 33.796875 53.46875 39.015625 50.859375 
Q 44.234375 48.25 46.96875 44.09375 
Q 49.609375 40.140625 50.484375 34.859375 
Q 51.265625 31.25 51.265625 23.34375 
L 12.9375 23.34375 
Q 13.1875 15.375 16.703125 10.5625 
Q 20.21875 5.765625 27.59375 5.765625 
Q 34.46875 5.765625 38.578125 10.296875 
Q 40.921875 12.9375 41.890625 16.40625 
L 50.53125 16.40625 
Q 50.203125 13.53125 48.265625 9.984375 
Q 46.34375 6.453125 43.953125 4.203125 
Q 39.9375 0.296875 34.03125 -1.078125 
Q 30.859375 -1.859375 26.859375 -1.859375 
Q 17.09375 -1.859375 10.296875 5.25 
Q 3.515625 12.359375 3.515625 25.140625 
Q 3.515625 37.75 10.34375 45.609375 
Q 17.1875 53.46875 28.21875 53.46875 
z
M 42.234375 30.328125 
Q 41.703125 36.03125 39.75 39.453125 
Q 36.140625 45.796875 27.6875 45.796875 
Q 21.625 45.796875 17.515625 41.421875 
Q 13.421875 37.0625 13.1875 30.328125 
z
M 27.390625 53.5625 
z
" id="Helvetica-101"/>
      <path d="M 6.6875 52.296875 
L 15.046875 52.296875 
L 15.046875 43.265625 
Q 16.0625 45.90625 20.0625 49.6875 
Q 24.078125 53.46875 29.296875 53.46875 
Q 29.546875 53.46875 30.125 53.421875 
Q 30.71875 53.375 32.125 53.21875 
L 32.125 43.953125 
Q 31.34375 44.09375 30.6875 44.140625 
Q 30.03125 44.1875 29.25 44.1875 
Q 22.609375 44.1875 19.046875 39.90625 
Q 15.484375 35.640625 15.484375 30.078125 
L 15.484375 0 
L 6.6875 0 
z
" id="Helvetica-114"/>
      <path d="M 26.609375 53.8125 
Q 35.453125 53.8125 40.984375 49.515625 
Q 46.53125 45.21875 47.65625 34.71875 
L 39.109375 34.71875 
Q 38.328125 39.546875 35.546875 42.75 
Q 32.765625 45.953125 26.609375 45.953125 
Q 18.21875 45.953125 14.59375 37.75 
Q 12.25 32.421875 12.25 24.609375 
Q 12.25 16.75 15.5625 11.375 
Q 18.890625 6 26.03125 6 
Q 31.5 6 34.6875 9.34375 
Q 37.890625 12.703125 39.109375 18.5 
L 47.65625 18.5 
Q 46.1875 8.109375 40.328125 3.296875 
Q 34.46875 -1.515625 25.34375 -1.515625 
Q 15.09375 -1.515625 8.984375 5.984375 
Q 2.875 13.484375 2.875 24.703125 
Q 2.875 38.484375 9.5625 46.140625 
Q 16.265625 53.8125 26.609375 53.8125 
z
M 25.25 53.5625 
z
" id="Helvetica-99"/>
      <path d="M 6.453125 52.296875 
L 14.796875 52.296875 
L 14.796875 44.875 
Q 18.5 49.46875 22.65625 51.46875 
Q 26.8125 53.46875 31.890625 53.46875 
Q 43.015625 53.46875 46.921875 45.703125 
Q 49.078125 41.453125 49.078125 33.546875 
L 49.078125 0 
L 40.140625 0 
L 40.140625 32.953125 
Q 40.140625 37.75 38.71875 40.671875 
Q 36.375 45.5625 30.21875 45.5625 
Q 27.09375 45.5625 25.09375 44.921875 
Q 21.484375 43.84375 18.75 40.625 
Q 16.546875 38.03125 15.890625 35.265625 
Q 15.234375 32.515625 15.234375 27.390625 
L 15.234375 0 
L 6.453125 0 
z
M 27.09375 53.5625 
z
" id="Helvetica-110"/>
      <path d="M 8.203125 66.890625 
L 17.09375 66.890625 
L 17.09375 52.296875 
L 25.4375 52.296875 
L 25.4375 45.125 
L 17.09375 45.125 
L 17.09375 10.984375 
Q 17.09375 8.25 18.953125 7.328125 
Q 19.96875 6.78125 22.359375 6.78125 
Q 23 6.78125 23.734375 6.8125 
Q 24.46875 6.84375 25.4375 6.9375 
L 25.4375 0 
Q 23.921875 -0.4375 22.28125 -0.625 
Q 20.65625 -0.828125 18.75 -0.828125 
Q 12.59375 -0.828125 10.390625 2.3125 
Q 8.203125 5.46875 8.203125 10.5 
L 8.203125 45.125 
L 1.125 45.125 
L 1.125 52.296875 
L 8.203125 52.296875 
z
" id="Helvetica-116"/>
      <path id="Helvetica-32"/>
      <path d="M 6.453125 71.96875 
L 15.234375 71.96875 
L 15.234375 45.21875 
Q 18.359375 49.171875 20.84375 50.78125 
Q 25.09375 53.5625 31.453125 53.5625 
Q 42.828125 53.5625 46.875 45.609375 
Q 49.078125 41.265625 49.078125 33.546875 
L 49.078125 0 
L 40.046875 0 
L 40.046875 32.953125 
Q 40.046875 38.71875 38.578125 41.40625 
Q 36.1875 45.703125 29.59375 45.703125 
Q 24.125 45.703125 19.671875 41.9375 
Q 15.234375 38.1875 15.234375 27.734375 
L 15.234375 0 
L 6.453125 0 
z
" id="Helvetica-104"/>
      <path d="M 27.203125 5.671875 
Q 35.9375 5.671875 39.1875 12.28125 
Q 42.4375 18.890625 42.4375 27 
Q 42.4375 34.328125 40.09375 38.921875 
Q 36.375 46.140625 27.296875 46.140625 
Q 19.234375 46.140625 15.578125 39.984375 
Q 11.921875 33.84375 11.921875 25.140625 
Q 11.921875 16.796875 15.578125 11.234375 
Q 19.234375 5.671875 27.203125 5.671875 
z
M 27.546875 53.8125 
Q 37.640625 53.8125 44.625 47.0625 
Q 51.609375 40.328125 51.609375 27.25 
Q 51.609375 14.59375 45.453125 6.34375 
Q 39.3125 -1.90625 26.375 -1.90625 
Q 15.578125 -1.90625 9.21875 5.390625 
Q 2.875 12.703125 2.875 25 
Q 2.875 38.1875 9.5625 46 
Q 16.265625 53.8125 27.546875 53.8125 
z
M 27.25 53.5625 
z
" id="Helvetica-111"/>
      <path d="M 15.234375 52.296875 
L 15.234375 17.578125 
Q 15.234375 13.578125 16.5 11.03125 
Q 18.84375 6.34375 25.25 6.34375 
Q 34.421875 6.34375 37.75 14.546875 
Q 39.546875 18.953125 39.546875 26.609375 
L 39.546875 52.296875 
L 48.34375 52.296875 
L 48.34375 0 
L 40.046875 0 
L 40.140625 7.71875 
Q 38.421875 4.734375 35.890625 2.6875 
Q 30.859375 -1.421875 23.6875 -1.421875 
Q 12.5 -1.421875 8.453125 6.0625 
Q 6.25 10.0625 6.25 16.75 
L 6.25 52.296875 
z
M 27.296875 53.5625 
z
" id="Helvetica-117"/>
      <path d="M 24.90625 53.21875 
Q 31.0625 53.21875 35.640625 50.203125 
Q 38.140625 48.484375 40.71875 45.21875 
L 40.71875 51.8125 
L 48.828125 51.8125 
L 48.828125 4.25 
Q 48.828125 -5.71875 45.90625 -11.46875 
Q 40.4375 -22.125 25.25 -22.125 
Q 16.796875 -22.125 11.03125 -18.328125 
Q 5.28125 -14.546875 4.59375 -6.5 
L 13.53125 -6.5 
Q 14.15625 -10.015625 16.0625 -11.921875 
Q 19.046875 -14.84375 25.4375 -14.84375 
Q 35.546875 -14.84375 38.671875 -7.71875 
Q 40.53125 -3.515625 40.375 7.28125 
Q 37.75 3.265625 34.03125 1.3125 
Q 30.328125 -0.640625 24.21875 -0.640625 
Q 15.71875 -0.640625 9.34375 5.390625 
Q 2.984375 11.421875 2.984375 25.34375 
Q 2.984375 38.484375 9.40625 45.84375 
Q 15.828125 53.21875 24.90625 53.21875 
z
M 40.71875 26.375 
Q 40.71875 36.078125 36.71875 40.765625 
Q 32.71875 45.453125 26.515625 45.453125 
Q 17.234375 45.453125 13.8125 36.765625 
Q 12.015625 32.125 12.015625 24.609375 
Q 12.015625 15.765625 15.59375 11.15625 
Q 19.1875 6.546875 25.25 6.546875 
Q 34.71875 6.546875 38.578125 15.09375 
Q 40.71875 19.921875 40.71875 26.375 
z
M 25.921875 53.5625 
z
" id="Helvetica-103"/>
     </defs>
     <g style="fill:#262626;" transform="translate(158.357156 205.701891)scale(0.084 -0.084)">
      <use xlink:href="#Helvetica-80"/>
      <use x="66.699219" xlink:href="#Helvetica-101"/>
      <use x="122.314453" xlink:href="#Helvetica-114"/>
      <use x="155.615234" xlink:href="#Helvetica-99"/>
      <use x="205.615234" xlink:href="#Helvetica-101"/>
      <use x="261.230469" xlink:href="#Helvetica-110"/>
      <use x="316.845703" xlink:href="#Helvetica-116"/>
      <use x="344.628906" xlink:href="#Helvetica-32"/>
      <use x="372.412109" xlink:href="#Helvetica-116"/>
      <use x="400.195312" xlink:href="#Helvetica-104"/>
      <use x="455.810547" xlink:href="#Helvetica-114"/>
      <use x="489.111328" xlink:href="#Helvetica-111"/>
      <use x="544.726562" xlink:href="#Helvetica-117"/>
      <use x="600.341797" xlink:href="#Helvetica-103"/>
      <use x="655.957031" xlink:href="#Helvetica-104"/>
      <use x="711.572266" xlink:href="#Helvetica-32"/>
      <use x="739.355469" xlink:href="#Helvetica-103"/>
      <use x="794.970703" xlink:href="#Helvetica-101"/>
      <use x="850.585938" xlink:href="#Helvetica-110"/>
      <use x="906.201172" xlink:href="#Helvetica-101"/>
     </g>
    </g>
   </g>
   <g id="matplotlib.axis_2">
    <g id="ytick_1">
     <g id="line2d_7">
      <defs>
       <path d="M 0 0 
L -6 0 
" id="m2dd7c79d4b" style="stroke:#262626;stroke-width:1.25;"/>
      </defs>
      <g>
       <use style="fill:#262626;stroke:#262626;stroke-width:1.25;" x="40.572" xlink:href="#m2dd7c79d4b" y="149.726311"/>
      </g>
     </g>
     <g id="text_8">
      <!-- 0.4 -->
      <defs>
       <path d="M 8.546875 10.640625 
L 18.75 10.640625 
L 18.75 0 
L 8.546875 0 
z
" id="Helvetica-46"/>
      </defs>
      <g style="fill:#262626;" transform="translate(20.369 152.488084)scale(0.077 -0.077)">
       <use xlink:href="#Helvetica-48"/>
       <use x="55.615234" xlink:href="#Helvetica-46"/>
       <use x="83.398438" xlink:href="#Helvetica-52"/>
      </g>
     </g>
    </g>
    <g id="ytick_2">
     <g id="line2d_8">
      <g>
       <use style="fill:#262626;stroke:#262626;stroke-width:1.25;" x="40.572" xlink:href="#m2dd7c79d4b" y="117.753905"/>
      </g>
     </g>
     <g id="text_9">
      <!-- 0.6 -->
      <g style="fill:#262626;" transform="translate(20.369 120.515679)scale(0.077 -0.077)">
       <use xlink:href="#Helvetica-48"/>
       <use x="55.615234" xlink:href="#Helvetica-46"/>
       <use x="83.398438" xlink:href="#Helvetica-54"/>
      </g>
     </g>
    </g>
    <g id="ytick_3">
     <g id="line2d_9">
      <g>
       <use style="fill:#262626;stroke:#262626;stroke-width:1.25;" x="40.572" xlink:href="#m2dd7c79d4b" y="85.7815"/>
      </g>
     </g>
     <g id="text_10">
      <!-- 0.8 -->
      <g style="fill:#262626;" transform="translate(20.369 88.543273)scale(0.077 -0.077)">
       <use xlink:href="#Helvetica-48"/>
       <use x="55.615234" xlink:href="#Helvetica-46"/>
       <use x="83.398438" xlink:href="#Helvetica-56"/>
      </g>
     </g>
    </g>
    <g id="ytick_4">
     <g id="line2d_10">
      <g>
       <use style="fill:#262626;stroke:#262626;stroke-width:1.25;" x="40.572" xlink:href="#m2dd7c79d4b" y="53.809094"/>
      </g>
     </g>
     <g id="text_11">
      <!-- 1.0 -->
      <g style="fill:#262626;" transform="translate(20.369 56.570868)scale(0.077 -0.077)">
       <use xlink:href="#Helvetica-49"/>
       <use x="55.615234" xlink:href="#Helvetica-46"/>
       <use x="83.398438" xlink:href="#Helvetica-48"/>
      </g>
     </g>
    </g>
    <g id="ytick_5">
     <g id="line2d_11">
      <g>
       <use style="fill:#262626;stroke:#262626;stroke-width:1.25;" x="40.572" xlink:href="#m2dd7c79d4b" y="21.836689"/>
      </g>
     </g>
     <g id="text_12">
      <!-- 1.2 -->
      <g style="fill:#262626;" transform="translate(20.369 24.598462)scale(0.077 -0.077)">
       <use xlink:href="#Helvetica-49"/>
       <use x="55.615234" xlink:href="#Helvetica-46"/>
       <use x="83.398438" xlink:href="#Helvetica-50"/>
      </g>
     </g>
    </g>
    <g id="text_13">
     <!-- Coverage -->
     <defs>
      <path d="M 37.84375 73.6875 
Q 51.46875 73.6875 58.984375 66.5 
Q 66.5 59.328125 67.328125 50.203125 
L 57.859375 50.203125 
Q 56.25 57.125 51.4375 61.171875 
Q 46.625 65.234375 37.9375 65.234375 
Q 27.34375 65.234375 20.828125 57.78125 
Q 14.3125 50.34375 14.3125 34.96875 
Q 14.3125 22.359375 20.1875 14.515625 
Q 26.078125 6.6875 37.75 6.6875 
Q 48.484375 6.6875 54.109375 14.9375 
Q 57.078125 19.28125 58.546875 26.375 
L 68.015625 26.375 
Q 66.75 15.046875 59.625 7.375 
Q 51.078125 -1.859375 36.578125 -1.859375 
Q 24.078125 -1.859375 15.578125 5.71875 
Q 4.390625 15.71875 4.390625 36.625 
Q 4.390625 52.484375 12.796875 62.640625 
Q 21.875 73.6875 37.84375 73.6875 
z
M 35.890625 73.6875 
z
" id="Helvetica-67"/>
      <path d="M 10.75 52.296875 
L 24.703125 9.71875 
L 39.3125 52.296875 
L 48.921875 52.296875 
L 29.203125 0 
L 19.828125 0 
L 0.53125 52.296875 
z
" id="Helvetica-118"/>
      <path d="M 13.1875 13.921875 
Q 13.1875 10.109375 15.96875 7.90625 
Q 18.75 5.71875 22.5625 5.71875 
Q 27.203125 5.71875 31.546875 7.859375 
Q 38.875 11.421875 38.875 19.53125 
L 38.875 26.609375 
Q 37.25 25.59375 34.703125 24.90625 
Q 32.171875 24.21875 29.734375 23.921875 
L 24.421875 23.25 
Q 19.625 22.609375 17.234375 21.234375 
Q 13.1875 18.953125 13.1875 13.921875 
z
M 34.46875 31.6875 
Q 37.5 32.078125 38.53125 34.234375 
Q 39.109375 35.40625 39.109375 37.59375 
Q 39.109375 42.09375 35.90625 44.109375 
Q 32.71875 46.140625 26.765625 46.140625 
Q 19.875 46.140625 17 42.4375 
Q 15.375 40.375 14.890625 36.328125 
L 6.6875 36.328125 
Q 6.9375 46 12.96875 49.78125 
Q 19 53.5625 26.953125 53.5625 
Q 36.1875 53.5625 41.9375 50.046875 
Q 47.65625 46.53125 47.65625 39.109375 
L 47.65625 8.984375 
Q 47.65625 7.625 48.21875 6.78125 
Q 48.78125 5.953125 50.59375 5.953125 
Q 51.171875 5.953125 51.90625 6.03125 
Q 52.640625 6.109375 53.46875 6.25 
L 53.46875 -0.25 
Q 51.421875 -0.828125 50.34375 -0.96875 
Q 49.265625 -1.125 47.40625 -1.125 
Q 42.875 -1.125 40.828125 2.09375 
Q 39.75 3.8125 39.3125 6.9375 
Q 36.625 3.421875 31.59375 0.828125 
Q 26.5625 -1.765625 20.515625 -1.765625 
Q 13.234375 -1.765625 8.609375 2.65625 
Q 4 7.078125 4 13.71875 
Q 4 21 8.546875 25 
Q 13.09375 29 20.453125 29.9375 
z
M 27.203125 53.5625 
z
" id="Helvetica-97"/>
     </defs>
     <g style="fill:#262626;" transform="translate(14.5105 109.259625)rotate(-90)scale(0.084 -0.084)">
      <use xlink:href="#Helvetica-67"/>
      <use x="72.216797" xlink:href="#Helvetica-111"/>
      <use x="127.832031" xlink:href="#Helvetica-118"/>
      <use x="177.832031" xlink:href="#Helvetica-101"/>
      <use x="233.447266" xlink:href="#Helvetica-114"/>
      <use x="266.748047" xlink:href="#Helvetica-97"/>
      <use x="322.363281" xlink:href="#Helvetica-103"/>
      <use x="377.978516" xlink:href="#Helvetica-101"/>
     </g>
    </g>
   </g>
   <g id="PolyCollection_1">
    <defs>
     <path d="M 60.406364 -74.233212 
L 60.406364 -71.167536 
L 63.173236 -80.297829 
L 65.940109 -90.882134 
L 68.706982 -100.100149 
L 71.473855 -106.816063 
L 74.240727 -113.166164 
L 77.0076 -119.288325 
L 79.774473 -123.507459 
L 82.541345 -127.453264 
L 85.308218 -131.838997 
L 88.075091 -135.566083 
L 90.841964 -138.386431 
L 93.608836 -141.070557 
L 96.375709 -143.933054 
L 99.142582 -146.565279 
L 101.909455 -149.475038 
L 104.676327 -151.547329 
L 107.4432 -153.13287 
L 110.210073 -153.187244 
L 112.976945 -154.280673 
L 115.743818 -156.291033 
L 118.510691 -158.052739 
L 121.277564 -160.444555 
L 124.044436 -164.193329 
L 126.811309 -166.413356 
L 129.578182 -168.162515 
L 132.345055 -170.44274 
L 135.111927 -172.990576 
L 137.8788 -174.731802 
L 140.645673 -175.702083 
L 143.412545 -177.320428 
L 146.179418 -179.423786 
L 148.946291 -178.542667 
L 151.713164 -179.950902 
L 154.480036 -182.071205 
L 157.246909 -183.72614 
L 160.013782 -183.984771 
L 162.780655 -185.5403 
L 165.547527 -186.406965 
L 168.3144 -187.176852 
L 171.081273 -186.040513 
L 173.848145 -187.290992 
L 176.615018 -189.730333 
L 179.381891 -189.707069 
L 182.148764 -188.968644 
L 184.915636 -189.753156 
L 187.682509 -191.760368 
L 190.449382 -192.637919 
L 193.216255 -193.194321 
L 195.983127 -195.247034 
L 198.75 -197.383461 
L 201.516873 -196.970198 
L 204.283745 -196.504331 
L 207.050618 -193.811364 
L 209.817491 -192.857337 
L 212.584364 -192.040699 
L 215.351236 -191.53109 
L 218.118109 -191.256448 
L 220.884982 -191.058479 
L 223.651855 -189.677534 
L 226.418727 -189.043058 
L 229.1856 -188.789906 
L 231.952473 -188.007504 
L 234.719345 -186.613917 
L 237.486218 -185.161722 
L 240.253091 -183.127229 
L 243.019964 -182.309842 
L 245.786836 -181.585454 
L 248.553709 -181.069459 
L 251.320582 -180.36981 
L 254.087455 -179.507751 
L 256.854327 -178.743159 
L 259.6212 -178.70107 
L 262.388073 -177.679409 
L 265.154945 -176.394509 
L 267.921818 -174.302166 
L 270.688691 -173.024959 
L 273.455564 -172.224738 
L 276.222436 -169.972138 
L 278.989309 -168.833866 
L 281.756182 -166.637757 
L 284.523055 -164.027409 
L 287.289927 -162.467664 
L 290.0568 -160.263738 
L 292.823673 -157.40701 
L 295.590545 -153.19291 
L 298.357418 -148.70363 
L 301.124291 -145.526791 
L 303.891164 -143.834403 
L 306.658036 -139.949316 
L 309.424909 -134.516913 
L 312.191782 -127.478345 
L 314.958655 -122.560756 
L 317.725527 -118.110889 
L 320.4924 -114.244326 
L 323.259273 -109.612008 
L 326.026145 -105.655292 
L 328.793018 -101.965863 
L 331.559891 -96.80407 
L 334.326764 -90.509713 
L 337.093636 -85.478221 
L 337.093636 -87.147866 
L 337.093636 -87.147866 
L 334.326764 -92.153947 
L 331.559891 -98.567996 
L 328.793018 -103.985708 
L 326.026145 -107.803283 
L 323.259273 -112.179174 
L 320.4924 -117.136325 
L 317.725527 -121.354739 
L 314.958655 -126.373995 
L 312.191782 -131.363435 
L 309.424909 -138.307264 
L 306.658036 -143.54487 
L 303.891164 -147.724373 
L 301.124291 -149.016697 
L 298.357418 -151.492663 
L 295.590545 -155.900902 
L 292.823673 -160.149813 
L 290.0568 -162.823769 
L 287.289927 -164.706417 
L 284.523055 -165.960502 
L 281.756182 -168.540662 
L 278.989309 -170.482447 
L 276.222436 -171.227868 
L 273.455564 -173.441292 
L 270.688691 -174.228001 
L 267.921818 -175.555902 
L 265.154945 -177.641189 
L 262.388073 -179.11518 
L 259.6212 -180.044756 
L 256.854327 -179.801096 
L 254.087455 -180.565512 
L 251.320582 -181.586865 
L 248.553709 -182.309739 
L 245.786836 -182.741838 
L 243.019964 -183.479543 
L 240.253091 -184.340434 
L 237.486218 -186.514303 
L 234.719345 -187.944317 
L 231.952473 -189.553383 
L 229.1856 -190.333961 
L 226.418727 -190.65255 
L 223.651855 -191.498492 
L 220.884982 -192.705207 
L 218.118109 -192.80739 
L 215.351236 -193.332751 
L 212.584364 -194.262632 
L 209.817491 -195.224541 
L 207.050618 -195.976003 
L 204.283745 -198.36143 
L 201.516873 -198.994431 
L 198.75 -199.475455 
L 195.983127 -197.451103 
L 193.216255 -195.414052 
L 190.449382 -195.077575 
L 187.682509 -194.12472 
L 184.915636 -192.189568 
L 182.148764 -190.807658 
L 179.381891 -191.365945 
L 176.615018 -191.561808 
L 173.848145 -189.156267 
L 171.081273 -187.786325 
L 168.3144 -189.024318 
L 165.547527 -188.238033 
L 162.780655 -187.266128 
L 160.013782 -185.853676 
L 157.246909 -185.638811 
L 154.480036 -184.292616 
L 151.713164 -182.32361 
L 148.946291 -181.370376 
L 146.179418 -181.982646 
L 143.412545 -179.701238 
L 140.645673 -178.259402 
L 137.8788 -176.967692 
L 135.111927 -174.821843 
L 132.345055 -172.113744 
L 129.578182 -169.759109 
L 126.811309 -168.049029 
L 124.044436 -165.944758 
L 121.277564 -162.025309 
L 118.510691 -159.57881 
L 115.743818 -157.747117 
L 112.976945 -156.009645 
L 110.210073 -154.890115 
L 107.4432 -154.607372 
L 104.676327 -153.002423 
L 101.909455 -150.805938 
L 99.142582 -147.951385 
L 96.375709 -145.438672 
L 93.608836 -142.77368 
L 90.841964 -140.127682 
L 88.075091 -137.640364 
L 85.308218 -134.18587 
L 82.541345 -129.954085 
L 79.774473 -125.995318 
L 77.0076 -122.058303 
L 74.240727 -116.103436 
L 71.473855 -109.804196 
L 68.706982 -102.922229 
L 65.940109 -93.91717 
L 63.173236 -83.383827 
L 60.406364 -74.233212 
z
" id="mc577f0f7e1" style="stroke:#315498;stroke-opacity:0.2;"/>
    </defs>
    <g clip-path="url(#p8c40087048)">
     <use style="fill:#315498;fill-opacity:0.2;stroke:#315498;stroke-opacity:0.2;" x="0" xlink:href="#mc577f0f7e1" y="216"/>
    </g>
   </g>
   <g id="PolyCollection_2">
    <defs>
     <path d="M 60.406364 -51.593212 
L 60.406364 -50.424545 
L 63.173236 -58.740446 
L 65.940109 -71.386966 
L 68.706982 -84.825285 
L 71.473855 -96.049235 
L 74.240727 -106.129351 
L 77.0076 -114.979126 
L 79.774473 -121.752857 
L 82.541345 -129.068086 
L 85.308218 -135.163686 
L 88.075091 -140.883153 
L 90.841964 -146.282322 
L 93.608836 -150.215399 
L 96.375709 -153.775858 
L 99.142582 -157.200321 
L 101.909455 -159.768879 
L 104.676327 -162.358813 
L 107.4432 -164.51533 
L 110.210073 -164.680556 
L 112.976945 -166.111866 
L 115.743818 -167.414724 
L 118.510691 -168.410381 
L 121.277564 -169.023339 
L 124.044436 -171.592566 
L 126.811309 -172.487264 
L 129.578182 -172.383008 
L 132.345055 -173.171151 
L 135.111927 -174.510423 
L 137.8788 -175.221574 
L 140.645673 -175.622731 
L 143.412545 -176.409151 
L 146.179418 -177.279371 
L 148.946291 -176.092823 
L 151.713164 -176.362515 
L 154.480036 -177.252676 
L 157.246909 -178.49988 
L 160.013782 -178.07787 
L 162.780655 -178.490943 
L 165.547527 -179.732457 
L 168.3144 -180.685845 
L 171.081273 -181.185887 
L 173.848145 -182.714625 
L 176.615018 -184.422422 
L 179.381891 -184.983052 
L 182.148764 -184.482271 
L 184.915636 -184.943025 
L 187.682509 -185.564109 
L 190.449382 -185.978149 
L 193.216255 -185.48176 
L 195.983127 -186.361867 
L 198.75 -187.05756 
L 201.516873 -187.133437 
L 204.283745 -188.18356 
L 207.050618 -186.926157 
L 209.817491 -186.21981 
L 212.584364 -186.892879 
L 215.351236 -187.384492 
L 218.118109 -187.783247 
L 220.884982 -189.249859 
L 223.651855 -188.606536 
L 226.418727 -188.682356 
L 229.1856 -188.266597 
L 231.952473 -187.964892 
L 234.719345 -186.134417 
L 237.486218 -184.798215 
L 240.253091 -183.736195 
L 243.019964 -183.225554 
L 245.786836 -182.727193 
L 248.553709 -182.712149 
L 251.320582 -182.35444 
L 254.087455 -181.466081 
L 256.854327 -180.787403 
L 259.6212 -180.295335 
L 262.388073 -179.600434 
L 265.154945 -178.765997 
L 267.921818 -178.353779 
L 270.688691 -177.455763 
L 273.455564 -176.439368 
L 276.222436 -176.915893 
L 278.989309 -176.951593 
L 281.756182 -175.032623 
L 284.523055 -173.173781 
L 287.289927 -171.249146 
L 290.0568 -168.160174 
L 292.823673 -164.659069 
L 295.590545 -161.197502 
L 298.357418 -156.756949 
L 301.124291 -153.145471 
L 303.891164 -150.91319 
L 306.658036 -146.607825 
L 309.424909 -142.147688 
L 312.191782 -135.41301 
L 314.958655 -129.676424 
L 317.725527 -124.207237 
L 320.4924 -118.711375 
L 323.259273 -112.205102 
L 326.026145 -105.741606 
L 328.793018 -99.893685 
L 331.559891 -92.61235 
L 334.326764 -85.540565 
L 337.093636 -79.953836 
L 337.093636 -80.556346 
L 337.093636 -80.556346 
L 334.326764 -86.199374 
L 331.559891 -93.336513 
L 328.793018 -100.733502 
L 326.026145 -106.659862 
L 323.259273 -113.257921 
L 320.4924 -119.95461 
L 317.725527 -125.538483 
L 314.958655 -131.06692 
L 312.191782 -136.873393 
L 309.424909 -143.542578 
L 306.658036 -148.080493 
L 303.891164 -152.359389 
L 301.124291 -154.776203 
L 298.357418 -158.398037 
L 295.590545 -162.748592 
L 292.823673 -166.07312 
L 290.0568 -169.555271 
L 287.289927 -172.611386 
L 284.523055 -174.542798 
L 281.756182 -176.391211 
L 278.989309 -178.132036 
L 276.222436 -178.092254 
L 273.455564 -177.485978 
L 270.688691 -178.408428 
L 267.921818 -179.233733 
L 265.154945 -179.578691 
L 262.388073 -180.454491 
L 259.6212 -181.094449 
L 256.854327 -181.630467 
L 254.087455 -182.274776 
L 251.320582 -183.143291 
L 248.553709 -183.502518 
L 245.786836 -183.458692 
L 243.019964 -183.941342 
L 240.253091 -184.455635 
L 237.486218 -185.47572 
L 234.719345 -186.899157 
L 231.952473 -188.727754 
L 229.1856 -189.029339 
L 226.418727 -189.442545 
L 223.651855 -189.500532 
L 220.884982 -190.182931 
L 218.118109 -188.716479 
L 215.351236 -188.364144 
L 212.584364 -187.818347 
L 209.817491 -187.145455 
L 207.050618 -187.856702 
L 204.283745 -189.002211 
L 201.516873 -187.844936 
L 198.75 -187.75025 
L 195.983127 -187.020133 
L 193.216255 -186.076812 
L 190.449382 -186.517834 
L 187.682509 -186.182657 
L 184.915636 -185.57846 
L 182.148764 -185.061939 
L 179.381891 -185.499929 
L 176.615018 -184.917253 
L 173.848145 -183.204167 
L 171.081273 -181.765025 
L 168.3144 -181.330537 
L 165.547527 -180.459255 
L 162.780655 -179.230012 
L 160.013782 -178.769782 
L 157.246909 -179.275646 
L 154.480036 -177.935969 
L 151.713164 -177.008514 
L 148.946291 -176.636102 
L 146.179418 -177.842479 
L 143.412545 -177.127801 
L 140.645673 -176.318487 
L 137.8788 -175.925371 
L 135.111927 -175.250763 
L 132.345055 -173.921481 
L 129.578182 -173.22662 
L 126.811309 -173.370939 
L 124.044436 -172.451392 
L 121.277564 -170.097463 
L 118.510691 -169.788588 
L 115.743818 -168.880895 
L 112.976945 -167.807702 
L 110.210073 -166.477688 
L 107.4432 -166.509372 
L 104.676327 -164.5545 
L 101.909455 -161.963957 
L 99.142582 -159.40665 
L 96.375709 -156.012569 
L 93.608836 -152.509798 
L 90.841964 -148.714419 
L 88.075091 -143.303083 
L 85.308218 -137.485992 
L 82.541345 -131.269873 
L 79.774473 -123.938625 
L 77.0076 -117.089158 
L 74.240727 -108.125966 
L 71.473855 -97.894973 
L 68.706982 -86.374002 
L 65.940109 -72.884894 
L 63.173236 -60.03418 
L 60.406364 -51.593212 
z
" id="m90e09683c4" style="stroke:#bd9020;stroke-opacity:0.2;"/>
    </defs>
    <g clip-path="url(#p8c40087048)">
     <use style="fill:#bd9020;fill-opacity:0.2;stroke:#bd9020;stroke-opacity:0.2;" x="0" xlink:href="#m90e09683c4" y="216"/>
    </g>
   </g>
   <g id="PolyCollection_3">
    <defs>
     <path d="M 60.406364 -77.737734 
L 60.406364 -76.118505 
L 63.173236 -84.95104 
L 65.940109 -93.977545 
L 68.706982 -102.747131 
L 71.473855 -108.341416 
L 74.240727 -113.997017 
L 77.0076 -120.478197 
L 79.774473 -125.06806 
L 82.541345 -129.398034 
L 85.308218 -132.516399 
L 88.075091 -135.322226 
L 90.841964 -137.396415 
L 93.608836 -140.194835 
L 96.375709 -142.232736 
L 99.142582 -145.05936 
L 101.909455 -147.280434 
L 104.676327 -147.823388 
L 107.4432 -148.441526 
L 110.210073 -149.389525 
L 112.976945 -152.032656 
L 115.743818 -153.570626 
L 118.510691 -155.538489 
L 121.277564 -157.669341 
L 124.044436 -160.737731 
L 126.811309 -163.762145 
L 129.578182 -164.916295 
L 132.345055 -166.554266 
L 135.111927 -168.140419 
L 137.8788 -170.774443 
L 140.645673 -173.732223 
L 143.412545 -176.660936 
L 146.179418 -178.510906 
L 148.946291 -179.385023 
L 151.713164 -179.86674 
L 154.480036 -181.39196 
L 157.246909 -184.692713 
L 160.013782 -185.210377 
L 162.780655 -185.683402 
L 165.547527 -186.785105 
L 168.3144 -188.039165 
L 171.081273 -187.038184 
L 173.848145 -187.292142 
L 176.615018 -189.295569 
L 179.381891 -190.08393 
L 182.148764 -191.998879 
L 184.915636 -193.549647 
L 187.682509 -195.379303 
L 190.449382 -195.634465 
L 193.216255 -196.102106 
L 195.983127 -195.31552 
L 198.75 -194.265677 
L 201.516873 -193.301261 
L 204.283745 -192.561697 
L 207.050618 -192.037042 
L 209.817491 -190.679165 
L 212.584364 -191.922537 
L 215.351236 -192.650397 
L 218.118109 -191.871347 
L 220.884982 -191.772899 
L 223.651855 -191.977997 
L 226.418727 -191.908622 
L 229.1856 -190.891866 
L 231.952473 -190.594518 
L 234.719345 -187.755041 
L 237.486218 -186.144676 
L 240.253091 -183.93936 
L 243.019964 -181.952174 
L 245.786836 -181.403156 
L 248.553709 -182.468303 
L 251.320582 -183.253058 
L 254.087455 -182.345183 
L 256.854327 -180.787691 
L 259.6212 -180.127067 
L 262.388073 -179.544129 
L 265.154945 -178.438968 
L 267.921818 -174.348824 
L 270.688691 -171.661768 
L 273.455564 -169.676788 
L 276.222436 -168.21221 
L 278.989309 -166.455102 
L 281.756182 -163.279465 
L 284.523055 -161.025503 
L 287.289927 -160.239928 
L 290.0568 -157.228397 
L 292.823673 -155.921716 
L 295.590545 -151.124082 
L 298.357418 -145.526659 
L 301.124291 -141.457213 
L 303.891164 -138.670713 
L 306.658036 -135.365263 
L 309.424909 -131.607361 
L 312.191782 -126.036578 
L 314.958655 -122.396357 
L 317.725527 -119.796675 
L 320.4924 -115.120423 
L 323.259273 -110.958683 
L 326.026145 -107.555204 
L 328.793018 -105.189996 
L 331.559891 -100.358335 
L 334.326764 -92.203143 
L 337.093636 -85.938933 
L 337.093636 -86.978472 
L 337.093636 -86.978472 
L 334.326764 -93.651724 
L 331.559891 -102.056095 
L 328.793018 -107.152035 
L 326.026145 -109.765085 
L 323.259273 -113.687922 
L 320.4924 -118.429314 
L 317.725527 -123.297121 
L 314.958655 -126.226707 
L 312.191782 -129.881371 
L 309.424909 -135.622046 
L 306.658036 -139.430991 
L 303.891164 -142.689201 
L 301.124291 -145.45861 
L 298.357418 -149.7065 
L 295.590545 -155.327269 
L 292.823673 -160.505801 
L 290.0568 -162.08296 
L 287.289927 -165.025977 
L 284.523055 -165.793951 
L 281.756182 -168.485471 
L 278.989309 -170.858678 
L 276.222436 -172.791484 
L 273.455564 -174.242298 
L 270.688691 -176.165813 
L 267.921818 -178.501717 
L 265.154945 -181.75153 
L 262.388073 -182.519828 
L 259.6212 -182.802037 
L 256.854327 -183.07132 
L 254.087455 -184.842922 
L 251.320582 -185.290508 
L 248.553709 -184.574643 
L 245.786836 -183.555946 
L 243.019964 -184.081893 
L 240.253091 -186.07673 
L 237.486218 -187.885852 
L 234.719345 -189.086116 
L 231.952473 -191.752297 
L 229.1856 -192.169056 
L 226.418727 -193.018709 
L 223.651855 -193.013439 
L 220.884982 -192.725168 
L 218.118109 -192.798823 
L 215.351236 -193.597729 
L 212.584364 -192.93536 
L 209.817491 -191.640511 
L 207.050618 -193.206987 
L 204.283745 -193.903268 
L 201.516873 -194.872539 
L 198.75 -195.927153 
L 195.983127 -196.992322 
L 193.216255 -197.611306 
L 190.449382 -197.028699 
L 187.682509 -196.873584 
L 184.915636 -195.335108 
L 182.148764 -194.166653 
L 179.381891 -192.76574 
L 176.615018 -192.16424 
L 173.848145 -190.261033 
L 171.081273 -189.748017 
L 168.3144 -190.594275 
L 165.547527 -189.378152 
L 162.780655 -187.991598 
L 160.013782 -187.73855 
L 157.246909 -187.352776 
L 154.480036 -184.377955 
L 151.713164 -183.184215 
L 148.946291 -182.424628 
L 146.179418 -181.688888 
L 143.412545 -179.633545 
L 140.645673 -176.51679 
L 137.8788 -173.356261 
L 135.111927 -170.534917 
L 132.345055 -169.187201 
L 129.578182 -167.955092 
L 126.811309 -166.790412 
L 124.044436 -163.494315 
L 121.277564 -160.272375 
L 118.510691 -157.923292 
L 115.743818 -155.925116 
L 112.976945 -154.586673 
L 110.210073 -151.958761 
L 107.4432 -151.202277 
L 104.676327 -151.033556 
L 101.909455 -150.5939 
L 99.142582 -148.078448 
L 96.375709 -145.120748 
L 93.608836 -142.894905 
L 90.841964 -140.124905 
L 88.075091 -138.083138 
L 85.308218 -135.210695 
L 82.541345 -131.92058 
L 79.774473 -127.685804 
L 77.0076 -123.078951 
L 74.240727 -116.397959 
L 71.473855 -110.775973 
L 68.706982 -104.930554 
L 65.940109 -96.089595 
L 63.173236 -86.766775 
L 60.406364 -77.737734 
z
" id="m7bb634b1a3" style="stroke:#a22382;stroke-opacity:0.2;"/>
    </defs>
    <g clip-path="url(#p8c40087048)">
     <use style="fill:#a22382;fill-opacity:0.2;stroke:#a22382;stroke-opacity:0.2;" x="0" xlink:href="#m7bb634b1a3" y="216"/>
    </g>
   </g>
   <g id="line2d_12">
    <path clip-path="url(#p8c40087048)" d="M 60.406364 143.297832 
L 63.173236 134.190439 
L 65.940109 123.665209 
L 68.706982 114.543972 
L 71.473855 107.733178 
L 74.240727 101.416315 
L 77.0076 95.424292 
L 79.774473 91.264469 
L 82.541345 87.218361 
L 85.308218 82.989211 
L 88.075091 79.399531 
L 90.841964 76.743775 
L 93.608836 74.067343 
L 96.375709 71.329525 
L 99.142582 68.720577 
L 101.909455 65.85441 
L 104.676327 63.712227 
L 107.4432 62.139782 
L 110.210073 62.012617 
L 112.976945 60.86874 
L 115.743818 58.990788 
L 118.510691 57.226593 
L 121.277564 54.77075 
L 124.044436 50.965842 
L 126.811309 48.735585 
L 129.578182 47.064793 
L 132.345055 44.751131 
L 135.111927 42.084653 
L 137.8788 40.260372 
L 140.645673 39.108097 
L 143.412545 37.534522 
L 146.179418 35.37112 
L 148.946291 36.121501 
L 151.713164 34.924551 
L 154.480036 32.868778 
L 157.246909 31.308972 
L 160.013782 31.108303 
L 162.780655 29.57789 
L 165.547527 28.669682 
L 168.3144 27.866471 
L 171.081273 29.091388 
L 173.848145 27.767645 
L 176.615018 25.386649 
L 179.381891 25.4541 
L 182.148764 26.121972 
L 184.915636 25.050907 
L 187.682509 23.090956 
L 190.449382 22.123172 
L 193.216255 21.695904 
L 195.983127 19.698161 
L 198.75 17.584817 
L 201.516873 17.995695 
L 204.283745 18.613764 
L 207.050618 21.141897 
L 209.817491 22.04452 
L 212.584364 22.896468 
L 215.351236 23.52447 
L 218.118109 23.981068 
L 220.884982 24.133416 
L 223.651855 25.368425 
L 226.418727 26.129059 
L 229.1856 26.393268 
L 231.952473 27.188113 
L 234.719345 28.72135 
L 237.486218 30.16793 
L 240.253091 32.256219 
L 243.019964 33.103583 
L 245.786836 33.81822 
L 248.553709 34.320123 
L 251.320582 35.039054 
L 254.087455 35.96148 
L 256.854327 36.729798 
L 259.6212 36.638985 
L 262.388073 37.576235 
L 265.154945 39.00067 
L 267.921818 41.06727 
L 270.688691 42.372693 
L 273.455564 43.171641 
L 276.222436 45.415389 
L 278.989309 46.357478 
L 281.756182 48.453951 
L 284.523055 50.990951 
L 287.289927 52.415876 
L 290.0568 54.4057 
L 292.823673 57.117215 
L 295.590545 61.351428 
L 298.357418 65.83625 
L 301.124291 68.663378 
L 303.891164 70.154859 
L 306.658036 74.151282 
L 309.424909 79.397719 
L 312.191782 86.459826 
L 314.958655 91.586111 
L 317.725527 96.284574 
L 320.4924 100.186316 
L 323.259273 105.028675 
L 326.026145 109.259253 
L 328.793018 113.040406 
L 331.559891 118.329814 
L 334.326764 124.663974 
L 337.093636 129.730811 
" style="fill:none;stroke:#315498;stroke-linecap:round;stroke-width:1.5;"/>
   </g>
   <g id="line2d_13">
    <path clip-path="url(#p8c40087048)" d="M 60.406364 164.969955 
L 63.173236 156.58472 
L 65.940109 143.850366 
L 68.706982 130.418135 
L 71.473855 119.054719 
L 74.240727 108.85664 
L 77.0076 99.944332 
L 79.774473 93.181393 
L 82.541345 85.861535 
L 85.308218 79.690693 
L 88.075091 74.000076 
L 90.841964 68.635794 
L 93.608836 64.710837 
L 96.375709 61.145722 
L 99.142582 57.793592 
L 101.909455 55.201101 
L 104.676327 52.715039 
L 107.4432 50.601551 
L 110.210073 50.485235 
L 112.976945 49.15392 
L 115.743818 47.944796 
L 118.510691 46.962947 
L 121.277564 46.516429 
L 124.044436 44.015371 
L 126.811309 43.116699 
L 129.578182 43.20519 
L 132.345055 42.467227 
L 135.111927 41.106873 
L 137.8788 40.420186 
L 140.645673 40.026158 
L 143.412545 39.224298 
L 146.179418 38.43661 
L 148.946291 39.639084 
L 151.713164 39.309449 
L 154.480036 38.388324 
L 157.246909 37.101251 
L 160.013782 37.57457 
L 162.780655 37.120154 
L 165.547527 35.881319 
L 168.3144 34.97419 
L 171.081273 34.53855 
L 173.848145 33.051426 
L 176.615018 31.336858 
L 179.381891 30.761083 
L 182.148764 31.245608 
L 184.915636 30.725809 
L 187.682509 30.135319 
L 190.449382 29.751266 
L 193.216255 30.234241 
L 195.983127 29.312085 
L 198.75 28.57923 
L 201.516873 28.501808 
L 204.283745 27.368874 
L 207.050618 28.553971 
L 209.817491 29.283086 
L 212.584364 28.591171 
L 215.351236 28.081667 
L 218.118109 27.704073 
L 220.884982 26.248881 
L 223.651855 26.925897 
L 226.418727 26.931796 
L 229.1856 27.357788 
L 231.952473 27.653389 
L 234.719345 29.476407 
L 237.486218 30.870604 
L 240.253091 31.885552 
L 243.019964 32.406255 
L 245.786836 32.871405 
L 248.553709 32.859855 
L 251.320582 33.234556 
L 254.087455 34.114932 
L 256.854327 34.764867 
L 259.6212 35.289982 
L 262.388073 35.910774 
L 265.154945 36.804355 
L 267.921818 37.177377 
L 270.688691 38.031815 
L 273.455564 39.009675 
L 276.222436 38.47632 
L 278.989309 38.43717 
L 281.756182 40.260452 
L 284.523055 42.086356 
L 287.289927 44.036529 
L 290.0568 47.113353 
L 292.823673 50.61844 
L 295.590545 54.005493 
L 298.357418 58.394873 
L 301.124291 62.048487 
L 303.891164 64.306602 
L 306.658036 68.621934 
L 309.424909 73.164581 
L 312.191782 79.832818 
L 314.958655 85.622581 
L 317.725527 91.148652 
L 320.4924 96.668488 
L 323.259273 103.265562 
L 326.026145 109.795742 
L 328.793018 115.696457 
L 331.559891 123.020528 
L 334.326764 130.126619 
L 337.093636 135.739726 
" style="fill:none;stroke:#bd9020;stroke-linecap:round;stroke-width:1.5;"/>
   </g>
   <g id="line2d_14">
    <path clip-path="url(#p8c40087048)" d="M 60.406364 139.072274 
L 63.173236 130.131447 
L 65.940109 120.914783 
L 68.706982 112.127636 
L 71.473855 106.336485 
L 74.240727 100.718923 
L 77.0076 94.069866 
L 79.774473 89.494775 
L 82.541345 85.231425 
L 85.308218 82.037872 
L 88.075091 79.165343 
L 90.841964 77.043346 
L 93.608836 74.287378 
L 96.375709 72.165518 
L 99.142582 69.273145 
L 101.909455 66.877741 
L 104.676327 66.314909 
L 107.4432 65.946566 
L 110.210073 65.180475 
L 112.976945 62.506846 
L 115.743818 61.076976 
L 118.510691 59.097192 
L 121.277564 56.821598 
L 124.044436 53.772784 
L 126.811309 50.488014 
L 129.578182 49.454922 
L 132.345055 48.019382 
L 135.111927 46.513098 
L 137.8788 43.729911 
L 140.645673 40.565016 
L 143.412545 37.549176 
L 146.179418 35.605531 
L 148.946291 34.842904 
L 151.713164 34.066624 
L 154.480036 32.868682 
L 157.246909 29.746268 
L 160.013782 29.335401 
L 162.780655 28.99855 
L 165.547527 27.731612 
L 168.3144 26.480329 
L 171.081273 27.38015 
L 173.848145 26.963208 
L 176.615018 25.064197 
L 179.381891 24.300824 
L 182.148764 22.832075 
L 184.915636 21.437705 
L 187.682509 19.829781 
L 190.449382 19.671869 
L 193.216255 19.089801 
L 195.983127 19.739214 
L 198.75 20.794804 
L 201.516873 21.864974 
L 204.283745 22.75288 
L 207.050618 23.383631 
L 209.817491 24.828667 
L 212.584364 23.593296 
L 215.351236 22.906901 
L 218.118109 23.654992 
L 220.884982 23.751804 
L 223.651855 23.526239 
L 226.418727 23.53161 
L 229.1856 24.473453 
L 231.952473 24.857602 
L 234.719345 27.619122 
L 237.486218 29.035265 
L 240.253091 31.108239 
L 243.019964 33.06787 
L 245.786836 33.645857 
L 248.553709 32.48366 
L 251.320582 31.770078 
L 254.087455 32.417807 
L 256.854327 34.159088 
L 259.6212 34.67994 
L 262.388073 34.999803 
L 265.154945 35.987622 
L 267.921818 39.702027 
L 270.688691 42.224799 
L 273.455564 44.303784 
L 276.222436 45.688786 
L 278.989309 47.628583 
L 281.756182 50.607729 
L 284.523055 52.883611 
L 287.289927 53.730837 
L 290.0568 56.752719 
L 292.823673 58.063961 
L 295.590545 63.200679 
L 298.357418 68.771658 
L 301.124291 73.022059 
L 303.891164 75.761529 
L 306.658036 79.102081 
L 309.424909 82.905817 
L 312.191782 88.541614 
L 314.958655 92.161242 
L 317.725527 94.858498 
L 320.4924 99.599441 
L 323.259273 103.933908 
L 326.026145 107.548047 
L 328.793018 110.029106 
L 331.559891 114.985266 
L 334.326764 123.184589 
L 337.093636 129.585742 
" style="fill:none;stroke:#a22382;stroke-linecap:round;stroke-width:1.5;"/>
   </g>
   <g id="line2d_15"/>
   <g id="line2d_16"/>
   <g id="line2d_17"/>
   <g id="patch_3">
    <path d="M 40.572 173.028 
L 40.572 9.072 
" style="fill:none;stroke:#262626;stroke-linecap:square;stroke-linejoin:miter;stroke-width:1.25;"/>
   </g>
   <g id="patch_4">
    <path d="M 46.572 179.028 
L 350.928 179.028 
" style="fill:none;stroke:#262626;stroke-linecap:square;stroke-linejoin:miter;stroke-width:1.25;"/>
   </g>
  </g>
 </g>
 <defs>
  <clipPath id="p8c40087048">
   <rect height="163.956" width="304.356" x="46.572" y="9.072"/>
  </clipPath>
 </defs>
</svg>
