<?xml version="1.0" encoding="utf-8" standalone="no"?>
<!DOCTYPE svg PUBLIC "-//W3C//DTD SVG 1.1//EN"
  "http://www.w3.org/Graphics/SVG/1.1/DTD/svg11.dtd">
<!-- Created with matplotlib (https://matplotlib.org/) -->
<svg height="216pt" version="1.1" viewBox="0 0 648 216" width="648pt" xmlns="http://www.w3.org/2000/svg" xmlns:xlink="http://www.w3.org/1999/xlink">
 <defs>
  <style type="text/css">
*{stroke-linecap:butt;stroke-linejoin:round;}
  </style>
 </defs>
 <g id="figure_1">
  <g id="patch_1">
   <path d="M 0 216 
L 648 216 
L 648 0 
L 0 0 
z
" style="fill:#ffffff;"/>
  </g>
  <g id="axes_1">
   <g id="patch_2">
    <path d="M 67.1 169.852 
L 241.240904 169.852 
L 241.240904 11.059795 
L 67.1 11.059795 
z
" style="fill:#ffffff;"/>
   </g>
   <g id="matplotlib.axis_1">
    <g id="xtick_1">
     <g id="line2d_1">
      <defs>
       <path d="M 0 0 
L 0 6 
" id="m49e367ba96" style="stroke:#262626;stroke-width:1.25;"/>
      </defs>
      <g>
       <use style="fill:#262626;stroke:#262626;stroke-width:1.25;" x="74.219968" xlink:href="#m49e367ba96" y="174.852"/>
      </g>
     </g>
     <g id="text_1">
      <!-- 0.0 -->
      <defs>
       <path d="M 27.046875 69.921875 
Q 40.625 69.921875 46.6875 58.734375 
Q 51.375 50.09375 51.375 35.0625 
Q 51.375 20.796875 47.125 11.46875 
Q 40.96875 -1.90625 27 -1.90625 
Q 14.40625 -1.90625 8.25 9.03125 
Q 3.125 18.171875 3.125 33.546875 
Q 3.125 45.453125 6.203125 54 
Q 11.96875 69.921875 27.046875 69.921875 
z
M 26.953125 6.109375 
Q 33.796875 6.109375 37.84375 12.15625 
Q 41.890625 18.21875 41.890625 34.71875 
Q 41.890625 46.625 38.953125 54.3125 
Q 36.03125 62.015625 27.59375 62.015625 
Q 19.828125 62.015625 16.234375 54.703125 
Q 12.640625 47.40625 12.640625 33.203125 
Q 12.640625 22.515625 14.9375 16.015625 
Q 18.453125 6.109375 26.953125 6.109375 
z
" id="Helvetica-48"/>
       <path d="M 8.546875 10.640625 
L 18.75 10.640625 
L 18.75 0 
L 8.546875 0 
z
" id="Helvetica-46"/>
      </defs>
      <g style="fill:#262626;" transform="translate(68.103968 190.664625)scale(0.088 -0.088)">
       <use xlink:href="#Helvetica-48"/>
       <use x="55.615234" xlink:href="#Helvetica-46"/>
       <use x="83.398438" xlink:href="#Helvetica-48"/>
      </g>
     </g>
    </g>
    <g id="xtick_2">
     <g id="line2d_2">
      <g>
       <use style="fill:#262626;stroke:#262626;stroke-width:1.25;" x="106.041056" xlink:href="#m49e367ba96" y="174.852"/>
      </g>
     </g>
     <g id="text_2">
      <!-- 0.2 -->
      <defs>
       <path d="M 3.125 0 
Q 3.609375 9.03125 6.859375 15.71875 
Q 10.109375 22.40625 19.53125 27.875 
L 28.90625 33.296875 
Q 35.203125 36.96875 37.75 39.546875 
Q 41.75 43.609375 41.75 48.828125 
Q 41.75 54.9375 38.078125 58.515625 
Q 34.421875 62.109375 28.328125 62.109375 
Q 19.28125 62.109375 15.828125 55.28125 
Q 13.96875 51.609375 13.765625 45.125 
L 4.828125 45.125 
Q 4.984375 54.25 8.203125 60.015625 
Q 13.921875 70.171875 28.375 70.171875 
Q 40.375 70.171875 45.921875 63.671875 
Q 51.46875 57.171875 51.46875 49.21875 
Q 51.46875 40.828125 45.5625 34.859375 
Q 42.140625 31.390625 33.296875 26.46875 
L 26.609375 22.75 
Q 21.828125 20.125 19.09375 17.71875 
Q 14.203125 13.484375 12.9375 8.296875 
L 51.125 8.296875 
L 51.125 0 
L 3.125 0 
z
" id="Helvetica-50"/>
      </defs>
      <g style="fill:#262626;" transform="translate(99.925056 190.664625)scale(0.088 -0.088)">
       <use xlink:href="#Helvetica-48"/>
       <use x="55.615234" xlink:href="#Helvetica-46"/>
       <use x="83.398438" xlink:href="#Helvetica-50"/>
      </g>
     </g>
    </g>
    <g id="xtick_3">
     <g id="line2d_3">
      <g>
       <use style="fill:#262626;stroke:#262626;stroke-width:1.25;" x="137.862144" xlink:href="#m49e367ba96" y="174.852"/>
      </g>
     </g>
     <g id="text_3">
      <!-- 0.4 -->
      <defs>
       <path d="M 33.0625 24.75 
L 33.0625 56.453125 
L 10.640625 24.75 
z
M 33.203125 0 
L 33.203125 17.09375 
L 2.546875 17.09375 
L 2.546875 25.6875 
L 34.578125 70.125 
L 42 70.125 
L 42 24.75 
L 52.296875 24.75 
L 52.296875 17.09375 
L 42 17.09375 
L 42 0 
z
" id="Helvetica-52"/>
      </defs>
      <g style="fill:#262626;" transform="translate(131.746144 190.664625)scale(0.088 -0.088)">
       <use xlink:href="#Helvetica-48"/>
       <use x="55.615234" xlink:href="#Helvetica-46"/>
       <use x="83.398438" xlink:href="#Helvetica-52"/>
      </g>
     </g>
    </g>
    <g id="xtick_4">
     <g id="line2d_4">
      <g>
       <use style="fill:#262626;stroke:#262626;stroke-width:1.25;" x="169.683232" xlink:href="#m49e367ba96" y="174.852"/>
      </g>
     </g>
     <g id="text_4">
      <!-- 0.6 -->
      <defs>
       <path d="M 29.25 70.21875 
Q 40.96875 70.21875 45.578125 64.140625 
Q 50.203125 58.0625 50.203125 51.609375 
L 41.5 51.609375 
Q 40.71875 55.765625 39.015625 58.109375 
Q 35.84375 62.5 29.390625 62.5 
Q 22.015625 62.5 17.671875 55.6875 
Q 13.328125 48.875 12.84375 36.1875 
Q 15.875 40.625 20.453125 42.828125 
Q 24.65625 44.78125 29.828125 44.78125 
Q 38.625 44.78125 45.15625 39.15625 
Q 51.703125 33.546875 51.703125 22.40625 
Q 51.703125 12.890625 45.5 5.53125 
Q 39.3125 -1.8125 27.828125 -1.8125 
Q 18.015625 -1.8125 10.890625 5.640625 
Q 3.765625 13.09375 3.765625 30.71875 
Q 3.765625 43.75 6.9375 52.828125 
Q 13.03125 70.21875 29.25 70.21875 
z
M 28.609375 6 
Q 35.546875 6 38.984375 10.65625 
Q 42.4375 15.328125 42.4375 21.6875 
Q 42.4375 27.046875 39.359375 31.90625 
Q 36.28125 36.765625 28.171875 36.765625 
Q 22.515625 36.765625 18.234375 33 
Q 13.96875 29.25 13.96875 21.6875 
Q 13.96875 15.046875 17.84375 10.515625 
Q 21.734375 6 28.609375 6 
z
" id="Helvetica-54"/>
      </defs>
      <g style="fill:#262626;" transform="translate(163.567232 190.664625)scale(0.088 -0.088)">
       <use xlink:href="#Helvetica-48"/>
       <use x="55.615234" xlink:href="#Helvetica-46"/>
       <use x="83.398438" xlink:href="#Helvetica-54"/>
      </g>
     </g>
    </g>
    <g id="xtick_5">
     <g id="line2d_5">
      <g>
       <use style="fill:#262626;stroke:#262626;stroke-width:1.25;" x="201.50432" xlink:href="#m49e367ba96" y="174.852"/>
      </g>
     </g>
     <g id="text_5">
      <!-- 0.8 -->
      <defs>
       <path d="M 27.203125 40.625 
Q 33.015625 40.625 36.28125 43.875 
Q 39.546875 47.125 39.546875 51.609375 
Q 39.546875 55.515625 36.421875 58.78125 
Q 33.296875 62.0625 26.90625 62.0625 
Q 20.5625 62.0625 17.71875 58.78125 
Q 14.890625 55.515625 14.890625 51.125 
Q 14.890625 46.1875 18.546875 43.40625 
Q 22.21875 40.625 27.203125 40.625 
z
M 27.734375 6 
Q 33.84375 6 37.859375 9.296875 
Q 41.890625 12.59375 41.890625 19.140625 
Q 41.890625 25.921875 37.734375 29.4375 
Q 33.59375 32.953125 27.09375 32.953125 
Q 20.796875 32.953125 16.8125 29.359375 
Q 12.84375 25.78125 12.84375 19.4375 
Q 12.84375 13.96875 16.484375 9.984375 
Q 20.125 6 27.734375 6 
z
M 15.234375 37.25 
Q 11.578125 38.8125 9.515625 40.921875 
Q 5.671875 44.828125 5.671875 51.078125 
Q 5.671875 58.890625 11.328125 64.5 
Q 17 70.125 27.390625 70.125 
Q 37.453125 70.125 43.15625 64.8125 
Q 48.875 59.515625 48.875 52.4375 
Q 48.875 45.90625 45.5625 41.84375 
Q 43.703125 39.546875 39.796875 37.359375 
Q 44.140625 35.359375 46.625 32.765625 
Q 51.265625 27.875 51.265625 20.0625 
Q 51.265625 10.84375 45.0625 4.421875 
Q 38.875 -2 27.546875 -2 
Q 17.328125 -2 10.265625 3.53125 
Q 3.21875 9.078125 3.21875 19.625 
Q 3.21875 25.828125 6.25 30.34375 
Q 9.28125 34.859375 15.234375 37.25 
z
" id="Helvetica-56"/>
      </defs>
      <g style="fill:#262626;" transform="translate(195.38832 190.664625)scale(0.088 -0.088)">
       <use xlink:href="#Helvetica-48"/>
       <use x="55.615234" xlink:href="#Helvetica-46"/>
       <use x="83.398438" xlink:href="#Helvetica-56"/>
      </g>
     </g>
    </g>
    <g id="xtick_6">
     <g id="line2d_6">
      <g>
       <use style="fill:#262626;stroke:#262626;stroke-width:1.25;" x="233.325408" xlink:href="#m49e367ba96" y="174.852"/>
      </g>
     </g>
     <g id="text_6">
      <!-- 1.0 -->
      <defs>
       <path d="M 9.578125 49.515625 
L 9.578125 56.25 
Q 19.09375 57.171875 22.84375 59.34375 
Q 26.609375 61.53125 28.46875 69.625 
L 35.40625 69.625 
L 35.40625 0 
L 26.03125 0 
L 26.03125 49.515625 
z
" id="Helvetica-49"/>
      </defs>
      <g style="fill:#262626;" transform="translate(227.209408 190.664625)scale(0.088 -0.088)">
       <use xlink:href="#Helvetica-49"/>
       <use x="55.615234" xlink:href="#Helvetica-46"/>
       <use x="83.398438" xlink:href="#Helvetica-48"/>
      </g>
     </g>
    </g>
   </g>
   <g id="matplotlib.axis_2">
    <g id="ytick_1">
     <g id="line2d_7">
      <defs>
       <path d="M 0 0 
L -6 0 
" id="ma8e0782440" style="stroke:#262626;stroke-width:1.25;"/>
      </defs>
      <g>
       <use style="fill:#262626;stroke:#262626;stroke-width:1.25;" x="62.1" xlink:href="#ma8e0782440" y="162.634173"/>
      </g>
     </g>
     <g id="text_7">
      <!-- 0 -->
      <g style="fill:#262626;" transform="translate(47.706375 165.790485)scale(0.088 -0.088)">
       <use xlink:href="#Helvetica-48"/>
      </g>
     </g>
    </g>
    <g id="ytick_2">
     <g id="line2d_8">
      <g>
       <use style="fill:#262626;stroke:#262626;stroke-width:1.25;" x="62.1" xlink:href="#ma8e0782440" y="137.777255"/>
      </g>
     </g>
     <g id="text_8">
      <!-- 2 -->
      <g style="fill:#262626;" transform="translate(47.706375 140.933567)scale(0.088 -0.088)">
       <use xlink:href="#Helvetica-50"/>
      </g>
     </g>
    </g>
    <g id="ytick_3">
     <g id="line2d_9">
      <g>
       <use style="fill:#262626;stroke:#262626;stroke-width:1.25;" x="62.1" xlink:href="#ma8e0782440" y="112.920337"/>
      </g>
     </g>
     <g id="text_9">
      <!-- 4 -->
      <g style="fill:#262626;" transform="translate(47.706375 116.076649)scale(0.088 -0.088)">
       <use xlink:href="#Helvetica-52"/>
      </g>
     </g>
    </g>
    <g id="ytick_4">
     <g id="line2d_10">
      <g>
       <use style="fill:#262626;stroke:#262626;stroke-width:1.25;" x="62.1" xlink:href="#ma8e0782440" y="88.063419"/>
      </g>
     </g>
     <g id="text_10">
      <!-- 6 -->
      <g style="fill:#262626;" transform="translate(47.706375 91.219732)scale(0.088 -0.088)">
       <use xlink:href="#Helvetica-54"/>
      </g>
     </g>
    </g>
    <g id="ytick_5">
     <g id="line2d_11">
      <g>
       <use style="fill:#262626;stroke:#262626;stroke-width:1.25;" x="62.1" xlink:href="#ma8e0782440" y="63.206501"/>
      </g>
     </g>
     <g id="text_11">
      <!-- 8 -->
      <g style="fill:#262626;" transform="translate(47.706375 66.362814)scale(0.088 -0.088)">
       <use xlink:href="#Helvetica-56"/>
      </g>
     </g>
    </g>
    <g id="ytick_6">
     <g id="line2d_12">
      <g>
       <use style="fill:#262626;stroke:#262626;stroke-width:1.25;" x="62.1" xlink:href="#ma8e0782440" y="38.349584"/>
      </g>
     </g>
     <g id="text_12">
      <!-- 10 -->
      <g style="fill:#262626;" transform="translate(42.81275 41.505896)scale(0.088 -0.088)">
       <use xlink:href="#Helvetica-49"/>
       <use x="55.615234" xlink:href="#Helvetica-48"/>
      </g>
     </g>
    </g>
    <g id="ytick_7">
     <g id="line2d_13">
      <g>
       <use style="fill:#262626;stroke:#262626;stroke-width:1.25;" x="62.1" xlink:href="#ma8e0782440" y="13.492666"/>
      </g>
     </g>
     <g id="text_13">
      <!-- 12 -->
      <g style="fill:#262626;" transform="translate(42.81275 16.648978)scale(0.088 -0.088)">
       <use xlink:href="#Helvetica-49"/>
       <use x="55.615234" xlink:href="#Helvetica-50"/>
      </g>
     </g>
    </g>
    <g id="text_14">
     <!-- Cumulative number -->
     <defs>
      <path d="M 37.84375 73.6875 
Q 51.46875 73.6875 58.984375 66.5 
Q 66.5 59.328125 67.328125 50.203125 
L 57.859375 50.203125 
Q 56.25 57.125 51.4375 61.171875 
Q 46.625 65.234375 37.9375 65.234375 
Q 27.34375 65.234375 20.828125 57.78125 
Q 14.3125 50.34375 14.3125 34.96875 
Q 14.3125 22.359375 20.1875 14.515625 
Q 26.078125 6.6875 37.75 6.6875 
Q 48.484375 6.6875 54.109375 14.9375 
Q 57.078125 19.28125 58.546875 26.375 
L 68.015625 26.375 
Q 66.75 15.046875 59.625 7.375 
Q 51.078125 -1.859375 36.578125 -1.859375 
Q 24.078125 -1.859375 15.578125 5.71875 
Q 4.390625 15.71875 4.390625 36.625 
Q 4.390625 52.484375 12.796875 62.640625 
Q 21.875 73.6875 37.84375 73.6875 
z
M 35.890625 73.6875 
z
" id="Helvetica-67"/>
      <path d="M 15.234375 52.296875 
L 15.234375 17.578125 
Q 15.234375 13.578125 16.5 11.03125 
Q 18.84375 6.34375 25.25 6.34375 
Q 34.421875 6.34375 37.75 14.546875 
Q 39.546875 18.953125 39.546875 26.609375 
L 39.546875 52.296875 
L 48.34375 52.296875 
L 48.34375 0 
L 40.046875 0 
L 40.140625 7.71875 
Q 38.421875 4.734375 35.890625 2.6875 
Q 30.859375 -1.421875 23.6875 -1.421875 
Q 12.5 -1.421875 8.453125 6.0625 
Q 6.25 10.0625 6.25 16.75 
L 6.25 52.296875 
z
M 27.296875 53.5625 
z
" id="Helvetica-117"/>
      <path d="M 6.453125 52.296875 
L 15.140625 52.296875 
L 15.140625 44.875 
Q 18.265625 48.734375 20.796875 50.484375 
Q 25.140625 53.46875 30.671875 53.46875 
Q 36.921875 53.46875 40.71875 50.390625 
Q 42.875 48.640625 44.625 45.21875 
Q 47.5625 49.421875 51.515625 51.4375 
Q 55.46875 53.46875 60.40625 53.46875 
Q 70.953125 53.46875 74.75 45.84375 
Q 76.8125 41.75 76.8125 34.8125 
L 76.8125 0 
L 67.671875 0 
L 67.671875 36.328125 
Q 67.671875 41.546875 65.0625 43.5 
Q 62.453125 45.453125 58.6875 45.453125 
Q 53.515625 45.453125 49.78125 41.984375 
Q 46.046875 38.53125 46.046875 30.421875 
L 46.046875 0 
L 37.109375 0 
L 37.109375 34.125 
Q 37.109375 39.453125 35.84375 41.890625 
Q 33.84375 45.5625 28.375 45.5625 
Q 23.390625 45.5625 19.3125 41.703125 
Q 15.234375 37.84375 15.234375 27.734375 
L 15.234375 0 
L 6.453125 0 
z
" id="Helvetica-109"/>
      <path d="M 6.6875 71.734375 
L 15.484375 71.734375 
L 15.484375 0 
L 6.6875 0 
z
" id="Helvetica-108"/>
      <path d="M 13.1875 13.921875 
Q 13.1875 10.109375 15.96875 7.90625 
Q 18.75 5.71875 22.5625 5.71875 
Q 27.203125 5.71875 31.546875 7.859375 
Q 38.875 11.421875 38.875 19.53125 
L 38.875 26.609375 
Q 37.25 25.59375 34.703125 24.90625 
Q 32.171875 24.21875 29.734375 23.921875 
L 24.421875 23.25 
Q 19.625 22.609375 17.234375 21.234375 
Q 13.1875 18.953125 13.1875 13.921875 
z
M 34.46875 31.6875 
Q 37.5 32.078125 38.53125 34.234375 
Q 39.109375 35.40625 39.109375 37.59375 
Q 39.109375 42.09375 35.90625 44.109375 
Q 32.71875 46.140625 26.765625 46.140625 
Q 19.875 46.140625 17 42.4375 
Q 15.375 40.375 14.890625 36.328125 
L 6.6875 36.328125 
Q 6.9375 46 12.96875 49.78125 
Q 19 53.5625 26.953125 53.5625 
Q 36.1875 53.5625 41.9375 50.046875 
Q 47.65625 46.53125 47.65625 39.109375 
L 47.65625 8.984375 
Q 47.65625 7.625 48.21875 6.78125 
Q 48.78125 5.953125 50.59375 5.953125 
Q 51.171875 5.953125 51.90625 6.03125 
Q 52.640625 6.109375 53.46875 6.25 
L 53.46875 -0.25 
Q 51.421875 -0.828125 50.34375 -0.96875 
Q 49.265625 -1.125 47.40625 -1.125 
Q 42.875 -1.125 40.828125 2.09375 
Q 39.75 3.8125 39.3125 6.9375 
Q 36.625 3.421875 31.59375 0.828125 
Q 26.5625 -1.765625 20.515625 -1.765625 
Q 13.234375 -1.765625 8.609375 2.65625 
Q 4 7.078125 4 13.71875 
Q 4 21 8.546875 25 
Q 13.09375 29 20.453125 29.9375 
z
M 27.203125 53.5625 
z
" id="Helvetica-97"/>
      <path d="M 8.203125 66.890625 
L 17.09375 66.890625 
L 17.09375 52.296875 
L 25.4375 52.296875 
L 25.4375 45.125 
L 17.09375 45.125 
L 17.09375 10.984375 
Q 17.09375 8.25 18.953125 7.328125 
Q 19.96875 6.78125 22.359375 6.78125 
Q 23 6.78125 23.734375 6.8125 
Q 24.46875 6.84375 25.4375 6.9375 
L 25.4375 0 
Q 23.921875 -0.4375 22.28125 -0.625 
Q 20.65625 -0.828125 18.75 -0.828125 
Q 12.59375 -0.828125 10.390625 2.3125 
Q 8.203125 5.46875 8.203125 10.5 
L 8.203125 45.125 
L 1.125 45.125 
L 1.125 52.296875 
L 8.203125 52.296875 
z
" id="Helvetica-116"/>
      <path d="M 6.453125 52.046875 
L 15.375 52.046875 
L 15.375 0 
L 6.453125 0 
z
M 6.453125 71.734375 
L 15.375 71.734375 
L 15.375 61.765625 
L 6.453125 61.765625 
z
" id="Helvetica-105"/>
      <path d="M 10.75 52.296875 
L 24.703125 9.71875 
L 39.3125 52.296875 
L 48.921875 52.296875 
L 29.203125 0 
L 19.828125 0 
L 0.53125 52.296875 
z
" id="Helvetica-118"/>
      <path d="M 28.21875 53.46875 
Q 33.796875 53.46875 39.015625 50.859375 
Q 44.234375 48.25 46.96875 44.09375 
Q 49.609375 40.140625 50.484375 34.859375 
Q 51.265625 31.25 51.265625 23.34375 
L 12.9375 23.34375 
Q 13.1875 15.375 16.703125 10.5625 
Q 20.21875 5.765625 27.59375 5.765625 
Q 34.46875 5.765625 38.578125 10.296875 
Q 40.921875 12.9375 41.890625 16.40625 
L 50.53125 16.40625 
Q 50.203125 13.53125 48.265625 9.984375 
Q 46.34375 6.453125 43.953125 4.203125 
Q 39.9375 0.296875 34.03125 -1.078125 
Q 30.859375 -1.859375 26.859375 -1.859375 
Q 17.09375 -1.859375 10.296875 5.25 
Q 3.515625 12.359375 3.515625 25.140625 
Q 3.515625 37.75 10.34375 45.609375 
Q 17.1875 53.46875 28.21875 53.46875 
z
M 42.234375 30.328125 
Q 41.703125 36.03125 39.75 39.453125 
Q 36.140625 45.796875 27.6875 45.796875 
Q 21.625 45.796875 17.515625 41.421875 
Q 13.421875 37.0625 13.1875 30.328125 
z
M 27.390625 53.5625 
z
" id="Helvetica-101"/>
      <path id="Helvetica-32"/>
      <path d="M 6.453125 52.296875 
L 14.796875 52.296875 
L 14.796875 44.875 
Q 18.5 49.46875 22.65625 51.46875 
Q 26.8125 53.46875 31.890625 53.46875 
Q 43.015625 53.46875 46.921875 45.703125 
Q 49.078125 41.453125 49.078125 33.546875 
L 49.078125 0 
L 40.140625 0 
L 40.140625 32.953125 
Q 40.140625 37.75 38.71875 40.671875 
Q 36.375 45.5625 30.21875 45.5625 
Q 27.09375 45.5625 25.09375 44.921875 
Q 21.484375 43.84375 18.75 40.625 
Q 16.546875 38.03125 15.890625 35.265625 
Q 15.234375 32.515625 15.234375 27.390625 
L 15.234375 0 
L 6.453125 0 
z
M 27.09375 53.5625 
z
" id="Helvetica-110"/>
      <path d="M 5.765625 71.96875 
L 14.3125 71.96875 
L 14.3125 45.953125 
Q 17.1875 49.703125 21.1875 51.671875 
Q 25.203125 53.65625 29.890625 53.65625 
Q 39.65625 53.65625 45.734375 46.9375 
Q 51.8125 40.234375 51.8125 27.15625 
Q 51.8125 14.75 45.796875 6.546875 
Q 39.796875 -1.65625 29.15625 -1.65625 
Q 23.1875 -1.65625 19.09375 1.21875 
Q 16.65625 2.9375 13.875 6.6875 
L 13.875 0 
L 5.765625 0 
z
M 28.609375 6.109375 
Q 35.75 6.109375 39.28125 11.765625 
Q 42.828125 17.4375 42.828125 26.703125 
Q 42.828125 34.96875 39.28125 40.375 
Q 35.75 45.796875 28.859375 45.796875 
Q 22.859375 45.796875 18.328125 41.359375 
Q 13.8125 36.921875 13.8125 26.703125 
Q 13.8125 19.34375 15.671875 14.75 
Q 19.140625 6.109375 28.609375 6.109375 
z
" id="Helvetica-98"/>
      <path d="M 6.6875 52.296875 
L 15.046875 52.296875 
L 15.046875 43.265625 
Q 16.0625 45.90625 20.0625 49.6875 
Q 24.078125 53.46875 29.296875 53.46875 
Q 29.546875 53.46875 30.125 53.421875 
Q 30.71875 53.375 32.125 53.21875 
L 32.125 43.953125 
Q 31.34375 44.09375 30.6875 44.140625 
Q 30.03125 44.1875 29.25 44.1875 
Q 22.609375 44.1875 19.046875 39.90625 
Q 15.484375 35.640625 15.484375 30.078125 
L 15.484375 0 
L 6.6875 0 
z
" id="Helvetica-114"/>
     </defs>
     <g style="fill:#262626;" transform="translate(16.04215 132.071148)rotate(-90)scale(0.096 -0.096)">
      <use xlink:href="#Helvetica-67"/>
      <use x="72.216797" xlink:href="#Helvetica-117"/>
      <use x="127.832031" xlink:href="#Helvetica-109"/>
      <use x="211.132812" xlink:href="#Helvetica-117"/>
      <use x="266.748047" xlink:href="#Helvetica-108"/>
      <use x="288.964844" xlink:href="#Helvetica-97"/>
      <use x="344.580078" xlink:href="#Helvetica-116"/>
      <use x="372.363281" xlink:href="#Helvetica-105"/>
      <use x="394.580078" xlink:href="#Helvetica-118"/>
      <use x="444.580078" xlink:href="#Helvetica-101"/>
      <use x="500.195312" xlink:href="#Helvetica-32"/>
      <use x="527.978516" xlink:href="#Helvetica-110"/>
      <use x="583.59375" xlink:href="#Helvetica-117"/>
      <use x="639.208984" xlink:href="#Helvetica-109"/>
      <use x="722.509766" xlink:href="#Helvetica-98"/>
      <use x="778.125" xlink:href="#Helvetica-101"/>
      <use x="833.740234" xlink:href="#Helvetica-114"/>
     </g>
     <!-- of differentially expressed genes -->
     <defs>
      <path d="M 27.203125 5.671875 
Q 35.9375 5.671875 39.1875 12.28125 
Q 42.4375 18.890625 42.4375 27 
Q 42.4375 34.328125 40.09375 38.921875 
Q 36.375 46.140625 27.296875 46.140625 
Q 19.234375 46.140625 15.578125 39.984375 
Q 11.921875 33.84375 11.921875 25.140625 
Q 11.921875 16.796875 15.578125 11.234375 
Q 19.234375 5.671875 27.203125 5.671875 
z
M 27.546875 53.8125 
Q 37.640625 53.8125 44.625 47.0625 
Q 51.609375 40.328125 51.609375 27.25 
Q 51.609375 14.59375 45.453125 6.34375 
Q 39.3125 -1.90625 26.375 -1.90625 
Q 15.578125 -1.90625 9.21875 5.390625 
Q 2.875 12.703125 2.875 25 
Q 2.875 38.1875 9.5625 46 
Q 16.265625 53.8125 27.546875 53.8125 
z
M 27.25 53.5625 
z
" id="Helvetica-111"/>
      <path d="M 8.640625 60.25 
Q 8.84375 65.71875 10.546875 68.265625 
Q 13.625 72.75 22.40625 72.75 
Q 23.25 72.75 24.125 72.703125 
Q 25 72.65625 26.125 72.5625 
L 26.125 64.546875 
Q 24.75 64.65625 24.140625 64.671875 
Q 23.53125 64.703125 23 64.703125 
Q 19 64.703125 18.21875 62.625 
Q 17.4375 60.546875 17.4375 52.046875 
L 26.125 52.046875 
L 26.125 45.125 
L 17.328125 45.125 
L 17.328125 0 
L 8.640625 0 
L 8.640625 45.125 
L 1.375 45.125 
L 1.375 52.046875 
L 8.640625 52.046875 
L 8.640625 60.25 
z
" id="Helvetica-102"/>
      <path d="M 12.015625 25.53125 
Q 12.015625 17.140625 15.578125 11.46875 
Q 19.140625 5.8125 27 5.8125 
Q 33.109375 5.8125 37.03125 11.0625 
Q 40.96875 16.3125 40.96875 26.125 
Q 40.96875 36.03125 36.90625 40.796875 
Q 32.859375 45.5625 26.90625 45.5625 
Q 20.265625 45.5625 16.140625 40.484375 
Q 12.015625 35.40625 12.015625 25.53125 
z
M 25.25 53.21875 
Q 31.25 53.21875 35.296875 50.6875 
Q 37.640625 49.21875 40.625 45.5625 
L 40.625 71.96875 
L 49.078125 71.96875 
L 49.078125 0 
L 41.15625 0 
L 41.15625 7.28125 
Q 38.09375 2.4375 33.890625 0.28125 
Q 29.6875 -1.859375 24.265625 -1.859375 
Q 15.53125 -1.859375 9.125 5.484375 
Q 2.734375 12.84375 2.734375 25.046875 
Q 2.734375 36.46875 8.5625 44.84375 
Q 14.40625 53.21875 25.25 53.21875 
z
" id="Helvetica-100"/>
      <path d="M 39.109375 52.296875 
L 48.828125 52.296875 
Q 46.96875 47.265625 40.578125 29.34375 
Q 35.796875 15.875 32.5625 7.375 
Q 24.953125 -12.640625 21.828125 -17.03125 
Q 18.703125 -21.4375 11.078125 -21.4375 
Q 9.234375 -21.4375 8.234375 -21.28125 
Q 7.234375 -21.140625 5.765625 -20.75 
L 5.765625 -12.75 
Q 8.0625 -13.375 9.078125 -13.515625 
Q 10.109375 -13.671875 10.890625 -13.671875 
Q 13.328125 -13.671875 14.46875 -12.859375 
Q 15.625 -12.0625 16.40625 -10.890625 
Q 16.65625 -10.5 18.15625 -6.875 
Q 19.671875 -3.265625 20.359375 -1.515625 
L 1.03125 52.296875 
L 10.984375 52.296875 
L 25 9.71875 
z
M 24.953125 53.5625 
z
" id="Helvetica-121"/>
      <path d="M 1.46875 52.296875 
L 12.84375 52.296875 
L 24.859375 33.890625 
L 37.015625 52.296875 
L 47.703125 52.046875 
L 30.078125 26.8125 
L 48.484375 0 
L 37.25 0 
L 24.265625 19.625 
L 11.671875 0 
L 0.53125 0 
L 18.953125 26.8125 
z
" id="Helvetica-120"/>
      <path d="M 28.515625 5.90625 
Q 34.671875 5.90625 38.75 11.0625 
Q 42.828125 16.21875 42.828125 26.46875 
Q 42.828125 32.71875 41.015625 37.203125 
Q 37.59375 45.84375 28.515625 45.84375 
Q 19.390625 45.84375 16.015625 36.71875 
Q 14.203125 31.84375 14.203125 24.3125 
Q 14.203125 18.265625 16.015625 14.015625 
Q 19.4375 5.90625 28.515625 5.90625 
z
M 5.765625 52.046875 
L 14.3125 52.046875 
L 14.3125 45.125 
Q 16.9375 48.6875 20.0625 50.640625 
Q 24.515625 53.5625 30.515625 53.5625 
Q 39.40625 53.5625 45.609375 46.75 
Q 51.8125 39.9375 51.8125 27.296875 
Q 51.8125 10.203125 42.875 2.875 
Q 37.203125 -1.765625 29.6875 -1.765625 
Q 23.78125 -1.765625 19.78125 0.828125 
Q 17.4375 2.296875 14.546875 5.859375 
L 14.546875 -20.84375 
L 5.765625 -20.84375 
z
" id="Helvetica-112"/>
      <path d="M 11.671875 16.40625 
Q 12.0625 12.015625 13.875 9.671875 
Q 17.1875 5.421875 25.390625 5.421875 
Q 30.28125 5.421875 33.984375 7.546875 
Q 37.703125 9.671875 37.703125 14.109375 
Q 37.703125 17.484375 34.71875 19.234375 
Q 32.8125 20.3125 27.203125 21.734375 
L 20.21875 23.484375 
Q 13.53125 25.140625 10.359375 27.203125 
Q 4.6875 30.765625 4.6875 37.0625 
Q 4.6875 44.484375 10.03125 49.0625 
Q 15.375 53.65625 24.421875 53.65625 
Q 36.234375 53.65625 41.453125 46.734375 
Q 44.734375 42.328125 44.625 37.25 
L 36.328125 37.25 
Q 36.078125 40.234375 34.234375 42.671875 
Q 31.203125 46.140625 23.734375 46.140625 
Q 18.75 46.140625 16.1875 44.234375 
Q 13.625 42.328125 13.625 39.203125 
Q 13.625 35.796875 17 33.734375 
Q 18.953125 32.515625 22.75 31.59375 
L 28.5625 30.171875 
Q 38.03125 27.875 41.265625 25.734375 
Q 46.390625 22.359375 46.390625 15.140625 
Q 46.390625 8.15625 41.09375 3.078125 
Q 35.796875 -2 24.953125 -2 
Q 13.28125 -2 8.421875 3.296875 
Q 3.5625 8.59375 3.21875 16.40625 
z
M 24.65625 53.5625 
z
" id="Helvetica-115"/>
      <path d="M 24.90625 53.21875 
Q 31.0625 53.21875 35.640625 50.203125 
Q 38.140625 48.484375 40.71875 45.21875 
L 40.71875 51.8125 
L 48.828125 51.8125 
L 48.828125 4.25 
Q 48.828125 -5.71875 45.90625 -11.46875 
Q 40.4375 -22.125 25.25 -22.125 
Q 16.796875 -22.125 11.03125 -18.328125 
Q 5.28125 -14.546875 4.59375 -6.5 
L 13.53125 -6.5 
Q 14.15625 -10.015625 16.0625 -11.921875 
Q 19.046875 -14.84375 25.4375 -14.84375 
Q 35.546875 -14.84375 38.671875 -7.71875 
Q 40.53125 -3.515625 40.375 7.28125 
Q 37.75 3.265625 34.03125 1.3125 
Q 30.328125 -0.640625 24.21875 -0.640625 
Q 15.71875 -0.640625 9.34375 5.390625 
Q 2.984375 11.421875 2.984375 25.34375 
Q 2.984375 38.484375 9.40625 45.84375 
Q 15.828125 53.21875 24.90625 53.21875 
z
M 40.71875 26.375 
Q 40.71875 36.078125 36.71875 40.765625 
Q 32.71875 45.453125 26.515625 45.453125 
Q 17.234375 45.453125 13.8125 36.765625 
Q 12.015625 32.125 12.015625 24.609375 
Q 12.015625 15.765625 15.59375 11.15625 
Q 19.1875 6.546875 25.25 6.546875 
Q 34.71875 6.546875 38.578125 15.09375 
Q 40.71875 19.921875 40.71875 26.375 
z
M 25.921875 53.5625 
z
" id="Helvetica-103"/>
     </defs>
     <g style="fill:#262626;" transform="translate(26.42395 159.291648)rotate(-90)scale(0.096 -0.096)">
      <use xlink:href="#Helvetica-111"/>
      <use x="55.615234" xlink:href="#Helvetica-102"/>
      <use x="83.398438" xlink:href="#Helvetica-32"/>
      <use x="111.181641" xlink:href="#Helvetica-100"/>
      <use x="166.796875" xlink:href="#Helvetica-105"/>
      <use x="189.013672" xlink:href="#Helvetica-102"/>
      <use x="216.796875" xlink:href="#Helvetica-102"/>
      <use x="244.580078" xlink:href="#Helvetica-101"/>
      <use x="300.195312" xlink:href="#Helvetica-114"/>
      <use x="333.496094" xlink:href="#Helvetica-101"/>
      <use x="389.111328" xlink:href="#Helvetica-110"/>
      <use x="444.726562" xlink:href="#Helvetica-116"/>
      <use x="472.509766" xlink:href="#Helvetica-105"/>
      <use x="494.726562" xlink:href="#Helvetica-97"/>
      <use x="550.341797" xlink:href="#Helvetica-108"/>
      <use x="572.558594" xlink:href="#Helvetica-108"/>
      <use x="594.775391" xlink:href="#Helvetica-121"/>
      <use x="644.775391" xlink:href="#Helvetica-32"/>
      <use x="672.558594" xlink:href="#Helvetica-101"/>
      <use x="728.173828" xlink:href="#Helvetica-120"/>
      <use x="778.173828" xlink:href="#Helvetica-112"/>
      <use x="833.789062" xlink:href="#Helvetica-114"/>
      <use x="867.089844" xlink:href="#Helvetica-101"/>
      <use x="922.705078" xlink:href="#Helvetica-115"/>
      <use x="972.705078" xlink:href="#Helvetica-115"/>
      <use x="1022.705078" xlink:href="#Helvetica-101"/>
      <use x="1078.320312" xlink:href="#Helvetica-100"/>
      <use x="1133.935547" xlink:href="#Helvetica-32"/>
      <use x="1161.71875" xlink:href="#Helvetica-103"/>
      <use x="1217.333984" xlink:href="#Helvetica-101"/>
      <use x="1272.949219" xlink:href="#Helvetica-110"/>
      <use x="1328.564453" xlink:href="#Helvetica-101"/>
      <use x="1384.179688" xlink:href="#Helvetica-115"/>
     </g>
     <!-- thousands -->
     <defs>
      <path d="M 6.453125 71.96875 
L 15.234375 71.96875 
L 15.234375 45.21875 
Q 18.359375 49.171875 20.84375 50.78125 
Q 25.09375 53.5625 31.453125 53.5625 
Q 42.828125 53.5625 46.875 45.609375 
Q 49.078125 41.265625 49.078125 33.546875 
L 49.078125 0 
L 40.046875 0 
L 40.046875 32.953125 
Q 40.046875 38.71875 38.578125 41.40625 
Q 36.1875 45.703125 29.59375 45.703125 
Q 24.125 45.703125 19.671875 41.9375 
Q 15.234375 38.1875 15.234375 27.734375 
L 15.234375 0 
L 6.453125 0 
z
" id="Helvetica-104"/>
     </defs>
     <g style="fill:#262626;" transform="translate(36.81175 112.604898)rotate(-90)scale(0.096 -0.096)">
      <use xlink:href="#Helvetica-116"/>
      <use x="27.783203" xlink:href="#Helvetica-104"/>
      <use x="83.398438" xlink:href="#Helvetica-111"/>
      <use x="139.013672" xlink:href="#Helvetica-117"/>
      <use x="194.628906" xlink:href="#Helvetica-115"/>
      <use x="244.628906" xlink:href="#Helvetica-97"/>
      <use x="300.244141" xlink:href="#Helvetica-110"/>
      <use x="355.859375" xlink:href="#Helvetica-100"/>
      <use x="411.474609" xlink:href="#Helvetica-115"/>
     </g>
    </g>
   </g>
   <g id="line2d_14">
    <path clip-path="url(#p825ba653a8)" d="M 75.015496 154.704816 
L 75.811023 152.753548 
L 76.60655 151.498273 
L 79.788659 147.881592 
L 82.17524 145.656898 
L 82.970768 144.712335 
L 86.152876 141.816504 
L 87.743931 140.200804 
L 89.334985 139.069814 
L 90.92604 137.789683 
L 94.108148 135.788701 
L 94.903676 134.906281 
L 96.49473 133.626149 
L 99.676839 131.351741 
L 101.267893 129.959754 
L 103.654475 128.692051 
L 106.836584 126.355501 
L 107.632111 125.970219 
L 108.427638 125.348796 
L 109.223165 124.988371 
L 112.405274 122.552393 
L 117.178437 119.731132 
L 118.769492 118.500715 
L 119.565019 118.239717 
L 120.360546 117.65558 
L 121.9516 116.822873 
L 123.542655 115.517885 
L 124.338182 114.647893 
L 127.520291 112.957622 
L 128.315818 112.497769 
L 129.111345 112.274057 
L 131.497927 110.683214 
L 133.884508 109.26637 
L 134.680036 108.607662 
L 135.475563 108.408806 
L 136.27109 107.89924 
L 137.066617 107.600957 
L 137.862144 106.979534 
L 141.83978 105.053123 
L 142.635307 104.568413 
L 144.226362 102.97757 
L 145.021889 102.430718 
L 145.817416 102.045435 
L 146.612943 101.113301 
L 147.408471 100.653448 
L 148.203998 100.330308 
L 148.999525 99.820741 
L 149.795052 99.149605 
L 151.386107 98.205042 
L 152.181634 97.57119 
L 153.772688 96.68877 
L 155.363743 95.731778 
L 156.15927 95.271925 
L 158.545851 93.072088 
L 160.136906 91.791957 
L 160.932433 91.369389 
L 161.72796 90.561539 
L 163.319015 89.380836 
L 165.705596 88.100705 
L 167.296651 86.857859 
L 168.887705 85.577727 
L 169.683232 85.180017 
L 171.274287 84.049027 
L 175.251923 81.004055 
L 177.638504 78.530791 
L 179.229559 77.200946 
L 181.61614 75.523104 
L 183.207195 74.006832 
L 184.002722 73.671264 
L 186.389303 72.130135 
L 187.184831 71.471427 
L 187.980358 70.564149 
L 189.571412 69.259161 
L 190.366939 68.438883 
L 191.162467 67.842317 
L 191.957994 67.394892 
L 192.753521 66.798326 
L 193.549048 66.002905 
L 194.344575 65.493338 
L 195.140103 64.760059 
L 195.93563 63.815496 
L 196.731157 63.368071 
L 197.526684 62.771505 
L 198.322211 61.963656 
L 199.913266 60.733238 
L 200.708793 59.664391 
L 201.50432 58.819255 
L 202.299847 58.545829 
L 203.095375 57.998977 
L 204.686429 56.644275 
L 205.481956 56.072566 
L 207.073011 55.326859 
L 209.459592 53.002737 
L 211.846174 51.52375 
L 212.641701 50.628901 
L 213.437228 49.90805 
L 214.232755 48.851631 
L 215.028283 48.279922 
L 217.414864 45.657518 
L 219.005919 44.029389 
L 219.801446 42.724401 
L 220.596973 42.028408 
L 221.3925 40.710991 
L 222.188027 39.778856 
L 222.983555 38.660295 
L 225.370136 36.187032 
L 226.165663 35.602894 
L 226.961191 34.67076 
L 227.756718 34.099051 
L 228.552245 33.079917 
L 229.347772 31.837071 
L 230.938827 29.923089 
L 232.529881 27.499539 
L 233.325408 26.679261 
L 233.325408 26.679261 
" style="fill:none;stroke:#bd9020;stroke-linecap:round;stroke-width:0.8;"/>
    <defs>
     <path d="M 0 1 
C 0.265203 1 0.51958 0.894634 0.707107 0.707107 
C 0.894634 0.51958 1 0.265203 1 0 
C 1 -0.265203 0.894634 -0.51958 0.707107 -0.707107 
C 0.51958 -0.894634 0.265203 -1 0 -1 
C -0.265203 -1 -0.51958 -0.894634 -0.707107 -0.707107 
C -0.894634 -0.51958 -1 -0.265203 -1 0 
C -1 0.265203 -0.894634 0.51958 -0.707107 0.707107 
C -0.51958 0.894634 -0.265203 1 0 1 
z
" id="mf47f7467e8" style="stroke:#bd9020;"/>
    </defs>
    <g clip-path="url(#p825ba653a8)">
     <use style="fill:#bd9020;stroke:#bd9020;" x="75.015496" xlink:href="#mf47f7467e8" y="154.704816"/>
     <use style="fill:#bd9020;stroke:#bd9020;" x="82.970768" xlink:href="#mf47f7467e8" y="144.712335"/>
     <use style="fill:#bd9020;stroke:#bd9020;" x="90.92604" xlink:href="#mf47f7467e8" y="137.789683"/>
     <use style="fill:#bd9020;stroke:#bd9020;" x="98.881312" xlink:href="#mf47f7467e8" y="131.948308"/>
     <use style="fill:#bd9020;stroke:#bd9020;" x="106.836584" xlink:href="#mf47f7467e8" y="126.355501"/>
     <use style="fill:#bd9020;stroke:#bd9020;" x="114.791856" xlink:href="#mf47f7467e8" y="121.098263"/>
     <use style="fill:#bd9020;stroke:#bd9020;" x="122.747128" xlink:href="#mf47f7467e8" y="116.20145"/>
     <use style="fill:#bd9020;stroke:#bd9020;" x="130.7024" xlink:href="#mf47f7467e8" y="111.267352"/>
     <use style="fill:#bd9020;stroke:#bd9020;" x="138.657672" xlink:href="#mf47f7467e8" y="106.60668"/>
     <use style="fill:#bd9020;stroke:#bd9020;" x="146.612943" xlink:href="#mf47f7467e8" y="101.113301"/>
     <use style="fill:#bd9020;stroke:#bd9020;" x="154.568215" xlink:href="#mf47f7467e8" y="96.154346"/>
     <use style="fill:#bd9020;stroke:#bd9020;" x="162.523487" xlink:href="#mf47f7467e8" y="89.927688"/>
     <use style="fill:#bd9020;stroke:#bd9020;" x="170.478759" xlink:href="#mf47f7467e8" y="84.546165"/>
     <use style="fill:#bd9020;stroke:#bd9020;" x="178.434031" xlink:href="#mf47f7467e8" y="77.834798"/>
     <use style="fill:#bd9020;stroke:#bd9020;" x="186.389303" xlink:href="#mf47f7467e8" y="72.130135"/>
     <use style="fill:#bd9020;stroke:#bd9020;" x="194.344575" xlink:href="#mf47f7467e8" y="65.493338"/>
     <use style="fill:#bd9020;stroke:#bd9020;" x="202.299847" xlink:href="#mf47f7467e8" y="58.545829"/>
     <use style="fill:#bd9020;stroke:#bd9020;" x="210.255119" xlink:href="#mf47f7467e8" y="52.518027"/>
     <use style="fill:#bd9020;stroke:#bd9020;" x="218.210391" xlink:href="#mf47f7467e8" y="44.799954"/>
     <use style="fill:#bd9020;stroke:#bd9020;" x="226.165663" xlink:href="#mf47f7467e8" y="35.602894"/>
    </g>
   </g>
   <g id="line2d_15">
    <path clip-path="url(#p825ba653a8)" d="M 75.015496 158.184784 
L 75.811023 157.140794 
L 76.60655 156.395086 
L 78.993132 154.841529 
L 79.788659 154.530817 
L 80.584186 153.896966 
L 82.17524 153.225829 
L 83.766295 152.467693 
L 85.357349 151.982983 
L 86.152876 151.547987 
L 86.948404 151.274561 
L 88.539458 150.466711 
L 89.334985 150.267856 
L 90.130512 149.795574 
L 94.903676 147.81945 
L 96.49473 147.309883 
L 98.085784 146.626317 
L 99.676839 145.855753 
L 100.472366 145.271615 
L 102.06342 144.724763 
L 104.450002 143.718058 
L 105.245529 143.345204 
L 109.223165 141.990502 
L 112.405274 140.946512 
L 114.791856 140.213233 
L 119.565019 138.286822 
L 122.747128 137.304973 
L 123.542655 136.869977 
L 125.929236 136.12427 
L 126.724764 135.614703 
L 128.315818 134.806853 
L 131.497927 133.004727 
L 132.293454 132.743729 
L 133.884508 131.811594 
L 134.680036 131.190172 
L 137.066617 130.195895 
L 137.862144 129.885183 
L 139.453199 129.002763 
L 140.248726 128.667194 
L 141.044253 127.871773 
L 141.83978 127.523776 
L 142.635307 127.001781 
L 143.430835 126.666212 
L 146.612943 124.826801 
L 147.408471 124.130807 
L 148.203998 123.807667 
L 149.795052 122.639392 
L 151.386107 121.172834 
L 154.568215 119.233994 
L 156.15927 118.202432 
L 156.954797 117.730151 
L 157.750324 116.972015 
L 159.341379 116.176593 
L 160.136906 115.890739 
L 160.932433 115.418457 
L 162.523487 113.877328 
L 163.319015 113.305619 
L 164.114542 112.945194 
L 164.910069 112.448056 
L 165.705596 112.261629 
L 166.501123 111.155496 
L 167.296651 110.708071 
L 168.092178 110.422217 
L 169.683232 109.042658 
L 170.478759 108.147809 
L 171.274287 107.849526 
L 172.069814 106.979534 
L 173.660868 105.537832 
L 174.456395 105.102836 
L 175.251923 104.220416 
L 176.04745 103.611421 
L 176.842977 103.313138 
L 177.638504 102.666858 
L 178.434031 102.356147 
L 180.820613 100.119024 
L 181.61614 99.621886 
L 182.411667 98.789179 
L 183.207195 97.695475 
L 184.002722 97.24805 
L 184.798249 96.589342 
L 185.593776 95.756635 
L 186.389303 95.570208 
L 187.184831 94.575932 
L 187.980358 93.94208 
L 190.366939 91.493674 
L 191.162467 91.033821 
L 192.753521 89.691547 
L 193.549048 89.020411 
L 194.344575 87.727851 
L 195.140103 86.969715 
L 195.93563 86.012723 
L 196.731157 85.366444 
L 199.913266 80.954341 
L 203.095375 77.822369 
L 203.890902 76.206669 
L 204.686429 75.137822 
L 205.481956 74.702826 
L 206.277483 73.372981 
L 207.073011 72.676987 
L 207.868538 71.719996 
L 208.664065 70.551721 
L 209.459592 68.936021 
L 210.255119 68.165457 
L 211.050647 67.792603 
L 211.846174 67.233322 
L 212.641701 66.500043 
L 213.437228 64.946486 
L 215.028283 63.069788 
L 215.82381 62.050655 
L 217.414864 58.309689 
L 218.210391 57.0917 
L 219.005919 56.271421 
L 222.188027 50.914756 
L 222.983555 49.162343 
L 224.574609 46.912792 
L 225.370136 45.259807 
L 226.961191 42.264548 
L 227.756718 40.027426 
L 228.552245 39.194719 
L 230.938827 33.763482 
L 231.734354 32.868633 
L 232.529881 31.339933 
L 233.325408 29.475664 
L 233.325408 29.475664 
" style="fill:none;stroke:#bd9020;stroke-linecap:round;stroke-width:0.8;"/>
    <defs>
     <path d="M 0 -2 
L -2 2 
L 2 2 
z
" id="m5be98ed667" style="stroke:#bd9020;stroke-linejoin:miter;"/>
    </defs>
    <g clip-path="url(#p825ba653a8)">
     <use style="fill:#bd9020;stroke:#bd9020;stroke-linejoin:miter;" x="75.015496" xlink:href="#m5be98ed667" y="158.184784"/>
     <use style="fill:#bd9020;stroke:#bd9020;stroke-linejoin:miter;" x="82.970768" xlink:href="#m5be98ed667" y="152.803262"/>
     <use style="fill:#bd9020;stroke:#bd9020;stroke-linejoin:miter;" x="90.92604" xlink:href="#m5be98ed667" y="149.460006"/>
     <use style="fill:#bd9020;stroke:#bd9020;stroke-linejoin:miter;" x="98.881312" xlink:href="#m5be98ed667" y="146.265892"/>
     <use style="fill:#bd9020;stroke:#bd9020;stroke-linejoin:miter;" x="106.836584" xlink:href="#m5be98ed667" y="142.947494"/>
     <use style="fill:#bd9020;stroke:#bd9020;stroke-linejoin:miter;" x="114.791856" xlink:href="#m5be98ed667" y="140.213233"/>
     <use style="fill:#bd9020;stroke:#bd9020;stroke-linejoin:miter;" x="122.747128" xlink:href="#m5be98ed667" y="137.304973"/>
     <use style="fill:#bd9020;stroke:#bd9020;stroke-linejoin:miter;" x="130.7024" xlink:href="#m5be98ed667" y="133.53915"/>
     <use style="fill:#bd9020;stroke:#bd9020;stroke-linejoin:miter;" x="138.657672" xlink:href="#m5be98ed667" y="129.400473"/>
     <use style="fill:#bd9020;stroke:#bd9020;stroke-linejoin:miter;" x="146.612943" xlink:href="#m5be98ed667" y="124.826801"/>
     <use style="fill:#bd9020;stroke:#bd9020;stroke-linejoin:miter;" x="154.568215" xlink:href="#m5be98ed667" y="119.233994"/>
     <use style="fill:#bd9020;stroke:#bd9020;stroke-linejoin:miter;" x="162.523487" xlink:href="#m5be98ed667" y="113.877328"/>
     <use style="fill:#bd9020;stroke:#bd9020;stroke-linejoin:miter;" x="170.478759" xlink:href="#m5be98ed667" y="108.147809"/>
     <use style="fill:#bd9020;stroke:#bd9020;stroke-linejoin:miter;" x="178.434031" xlink:href="#m5be98ed667" y="102.356147"/>
     <use style="fill:#bd9020;stroke:#bd9020;stroke-linejoin:miter;" x="186.389303" xlink:href="#m5be98ed667" y="95.570208"/>
     <use style="fill:#bd9020;stroke:#bd9020;stroke-linejoin:miter;" x="194.344575" xlink:href="#m5be98ed667" y="87.727851"/>
     <use style="fill:#bd9020;stroke:#bd9020;stroke-linejoin:miter;" x="202.299847" xlink:href="#m5be98ed667" y="78.605362"/>
     <use style="fill:#bd9020;stroke:#bd9020;stroke-linejoin:miter;" x="210.255119" xlink:href="#m5be98ed667" y="68.165457"/>
     <use style="fill:#bd9020;stroke:#bd9020;stroke-linejoin:miter;" x="218.210391" xlink:href="#m5be98ed667" y="57.0917"/>
     <use style="fill:#bd9020;stroke:#bd9020;stroke-linejoin:miter;" x="226.165663" xlink:href="#m5be98ed667" y="43.867819"/>
    </g>
   </g>
   <g id="line2d_16">
    <path clip-path="url(#p825ba653a8)" d="M 75.015496 148.962868 
L 75.811023 146.017323 
L 77.402077 141.543078 
L 78.993132 138.237108 
L 81.379713 134.50857 
L 82.17524 133.091726 
L 85.357349 129.238903 
L 88.539458 125.684364 
L 98.085784 117.17087 
L 98.881312 116.599161 
L 100.472366 114.722464 
L 101.267893 113.765472 
L 102.858948 112.522626 
L 106.836584 109.353369 
L 109.223165 107.377244 
L 110.018692 107.054104 
L 110.81422 106.519681 
L 111.609747 106.146827 
L 112.405274 105.438405 
L 114.791856 104.294987 
L 115.587383 103.574136 
L 117.178437 102.530145 
L 117.973964 101.970865 
L 118.769492 101.212729 
L 121.9516 98.851322 
L 122.747128 98.391469 
L 123.542655 97.73276 
L 125.133709 96.875197 
L 126.724764 95.55778 
L 129.906872 93.693511 
L 132.293454 92.289095 
L 133.088981 91.655244 
L 133.884508 91.245105 
L 134.680036 90.511826 
L 137.066617 88.958268 
L 141.83978 85.900867 
L 142.635307 85.552871 
L 146.612943 82.955323 
L 148.203998 81.936189 
L 149.795052 80.730628 
L 152.977161 79.413212 
L 155.363743 78.269794 
L 156.15927 77.623514 
L 157.750324 76.890235 
L 158.545851 76.678951 
L 159.341379 76.28124 
L 163.319015 73.596693 
L 164.910069 72.888271 
L 166.501123 71.893994 
L 167.296651 71.135858 
L 168.092178 70.787861 
L 168.887705 70.216152 
L 169.683232 69.458016 
L 173.660868 67.121466 
L 174.456395 66.350902 
L 175.251923 65.754336 
L 176.842977 65.021056 
L 177.638504 64.300206 
L 178.434031 63.815496 
L 180.025086 62.448365 
L 180.820613 62.063083 
L 181.61614 61.466517 
L 183.207195 60.484669 
L 185.593776 58.931112 
L 186.389303 58.446402 
L 189.571412 55.600285 
L 190.366939 55.115575 
L 192.753521 53.226449 
L 194.344575 52.244601 
L 197.526684 50.131763 
L 199.117739 48.54092 
L 199.913266 47.919497 
L 203.890902 46.030371 
L 204.686429 45.185236 
L 206.277483 44.290387 
L 208.664065 42.600117 
L 211.050647 40.648849 
L 211.846174 39.890713 
L 213.437228 38.212871 
L 214.232755 37.690875 
L 215.82381 36.298888 
L 216.619337 35.826607 
L 217.414864 35.167898 
L 218.210391 34.720474 
L 219.801446 33.626769 
L 220.596973 32.769206 
L 222.188027 31.600931 
L 222.983555 30.656368 
L 223.779082 30.084659 
L 224.574609 29.239523 
L 225.370136 28.77967 
L 226.165663 27.623824 
L 226.961191 26.915402 
L 227.756718 26.008124 
L 229.347772 24.852277 
L 230.143299 24.156284 
L 230.938827 23.249006 
L 231.734354 22.826439 
L 233.325408 21.086454 
L 233.325408 21.086454 
" style="fill:none;stroke:#bd9020;stroke-linecap:round;stroke-width:0.8;"/>
    <defs>
     <path d="M -2 2 
L 2 -2 
M -2 -2 
L 2 2 
" id="m36d872376a" style="stroke:#bd9020;"/>
    </defs>
    <g clip-path="url(#p825ba653a8)">
     <use style="fill:#bd9020;stroke:#bd9020;" x="75.015496" xlink:href="#m36d872376a" y="148.962868"/>
     <use style="fill:#bd9020;stroke:#bd9020;" x="82.970768" xlink:href="#m36d872376a" y="132.085021"/>
     <use style="fill:#bd9020;stroke:#bd9020;" x="90.92604" xlink:href="#m36d872376a" y="123.509384"/>
     <use style="fill:#bd9020;stroke:#bd9020;" x="98.881312" xlink:href="#m36d872376a" y="116.599161"/>
     <use style="fill:#bd9020;stroke:#bd9020;" x="106.836584" xlink:href="#m36d872376a" y="109.353369"/>
     <use style="fill:#bd9020;stroke:#bd9020;" x="114.791856" xlink:href="#m36d872376a" y="104.294987"/>
     <use style="fill:#bd9020;stroke:#bd9020;" x="122.747128" xlink:href="#m36d872376a" y="98.391469"/>
     <use style="fill:#bd9020;stroke:#bd9020;" x="130.7024" xlink:href="#m36d872376a" y="93.233658"/>
     <use style="fill:#bd9020;stroke:#bd9020;" x="138.657672" xlink:href="#m36d872376a" y="87.97642"/>
     <use style="fill:#bd9020;stroke:#bd9020;" x="146.612943" xlink:href="#m36d872376a" y="82.955323"/>
     <use style="fill:#bd9020;stroke:#bd9020;" x="154.568215" xlink:href="#m36d872376a" y="78.630219"/>
     <use style="fill:#bd9020;stroke:#bd9020;" x="162.523487" xlink:href="#m36d872376a" y="74.10626"/>
     <use style="fill:#bd9020;stroke:#bd9020;" x="170.478759" xlink:href="#m36d872376a" y="68.973306"/>
     <use style="fill:#bd9020;stroke:#bd9020;" x="178.434031" xlink:href="#m36d872376a" y="63.815496"/>
     <use style="fill:#bd9020;stroke:#bd9020;" x="186.389303" xlink:href="#m36d872376a" y="58.446402"/>
     <use style="fill:#bd9020;stroke:#bd9020;" x="194.344575" xlink:href="#m36d872376a" y="52.244601"/>
     <use style="fill:#bd9020;stroke:#bd9020;" x="202.299847" xlink:href="#m36d872376a" y="46.912792"/>
     <use style="fill:#bd9020;stroke:#bd9020;" x="210.255119" xlink:href="#m36d872376a" y="41.257843"/>
     <use style="fill:#bd9020;stroke:#bd9020;" x="218.210391" xlink:href="#m36d872376a" y="34.720474"/>
     <use style="fill:#bd9020;stroke:#bd9020;" x="226.165663" xlink:href="#m36d872376a" y="27.623824"/>
    </g>
   </g>
   <g id="patch_3">
    <path d="M 62.1 169.852 
L 62.1 11.059795 
" style="fill:none;stroke:#262626;stroke-linecap:square;stroke-linejoin:miter;stroke-width:1.25;"/>
   </g>
   <g id="patch_4">
    <path d="M 67.1 174.852 
L 241.240904 174.852 
" style="fill:none;stroke:#262626;stroke-linecap:square;stroke-linejoin:miter;stroke-width:1.25;"/>
   </g>
   <g id="legend_1">
    <g id="line2d_17">
     <path d="M 73.4 19.931201 
L 87.4 19.931201 
" style="fill:none;stroke:#bd9020;stroke-linecap:round;stroke-width:0.8;"/>
    </g>
    <g id="line2d_18">
     <g>
      <use style="fill:#bd9020;stroke:#bd9020;" x="80.4" xlink:href="#mf47f7467e8" y="19.931201"/>
     </g>
    </g>
    <g id="text_15">
     <!-- Illumina truseq 100 ng -->
     <defs>
      <path d="M 9.8125 71.734375 
L 19.625 71.734375 
L 19.625 0 
L 9.8125 0 
z
" id="Helvetica-73"/>
      <path d="M 12.109375 25.4375 
Q 12.109375 18.65625 14.015625 14.0625 
Q 17.390625 5.90625 26.078125 5.90625 
Q 35.25 5.90625 38.71875 14.5 
Q 40.625 19.234375 40.625 26.609375 
Q 40.625 33.40625 38.53125 37.9375 
Q 34.96875 45.703125 25.984375 45.703125 
Q 20.265625 45.703125 16.1875 40.75 
Q 12.109375 35.796875 12.109375 25.4375 
z
M 25.09375 53.46875 
Q 31.59375 53.46875 36.03125 50.203125 
Q 38.484375 48.4375 40.71875 45.015625 
L 40.71875 52.296875 
L 49.078125 52.296875 
L 49.078125 -20.84375 
L 40.234375 -20.84375 
L 40.234375 6 
Q 38.03125 2.484375 34.15625 0.40625 
Q 30.28125 -1.65625 24.46875 -1.65625 
Q 16.109375 -1.65625 9.515625 4.875 
Q 2.9375 11.421875 2.9375 24.8125 
Q 2.9375 37.359375 9.109375 45.40625 
Q 15.28125 53.46875 25.09375 53.46875 
z
" id="Helvetica-113"/>
     </defs>
     <g style="fill:#262626;" transform="translate(93 22.381201)scale(0.07 -0.07)">
      <use xlink:href="#Helvetica-73"/>
      <use x="27.783203" xlink:href="#Helvetica-108"/>
      <use x="50" xlink:href="#Helvetica-108"/>
      <use x="72.216797" xlink:href="#Helvetica-117"/>
      <use x="127.832031" xlink:href="#Helvetica-109"/>
      <use x="211.132812" xlink:href="#Helvetica-105"/>
      <use x="233.349609" xlink:href="#Helvetica-110"/>
      <use x="288.964844" xlink:href="#Helvetica-97"/>
      <use x="344.580078" xlink:href="#Helvetica-32"/>
      <use x="372.363281" xlink:href="#Helvetica-116"/>
      <use x="400.146484" xlink:href="#Helvetica-114"/>
      <use x="433.447266" xlink:href="#Helvetica-117"/>
      <use x="489.0625" xlink:href="#Helvetica-115"/>
      <use x="539.0625" xlink:href="#Helvetica-101"/>
      <use x="594.677734" xlink:href="#Helvetica-113"/>
      <use x="650.292969" xlink:href="#Helvetica-32"/>
      <use x="678.076172" xlink:href="#Helvetica-49"/>
      <use x="733.691406" xlink:href="#Helvetica-48"/>
      <use x="789.306641" xlink:href="#Helvetica-48"/>
      <use x="844.921875" xlink:href="#Helvetica-32"/>
      <use x="872.705078" xlink:href="#Helvetica-110"/>
      <use x="928.320312" xlink:href="#Helvetica-103"/>
     </g>
    </g>
    <g id="line2d_19">
     <path d="M 73.4 30.001358 
L 87.4 30.001358 
" style="fill:none;stroke:#bd9020;stroke-linecap:round;stroke-width:0.8;"/>
    </g>
    <g id="line2d_20">
     <g>
      <use style="fill:#bd9020;stroke:#bd9020;stroke-linejoin:miter;" x="80.4" xlink:href="#m5be98ed667" y="30.001358"/>
     </g>
    </g>
    <g id="text_16">
     <!-- Illumina truseq 200 ng -->
     <g style="fill:#262626;" transform="translate(93 32.451358)scale(0.07 -0.07)">
      <use xlink:href="#Helvetica-73"/>
      <use x="27.783203" xlink:href="#Helvetica-108"/>
      <use x="50" xlink:href="#Helvetica-108"/>
      <use x="72.216797" xlink:href="#Helvetica-117"/>
      <use x="127.832031" xlink:href="#Helvetica-109"/>
      <use x="211.132812" xlink:href="#Helvetica-105"/>
      <use x="233.349609" xlink:href="#Helvetica-110"/>
      <use x="288.964844" xlink:href="#Helvetica-97"/>
      <use x="344.580078" xlink:href="#Helvetica-32"/>
      <use x="372.363281" xlink:href="#Helvetica-116"/>
      <use x="400.146484" xlink:href="#Helvetica-114"/>
      <use x="433.447266" xlink:href="#Helvetica-117"/>
      <use x="489.0625" xlink:href="#Helvetica-115"/>
      <use x="539.0625" xlink:href="#Helvetica-101"/>
      <use x="594.677734" xlink:href="#Helvetica-113"/>
      <use x="650.292969" xlink:href="#Helvetica-32"/>
      <use x="678.076172" xlink:href="#Helvetica-50"/>
      <use x="733.691406" xlink:href="#Helvetica-48"/>
      <use x="789.306641" xlink:href="#Helvetica-48"/>
      <use x="844.921875" xlink:href="#Helvetica-32"/>
      <use x="872.705078" xlink:href="#Helvetica-110"/>
      <use x="928.320312" xlink:href="#Helvetica-103"/>
     </g>
    </g>
    <g id="line2d_21">
     <path d="M 73.4 40.071514 
L 87.4 40.071514 
" style="fill:none;stroke:#bd9020;stroke-linecap:round;stroke-width:0.8;"/>
    </g>
    <g id="line2d_22">
     <g>
      <use style="fill:#bd9020;stroke:#bd9020;" x="80.4" xlink:href="#m36d872376a" y="40.071514"/>
     </g>
    </g>
    <g id="text_17">
     <!-- Illumina truseq 50 ng -->
     <defs>
      <path d="M 12.359375 17.828125 
Q 13.234375 10.296875 19.34375 7.421875 
Q 22.46875 5.953125 26.5625 5.953125 
Q 34.375 5.953125 38.125 10.9375 
Q 41.890625 15.921875 41.890625 21.96875 
Q 41.890625 29.296875 37.421875 33.296875 
Q 32.953125 37.3125 26.703125 37.3125 
Q 22.171875 37.3125 18.921875 35.546875 
Q 15.671875 33.796875 13.375 30.671875 
L 5.765625 31.109375 
L 11.078125 68.75 
L 47.40625 68.75 
L 47.40625 60.25 
L 17.671875 60.25 
L 14.703125 40.828125 
Q 17.140625 42.671875 19.34375 43.609375 
Q 23.25 45.21875 28.375 45.21875 
Q 37.984375 45.21875 44.671875 39.015625 
Q 51.375 32.8125 51.375 23.296875 
Q 51.375 13.375 45.234375 5.796875 
Q 39.109375 -1.765625 25.6875 -1.765625 
Q 17.140625 -1.765625 10.5625 3.046875 
Q 4 7.859375 3.21875 17.828125 
z
" id="Helvetica-53"/>
     </defs>
     <g style="fill:#262626;" transform="translate(93 42.521514)scale(0.07 -0.07)">
      <use xlink:href="#Helvetica-73"/>
      <use x="27.783203" xlink:href="#Helvetica-108"/>
      <use x="50" xlink:href="#Helvetica-108"/>
      <use x="72.216797" xlink:href="#Helvetica-117"/>
      <use x="127.832031" xlink:href="#Helvetica-109"/>
      <use x="211.132812" xlink:href="#Helvetica-105"/>
      <use x="233.349609" xlink:href="#Helvetica-110"/>
      <use x="288.964844" xlink:href="#Helvetica-97"/>
      <use x="344.580078" xlink:href="#Helvetica-32"/>
      <use x="372.363281" xlink:href="#Helvetica-116"/>
      <use x="400.146484" xlink:href="#Helvetica-114"/>
      <use x="433.447266" xlink:href="#Helvetica-117"/>
      <use x="489.0625" xlink:href="#Helvetica-115"/>
      <use x="539.0625" xlink:href="#Helvetica-101"/>
      <use x="594.677734" xlink:href="#Helvetica-113"/>
      <use x="650.292969" xlink:href="#Helvetica-32"/>
      <use x="678.076172" xlink:href="#Helvetica-53"/>
      <use x="733.691406" xlink:href="#Helvetica-48"/>
      <use x="789.306641" xlink:href="#Helvetica-32"/>
      <use x="817.089844" xlink:href="#Helvetica-110"/>
      <use x="872.705078" xlink:href="#Helvetica-103"/>
     </g>
    </g>
   </g>
  </g>
  <g id="axes_2">
   <g id="patch_5">
    <path d="M 264.4 169.852 
L 438.540904 169.852 
L 438.540904 11.059795 
L 264.4 11.059795 
z
" style="fill:#ffffff;"/>
   </g>
   <g id="matplotlib.axis_3">
    <g id="xtick_7">
     <g id="line2d_23">
      <g>
       <use style="fill:#262626;stroke:#262626;stroke-width:1.25;" x="271.519968" xlink:href="#m49e367ba96" y="174.852"/>
      </g>
     </g>
     <g id="text_18">
      <!-- 0.0 -->
      <g style="fill:#262626;" transform="translate(265.403968 190.664625)scale(0.088 -0.088)">
       <use xlink:href="#Helvetica-48"/>
       <use x="55.615234" xlink:href="#Helvetica-46"/>
       <use x="83.398438" xlink:href="#Helvetica-48"/>
      </g>
     </g>
    </g>
    <g id="xtick_8">
     <g id="line2d_24">
      <g>
       <use style="fill:#262626;stroke:#262626;stroke-width:1.25;" x="303.341056" xlink:href="#m49e367ba96" y="174.852"/>
      </g>
     </g>
     <g id="text_19">
      <!-- 0.2 -->
      <g style="fill:#262626;" transform="translate(297.225056 190.664625)scale(0.088 -0.088)">
       <use xlink:href="#Helvetica-48"/>
       <use x="55.615234" xlink:href="#Helvetica-46"/>
       <use x="83.398438" xlink:href="#Helvetica-50"/>
      </g>
     </g>
    </g>
    <g id="xtick_9">
     <g id="line2d_25">
      <g>
       <use style="fill:#262626;stroke:#262626;stroke-width:1.25;" x="335.162144" xlink:href="#m49e367ba96" y="174.852"/>
      </g>
     </g>
     <g id="text_20">
      <!-- 0.4 -->
      <g style="fill:#262626;" transform="translate(329.046144 190.664625)scale(0.088 -0.088)">
       <use xlink:href="#Helvetica-48"/>
       <use x="55.615234" xlink:href="#Helvetica-46"/>
       <use x="83.398438" xlink:href="#Helvetica-52"/>
      </g>
     </g>
    </g>
    <g id="xtick_10">
     <g id="line2d_26">
      <g>
       <use style="fill:#262626;stroke:#262626;stroke-width:1.25;" x="366.983232" xlink:href="#m49e367ba96" y="174.852"/>
      </g>
     </g>
     <g id="text_21">
      <!-- 0.6 -->
      <g style="fill:#262626;" transform="translate(360.867232 190.664625)scale(0.088 -0.088)">
       <use xlink:href="#Helvetica-48"/>
       <use x="55.615234" xlink:href="#Helvetica-46"/>
       <use x="83.398438" xlink:href="#Helvetica-54"/>
      </g>
     </g>
    </g>
    <g id="xtick_11">
     <g id="line2d_27">
      <g>
       <use style="fill:#262626;stroke:#262626;stroke-width:1.25;" x="398.80432" xlink:href="#m49e367ba96" y="174.852"/>
      </g>
     </g>
     <g id="text_22">
      <!-- 0.8 -->
      <g style="fill:#262626;" transform="translate(392.68832 190.664625)scale(0.088 -0.088)">
       <use xlink:href="#Helvetica-48"/>
       <use x="55.615234" xlink:href="#Helvetica-46"/>
       <use x="83.398438" xlink:href="#Helvetica-56"/>
      </g>
     </g>
    </g>
    <g id="xtick_12">
     <g id="line2d_28">
      <g>
       <use style="fill:#262626;stroke:#262626;stroke-width:1.25;" x="430.625408" xlink:href="#m49e367ba96" y="174.852"/>
      </g>
     </g>
     <g id="text_23">
      <!-- 1.0 -->
      <g style="fill:#262626;" transform="translate(424.509408 190.664625)scale(0.088 -0.088)">
       <use xlink:href="#Helvetica-49"/>
       <use x="55.615234" xlink:href="#Helvetica-46"/>
       <use x="83.398438" xlink:href="#Helvetica-48"/>
      </g>
     </g>
    </g>
    <g id="text_24">
     <!-- p adjusted -->
     <defs>
      <path d="M 15.234375 61.578125 
L 6.453125 61.578125 
L 6.453125 71.734375 
L 15.234375 71.734375 
z
M -1.859375 -13.234375 
Q 4.046875 -13.03125 5.25 -12.171875 
Q 6.453125 -11.328125 6.453125 -6.84375 
L 6.453125 52.046875 
L 15.234375 52.046875 
L 15.234375 -7.765625 
Q 15.234375 -13.484375 13.375 -16.3125 
Q 10.296875 -21.09375 1.703125 -21.09375 
Q 1.078125 -21.09375 0.359375 -21.046875 
Q -0.34375 -21 -1.859375 -20.84375 
z
" id="Helvetica-106"/>
     </defs>
     <g style="fill:#262626;" transform="translate(329.321452 203.407875)scale(0.096 -0.096)">
      <use xlink:href="#Helvetica-112"/>
      <use x="55.615234" xlink:href="#Helvetica-32"/>
      <use x="83.398438" xlink:href="#Helvetica-97"/>
      <use x="139.013672" xlink:href="#Helvetica-100"/>
      <use x="194.628906" xlink:href="#Helvetica-106"/>
      <use x="216.845703" xlink:href="#Helvetica-117"/>
      <use x="272.460938" xlink:href="#Helvetica-115"/>
      <use x="322.460938" xlink:href="#Helvetica-116"/>
      <use x="350.244141" xlink:href="#Helvetica-101"/>
      <use x="405.859375" xlink:href="#Helvetica-100"/>
     </g>
    </g>
   </g>
   <g id="matplotlib.axis_4">
    <g id="ytick_8">
     <g id="line2d_29">
      <g>
       <use style="fill:#262626;stroke:#262626;stroke-width:1.25;" x="259.4" xlink:href="#ma8e0782440" y="162.634173"/>
      </g>
     </g>
    </g>
    <g id="ytick_9">
     <g id="line2d_30">
      <g>
       <use style="fill:#262626;stroke:#262626;stroke-width:1.25;" x="259.4" xlink:href="#ma8e0782440" y="137.777255"/>
      </g>
     </g>
    </g>
    <g id="ytick_10">
     <g id="line2d_31">
      <g>
       <use style="fill:#262626;stroke:#262626;stroke-width:1.25;" x="259.4" xlink:href="#ma8e0782440" y="112.920337"/>
      </g>
     </g>
    </g>
    <g id="ytick_11">
     <g id="line2d_32">
      <g>
       <use style="fill:#262626;stroke:#262626;stroke-width:1.25;" x="259.4" xlink:href="#ma8e0782440" y="88.063419"/>
      </g>
     </g>
    </g>
    <g id="ytick_12">
     <g id="line2d_33">
      <g>
       <use style="fill:#262626;stroke:#262626;stroke-width:1.25;" x="259.4" xlink:href="#ma8e0782440" y="63.206501"/>
      </g>
     </g>
    </g>
    <g id="ytick_13">
     <g id="line2d_34">
      <g>
       <use style="fill:#262626;stroke:#262626;stroke-width:1.25;" x="259.4" xlink:href="#ma8e0782440" y="38.349584"/>
      </g>
     </g>
    </g>
    <g id="ytick_14">
     <g id="line2d_35">
      <g>
       <use style="fill:#262626;stroke:#262626;stroke-width:1.25;" x="259.4" xlink:href="#ma8e0782440" y="13.492666"/>
      </g>
     </g>
    </g>
   </g>
   <g id="line2d_36">
    <path clip-path="url(#p0164fab71d)" d="M 272.315496 162.08732 
L 273.111023 161.465897 
L 275.497604 160.198195 
L 276.293132 159.452487 
L 278.679713 157.700074 
L 279.47524 157.314792 
L 280.270768 156.743083 
L 281.861822 155.375953 
L 282.657349 154.630245 
L 283.452876 153.698111 
L 285.043931 152.480122 
L 285.839458 151.995412 
L 286.634985 151.373989 
L 287.430512 150.267856 
L 288.22604 149.733432 
L 290.612621 147.483881 
L 291.408148 146.452319 
L 292.999203 145.159759 
L 295.385784 143.071778 
L 296.181312 142.214215 
L 296.976839 141.654934 
L 297.772366 140.722799 
L 299.36342 139.43024 
L 300.158948 138.734246 
L 300.954475 138.286822 
L 301.750002 137.665399 
L 302.545529 136.60898 
L 303.341056 135.987557 
L 304.136584 134.918709 
L 304.932111 134.570712 
L 306.523165 133.390009 
L 308.11422 132.395732 
L 308.909747 132.109877 
L 309.705274 131.376598 
L 310.500801 130.891889 
L 311.296328 130.245609 
L 312.091856 129.922469 
L 314.478437 128.020915 
L 316.069492 127.150922 
L 316.865019 126.218788 
L 318.456073 125.125084 
L 319.2516 124.205378 
L 320.842655 122.863104 
L 323.229236 121.28469 
L 324.024764 120.588696 
L 327.206872 118.774141 
L 329.593454 116.909872 
L 330.388981 115.853453 
L 331.184508 115.31903 
L 331.980036 114.598179 
L 332.775563 114.138326 
L 333.57109 113.454761 
L 334.366617 113.081907 
L 336.753199 111.180353 
L 337.548726 110.509216 
L 338.344253 110.23579 
L 339.13978 109.403083 
L 339.935307 108.94323 
L 340.730835 108.321807 
L 341.526362 107.849526 
L 342.321889 107.103818 
L 343.912943 106.097113 
L 344.708471 105.575118 
L 345.503998 105.301692 
L 346.299525 104.543556 
L 347.095052 104.10856 
L 347.890579 103.250996 
L 349.481634 102.082721 
L 350.277161 101.573154 
L 351.072688 101.262443 
L 351.868215 100.529163 
L 353.45927 99.472744 
L 355.845851 98.37904 
L 356.641379 97.782474 
L 357.436906 96.949767 
L 358.232433 96.278631 
L 359.02796 95.918205 
L 359.823487 95.433495 
L 361.414542 94.041508 
L 362.210069 93.681083 
L 363.005596 93.196373 
L 364.596651 92.463094 
L 365.392178 91.44396 
L 366.187705 90.648539 
L 366.983232 90.300542 
L 368.574287 88.896126 
L 369.369814 88.560558 
L 370.960868 87.106428 
L 371.756395 86.770859 
L 372.551923 86.236436 
L 374.142977 84.123598 
L 374.938504 83.53946 
L 375.734031 82.768896 
L 376.529559 82.483041 
L 377.325086 82.023188 
L 378.120613 81.36448 
L 378.91614 80.444774 
L 382.893776 77.710513 
L 384.484831 76.60438 
L 385.280358 75.373963 
L 386.871412 74.044118 
L 387.666939 73.397838 
L 388.462467 72.950413 
L 390.849048 70.949431 
L 392.440103 69.893012 
L 394.031157 68.550739 
L 394.826684 68.190313 
L 397.213266 65.928334 
L 398.008793 65.431196 
L 398.80432 64.772487 
L 400.395375 62.982789 
L 401.190902 62.435937 
L 402.781956 61.006664 
L 403.577483 60.509526 
L 404.373011 59.490392 
L 405.964065 57.961692 
L 406.759592 57.116557 
L 407.555119 56.619418 
L 413.919337 51.436751 
L 414.714864 51.03904 
L 415.510391 50.47976 
L 416.305919 50.106906 
L 417.896973 48.665205 
L 418.6925 47.496929 
L 420.283555 46.055228 
L 421.079082 45.135522 
L 424.261191 42.401261 
L 425.056718 41.891694 
L 425.852245 40.723419 
L 426.647772 39.890713 
L 429.034354 36.746312 
L 430.625408 35.080899 
L 430.625408 35.080899 
" style="fill:none;stroke:#315498;stroke-linecap:round;stroke-width:0.8;"/>
    <defs>
     <path d="M -2 0 
L 2 0 
M 0 2 
L 0 -2 
" id="md5da532ff2" style="stroke:#315498;"/>
    </defs>
    <g clip-path="url(#p0164fab71d)">
     <use style="fill:#315498;stroke:#315498;" x="272.315496" xlink:href="#md5da532ff2" y="162.08732"/>
     <use style="fill:#315498;stroke:#315498;" x="280.270768" xlink:href="#md5da532ff2" y="156.743083"/>
     <use style="fill:#315498;stroke:#315498;" x="288.22604" xlink:href="#md5da532ff2" y="149.733432"/>
     <use style="fill:#315498;stroke:#315498;" x="296.181312" xlink:href="#md5da532ff2" y="142.214215"/>
     <use style="fill:#315498;stroke:#315498;" x="304.136584" xlink:href="#md5da532ff2" y="134.918709"/>
     <use style="fill:#315498;stroke:#315498;" x="312.091856" xlink:href="#md5da532ff2" y="129.922469"/>
     <use style="fill:#315498;stroke:#315498;" x="320.047128" xlink:href="#md5da532ff2" y="123.472099"/>
     <use style="fill:#315498;stroke:#315498;" x="328.0024" xlink:href="#md5da532ff2" y="118.152718"/>
     <use style="fill:#315498;stroke:#315498;" x="335.957672" xlink:href="#md5da532ff2" y="111.913632"/>
     <use style="fill:#315498;stroke:#315498;" x="343.912943" xlink:href="#md5da532ff2" y="106.097113"/>
     <use style="fill:#315498;stroke:#315498;" x="351.868215" xlink:href="#md5da532ff2" y="100.529163"/>
     <use style="fill:#315498;stroke:#315498;" x="359.823487" xlink:href="#md5da532ff2" y="95.433495"/>
     <use style="fill:#315498;stroke:#315498;" x="367.778759" xlink:href="#md5da532ff2" y="89.616977"/>
     <use style="fill:#315498;stroke:#315498;" x="375.734031" xlink:href="#md5da532ff2" y="82.768896"/>
     <use style="fill:#315498;stroke:#315498;" x="383.689303" xlink:href="#md5da532ff2" y="77.163661"/>
     <use style="fill:#315498;stroke:#315498;" x="391.644575" xlink:href="#md5da532ff2" y="70.464721"/>
     <use style="fill:#315498;stroke:#315498;" x="399.599847" xlink:href="#md5da532ff2" y="63.914924"/>
     <use style="fill:#315498;stroke:#315498;" x="407.555119" xlink:href="#md5da532ff2" y="56.619418"/>
     <use style="fill:#315498;stroke:#315498;" x="415.510391" xlink:href="#md5da532ff2" y="50.47976"/>
     <use style="fill:#315498;stroke:#315498;" x="423.465663" xlink:href="#md5da532ff2" y="43.072398"/>
    </g>
   </g>
   <g id="line2d_37">
    <path clip-path="url(#p0164fab71d)" d="M 272.315496 162.634173 
L 341.526362 162.547173 
L 345.503998 162.509888 
L 348.686107 162.509888 
L 350.277161 162.398032 
L 392.440103 162.311033 
L 394.826684 162.273747 
L 398.80432 162.24889 
L 399.599847 162.112177 
L 412.328283 162.037606 
L 413.12381 105.972828 
L 413.919337 91.530959 
L 415.510391 83.092036 
L 416.305919 76.417953 
L 417.101446 73.994404 
L 417.896973 69.681729 
L 419.488027 65.282054 
L 420.283555 63.728497 
L 421.079082 57.775265 
L 421.874609 54.742721 
L 422.670136 52.281886 
L 424.261191 46.27894 
L 425.056718 39.840999 
L 426.647772 34.882044 
L 427.443299 32.470923 
L 428.238827 28.953669 
L 429.034354 26.256693 
L 429.829881 21.310167 
L 430.625408 18.277623 
L 430.625408 18.277623 
" style="fill:none;stroke:#315498;stroke-linecap:round;stroke-width:0.8;"/>
    <defs>
     <path d="M -2 2 
L 2 -2 
M -2 -2 
L 2 2 
" id="mdbcc860ce8" style="stroke:#315498;"/>
    </defs>
    <g clip-path="url(#p0164fab71d)">
     <use style="fill:#315498;stroke:#315498;" x="272.315496" xlink:href="#mdbcc860ce8" y="162.634173"/>
     <use style="fill:#315498;stroke:#315498;" x="280.270768" xlink:href="#mdbcc860ce8" y="162.634173"/>
     <use style="fill:#315498;stroke:#315498;" x="288.22604" xlink:href="#mdbcc860ce8" y="162.584459"/>
     <use style="fill:#315498;stroke:#315498;" x="296.181312" xlink:href="#mdbcc860ce8" y="162.584459"/>
     <use style="fill:#315498;stroke:#315498;" x="304.136584" xlink:href="#mdbcc860ce8" y="162.57203"/>
     <use style="fill:#315498;stroke:#315498;" x="312.091856" xlink:href="#mdbcc860ce8" y="162.57203"/>
     <use style="fill:#315498;stroke:#315498;" x="320.047128" xlink:href="#mdbcc860ce8" y="162.547173"/>
     <use style="fill:#315498;stroke:#315498;" x="328.0024" xlink:href="#mdbcc860ce8" y="162.547173"/>
     <use style="fill:#315498;stroke:#315498;" x="335.957672" xlink:href="#mdbcc860ce8" y="162.547173"/>
     <use style="fill:#315498;stroke:#315498;" x="343.912943" xlink:href="#mdbcc860ce8" y="162.509888"/>
     <use style="fill:#315498;stroke:#315498;" x="351.868215" xlink:href="#mdbcc860ce8" y="162.398032"/>
     <use style="fill:#315498;stroke:#315498;" x="359.823487" xlink:href="#mdbcc860ce8" y="162.360746"/>
     <use style="fill:#315498;stroke:#315498;" x="367.778759" xlink:href="#mdbcc860ce8" y="162.360746"/>
     <use style="fill:#315498;stroke:#315498;" x="375.734031" xlink:href="#mdbcc860ce8" y="162.360746"/>
     <use style="fill:#315498;stroke:#315498;" x="383.689303" xlink:href="#mdbcc860ce8" y="162.311033"/>
     <use style="fill:#315498;stroke:#315498;" x="391.644575" xlink:href="#mdbcc860ce8" y="162.311033"/>
     <use style="fill:#315498;stroke:#315498;" x="399.599847" xlink:href="#mdbcc860ce8" y="162.112177"/>
     <use style="fill:#315498;stroke:#315498;" x="407.555119" xlink:href="#mdbcc860ce8" y="162.112177"/>
     <use style="fill:#315498;stroke:#315498;" x="415.510391" xlink:href="#mdbcc860ce8" y="83.092036"/>
     <use style="fill:#315498;stroke:#315498;" x="423.465663" xlink:href="#mdbcc860ce8" y="49.323913"/>
    </g>
   </g>
   <g id="patch_6">
    <path d="M 259.4 169.852 
L 259.4 11.059795 
" style="fill:none;stroke:#262626;stroke-linecap:square;stroke-linejoin:miter;stroke-width:1.25;"/>
   </g>
   <g id="patch_7">
    <path d="M 264.4 174.852 
L 438.540904 174.852 
" style="fill:none;stroke:#262626;stroke-linecap:square;stroke-linejoin:miter;stroke-width:1.25;"/>
   </g>
   <g id="legend_2">
    <g id="line2d_38">
     <path d="M 270.7 20.06792 
L 284.7 20.06792 
" style="fill:none;stroke:#315498;stroke-linecap:round;stroke-width:0.8;"/>
    </g>
    <g id="line2d_39">
     <g>
      <use style="fill:#315498;stroke:#315498;" x="277.7" xlink:href="#md5da532ff2" y="20.06792"/>
     </g>
    </g>
    <g id="text_25">
     <!-- Swift 10 ng -->
     <defs>
      <path d="M 13.96875 23.140625 
Q 14.3125 17.046875 16.84375 13.234375 
Q 21.6875 6.109375 33.890625 6.109375 
Q 39.359375 6.109375 43.84375 7.671875 
Q 52.546875 10.6875 52.546875 18.5 
Q 52.546875 24.359375 48.875 26.859375 
Q 45.171875 29.296875 37.25 31.109375 
L 27.546875 33.296875 
Q 18.015625 35.453125 14.0625 38.03125 
Q 7.234375 42.53125 7.234375 51.46875 
Q 7.234375 61.140625 13.921875 67.328125 
Q 20.609375 73.53125 32.859375 73.53125 
Q 44.140625 73.53125 52.015625 68.078125 
Q 59.90625 62.640625 59.90625 50.6875 
L 50.78125 50.6875 
Q 50.046875 56.453125 47.65625 59.515625 
Q 43.21875 65.140625 32.5625 65.140625 
Q 23.96875 65.140625 20.203125 61.515625 
Q 16.453125 57.90625 16.453125 53.125 
Q 16.453125 47.859375 20.84375 45.40625 
Q 23.734375 43.84375 33.890625 41.5 
L 43.953125 39.203125 
Q 51.21875 37.546875 55.171875 34.671875 
Q 62.015625 29.640625 62.015625 20.0625 
Q 62.015625 8.15625 53.34375 3.03125 
Q 44.671875 -2.09375 33.203125 -2.09375 
Q 19.828125 -2.09375 12.25 4.734375 
Q 4.6875 11.53125 4.828125 23.140625 
z
M 33.59375 73.6875 
z
" id="Helvetica-83"/>
      <path d="M 10.5 52.296875 
L 20.5625 11.078125 
L 30.765625 52.296875 
L 40.625 52.296875 
L 50.875 11.328125 
L 61.578125 52.296875 
L 70.359375 52.296875 
L 55.171875 0 
L 46.046875 0 
L 35.40625 40.484375 
L 25.09375 0 
L 15.96875 0 
L 0.875 52.296875 
z
" id="Helvetica-119"/>
     </defs>
     <g style="fill:#262626;" transform="translate(290.3 22.51792)scale(0.07 -0.07)">
      <use xlink:href="#Helvetica-83"/>
      <use x="66.699219" xlink:href="#Helvetica-119"/>
      <use x="138.916016" xlink:href="#Helvetica-105"/>
      <use x="161.132812" xlink:href="#Helvetica-102"/>
      <use x="188.916016" xlink:href="#Helvetica-116"/>
      <use x="216.699219" xlink:href="#Helvetica-32"/>
      <use x="244.482422" xlink:href="#Helvetica-49"/>
      <use x="300.097656" xlink:href="#Helvetica-48"/>
      <use x="355.712891" xlink:href="#Helvetica-32"/>
      <use x="383.496094" xlink:href="#Helvetica-110"/>
      <use x="439.111328" xlink:href="#Helvetica-103"/>
     </g>
    </g>
    <g id="line2d_40">
     <path d="M 270.7 30.274795 
L 284.7 30.274795 
" style="fill:none;stroke:#315498;stroke-linecap:round;stroke-width:0.8;"/>
    </g>
    <g id="line2d_41">
     <g>
      <use style="fill:#315498;stroke:#315498;" x="277.7" xlink:href="#mdbcc860ce8" y="30.274795"/>
     </g>
    </g>
    <g id="text_26">
     <!-- Swift 50 ng -->
     <g style="fill:#262626;" transform="translate(290.3 32.724795)scale(0.07 -0.07)">
      <use xlink:href="#Helvetica-83"/>
      <use x="66.699219" xlink:href="#Helvetica-119"/>
      <use x="138.916016" xlink:href="#Helvetica-105"/>
      <use x="161.132812" xlink:href="#Helvetica-102"/>
      <use x="188.916016" xlink:href="#Helvetica-116"/>
      <use x="216.699219" xlink:href="#Helvetica-32"/>
      <use x="244.482422" xlink:href="#Helvetica-53"/>
      <use x="300.097656" xlink:href="#Helvetica-48"/>
      <use x="355.712891" xlink:href="#Helvetica-32"/>
      <use x="383.496094" xlink:href="#Helvetica-110"/>
      <use x="439.111328" xlink:href="#Helvetica-103"/>
     </g>
    </g>
   </g>
  </g>
  <g id="axes_3">
   <g id="patch_8">
    <path d="M 461.7 169.852 
L 635.840904 169.852 
L 635.840904 11.059795 
L 461.7 11.059795 
z
" style="fill:#ffffff;"/>
   </g>
   <g id="matplotlib.axis_5">
    <g id="xtick_13">
     <g id="line2d_42">
      <g>
       <use style="fill:#262626;stroke:#262626;stroke-width:1.25;" x="468.819968" xlink:href="#m49e367ba96" y="174.852"/>
      </g>
     </g>
     <g id="text_27">
      <!-- 0.0 -->
      <g style="fill:#262626;" transform="translate(462.703968 190.664625)scale(0.088 -0.088)">
       <use xlink:href="#Helvetica-48"/>
       <use x="55.615234" xlink:href="#Helvetica-46"/>
       <use x="83.398438" xlink:href="#Helvetica-48"/>
      </g>
     </g>
    </g>
    <g id="xtick_14">
     <g id="line2d_43">
      <g>
       <use style="fill:#262626;stroke:#262626;stroke-width:1.25;" x="500.641056" xlink:href="#m49e367ba96" y="174.852"/>
      </g>
     </g>
     <g id="text_28">
      <!-- 0.2 -->
      <g style="fill:#262626;" transform="translate(494.525056 190.664625)scale(0.088 -0.088)">
       <use xlink:href="#Helvetica-48"/>
       <use x="55.615234" xlink:href="#Helvetica-46"/>
       <use x="83.398438" xlink:href="#Helvetica-50"/>
      </g>
     </g>
    </g>
    <g id="xtick_15">
     <g id="line2d_44">
      <g>
       <use style="fill:#262626;stroke:#262626;stroke-width:1.25;" x="532.462144" xlink:href="#m49e367ba96" y="174.852"/>
      </g>
     </g>
     <g id="text_29">
      <!-- 0.4 -->
      <g style="fill:#262626;" transform="translate(526.346144 190.664625)scale(0.088 -0.088)">
       <use xlink:href="#Helvetica-48"/>
       <use x="55.615234" xlink:href="#Helvetica-46"/>
       <use x="83.398438" xlink:href="#Helvetica-52"/>
      </g>
     </g>
    </g>
    <g id="xtick_16">
     <g id="line2d_45">
      <g>
       <use style="fill:#262626;stroke:#262626;stroke-width:1.25;" x="564.283232" xlink:href="#m49e367ba96" y="174.852"/>
      </g>
     </g>
     <g id="text_30">
      <!-- 0.6 -->
      <g style="fill:#262626;" transform="translate(558.167232 190.664625)scale(0.088 -0.088)">
       <use xlink:href="#Helvetica-48"/>
       <use x="55.615234" xlink:href="#Helvetica-46"/>
       <use x="83.398438" xlink:href="#Helvetica-54"/>
      </g>
     </g>
    </g>
    <g id="xtick_17">
     <g id="line2d_46">
      <g>
       <use style="fill:#262626;stroke:#262626;stroke-width:1.25;" x="596.10432" xlink:href="#m49e367ba96" y="174.852"/>
      </g>
     </g>
     <g id="text_31">
      <!-- 0.8 -->
      <g style="fill:#262626;" transform="translate(589.98832 190.664625)scale(0.088 -0.088)">
       <use xlink:href="#Helvetica-48"/>
       <use x="55.615234" xlink:href="#Helvetica-46"/>
       <use x="83.398438" xlink:href="#Helvetica-56"/>
      </g>
     </g>
    </g>
    <g id="xtick_18">
     <g id="line2d_47">
      <g>
       <use style="fill:#262626;stroke:#262626;stroke-width:1.25;" x="627.925408" xlink:href="#m49e367ba96" y="174.852"/>
      </g>
     </g>
     <g id="text_32">
      <!-- 1.0 -->
      <g style="fill:#262626;" transform="translate(621.809408 190.664625)scale(0.088 -0.088)">
       <use xlink:href="#Helvetica-49"/>
       <use x="55.615234" xlink:href="#Helvetica-46"/>
       <use x="83.398438" xlink:href="#Helvetica-48"/>
      </g>
     </g>
    </g>
   </g>
   <g id="matplotlib.axis_6">
    <g id="ytick_15">
     <g id="line2d_48">
      <g>
       <use style="fill:#262626;stroke:#262626;stroke-width:1.25;" x="456.7" xlink:href="#ma8e0782440" y="162.634173"/>
      </g>
     </g>
    </g>
    <g id="ytick_16">
     <g id="line2d_49">
      <g>
       <use style="fill:#262626;stroke:#262626;stroke-width:1.25;" x="456.7" xlink:href="#ma8e0782440" y="137.777255"/>
      </g>
     </g>
    </g>
    <g id="ytick_17">
     <g id="line2d_50">
      <g>
       <use style="fill:#262626;stroke:#262626;stroke-width:1.25;" x="456.7" xlink:href="#ma8e0782440" y="112.920337"/>
      </g>
     </g>
    </g>
    <g id="ytick_18">
     <g id="line2d_51">
      <g>
       <use style="fill:#262626;stroke:#262626;stroke-width:1.25;" x="456.7" xlink:href="#ma8e0782440" y="88.063419"/>
      </g>
     </g>
    </g>
    <g id="ytick_19">
     <g id="line2d_52">
      <g>
       <use style="fill:#262626;stroke:#262626;stroke-width:1.25;" x="456.7" xlink:href="#ma8e0782440" y="63.206501"/>
      </g>
     </g>
    </g>
    <g id="ytick_20">
     <g id="line2d_53">
      <g>
       <use style="fill:#262626;stroke:#262626;stroke-width:1.25;" x="456.7" xlink:href="#ma8e0782440" y="38.349584"/>
      </g>
     </g>
    </g>
    <g id="ytick_21">
     <g id="line2d_54">
      <g>
       <use style="fill:#262626;stroke:#262626;stroke-width:1.25;" x="456.7" xlink:href="#ma8e0782440" y="13.492666"/>
      </g>
     </g>
    </g>
   </g>
   <g id="line2d_55">
    <path clip-path="url(#p99cba5e3ac)" d="M 469.615496 160.07391 
L 470.411023 159.10449 
L 471.20655 158.321497 
L 472.002077 157.215364 
L 473.593132 155.699092 
L 475.184186 153.611111 
L 475.979713 153.076688 
L 476.77524 152.194267 
L 478.366295 150.789851 
L 479.161822 150.354855 
L 479.957349 149.547005 
L 483.139458 147.111027 
L 489.503676 142.338499 
L 490.299203 141.418793 
L 491.09473 141.045939 
L 493.481312 139.318384 
L 494.276839 138.933101 
L 499.050002 135.341277 
L 499.845529 134.943566 
L 500.641056 134.260001 
L 502.232111 133.46458 
L 507.005274 130.195895 
L 509.391856 128.406197 
L 510.187383 128.182484 
L 510.98291 127.685346 
L 511.778437 127.039066 
L 513.369492 126.181503 
L 514.165019 125.485509 
L 514.960546 125.261797 
L 517.347128 123.931952 
L 519.733709 122.204396 
L 520.529236 121.719686 
L 522.120291 120.998835 
L 522.915818 120.277985 
L 524.506872 119.283708 
L 525.3024 119.109709 
L 526.097927 118.152718 
L 527.688981 117.108728 
L 528.484508 116.36302 
L 531.666617 114.362038 
L 532.462144 113.976756 
L 534.848726 112.323771 
L 536.43978 111.453779 
L 538.826362 109.179371 
L 539.621889 108.607662 
L 540.417416 108.197523 
L 543.599525 105.438405 
L 545.986107 104.009132 
L 548.372688 101.84658 
L 550.75927 99.982311 
L 551.554797 99.050177 
L 552.350324 98.292041 
L 553.145851 97.906759 
L 554.736906 96.800626 
L 555.532433 96.315916 
L 556.32796 95.458352 
L 557.123487 94.774787 
L 557.919015 94.339791 
L 558.714542 93.768082 
L 559.510069 93.420085 
L 560.305596 92.612235 
L 561.101123 92.164811 
L 561.896651 91.158105 
L 562.692178 90.79768 
L 563.487705 90.064401 
L 564.283232 89.616977 
L 565.078759 88.796698 
L 567.465341 87.454425 
L 568.260868 86.472576 
L 569.056395 85.900867 
L 569.851923 85.577727 
L 571.442977 83.937171 
L 573.034031 83.464889 
L 574.625086 82.110187 
L 575.420613 81.20291 
L 577.011667 80.419917 
L 578.602722 79.177071 
L 579.398249 78.77936 
L 580.193776 78.120652 
L 580.989303 77.200946 
L 582.580358 76.256383 
L 584.966939 73.932261 
L 585.762467 72.937985 
L 587.353521 71.52114 
L 588.944575 69.806013 
L 590.53563 67.481891 
L 592.922211 65.331768 
L 594.513266 63.492356 
L 595.308793 62.945504 
L 596.10432 62.547793 
L 600.081956 58.732256 
L 600.877483 58.222689 
L 602.468538 56.644275 
L 603.264065 55.649998 
L 604.855119 53.997013 
L 605.650647 52.940594 
L 606.446174 52.083031 
L 607.241701 51.548607 
L 609.628283 49.000773 
L 610.42381 48.391778 
L 611.219337 47.621214 
L 612.014864 45.980657 
L 612.810391 45.408948 
L 613.605919 44.663241 
L 615.9925 41.469127 
L 616.788027 40.524564 
L 617.583555 39.132577 
L 618.379082 38.362012 
L 622.356718 32.446066 
L 623.152245 31.675501 
L 623.947772 30.544512 
L 624.743299 28.916383 
L 626.334354 26.641975 
L 627.129881 24.91442 
L 627.925408 23.882858 
L 627.925408 23.882858 
" style="fill:none;stroke:#a22382;stroke-linecap:round;stroke-width:0.8;"/>
    <defs>
     <path d="M 0 1 
C 0.265203 1 0.51958 0.894634 0.707107 0.707107 
C 0.894634 0.51958 1 0.265203 1 0 
C 1 -0.265203 0.894634 -0.51958 0.707107 -0.707107 
C 0.51958 -0.894634 0.265203 -1 0 -1 
C -0.265203 -1 -0.51958 -0.894634 -0.707107 -0.707107 
C -0.894634 -0.51958 -1 -0.265203 -1 0 
C -1 0.265203 -0.894634 0.51958 -0.707107 0.707107 
C -0.51958 0.894634 -0.265203 1 0 1 
z
" id="mfcd26b1c30" style="stroke:#a22382;"/>
    </defs>
    <g clip-path="url(#p99cba5e3ac)">
     <use style="fill:#a22382;stroke:#a22382;" x="469.615496" xlink:href="#mfcd26b1c30" y="160.07391"/>
     <use style="fill:#a22382;stroke:#a22382;" x="477.570768" xlink:href="#mfcd26b1c30" y="151.485845"/>
     <use style="fill:#a22382;stroke:#a22382;" x="485.52604" xlink:href="#mfcd26b1c30" y="145.495328"/>
     <use style="fill:#a22382;stroke:#a22382;" x="493.481312" xlink:href="#mfcd26b1c30" y="139.318384"/>
     <use style="fill:#a22382;stroke:#a22382;" x="501.436584" xlink:href="#mfcd26b1c30" y="133.874719"/>
     <use style="fill:#a22382;stroke:#a22382;" x="509.391856" xlink:href="#mfcd26b1c30" y="128.406197"/>
     <use style="fill:#a22382;stroke:#a22382;" x="517.347128" xlink:href="#mfcd26b1c30" y="123.931952"/>
     <use style="fill:#a22382;stroke:#a22382;" x="525.3024" xlink:href="#mfcd26b1c30" y="119.109709"/>
     <use style="fill:#a22382;stroke:#a22382;" x="533.257672" xlink:href="#mfcd26b1c30" y="113.38019"/>
     <use style="fill:#a22382;stroke:#a22382;" x="541.212943" xlink:href="#mfcd26b1c30" y="107.513957"/>
     <use style="fill:#a22382;stroke:#a22382;" x="549.168215" xlink:href="#mfcd26b1c30" y="101.225157"/>
     <use style="fill:#a22382;stroke:#a22382;" x="557.123487" xlink:href="#mfcd26b1c30" y="94.774787"/>
     <use style="fill:#a22382;stroke:#a22382;" x="565.078759" xlink:href="#mfcd26b1c30" y="88.796698"/>
     <use style="fill:#a22382;stroke:#a22382;" x="573.034031" xlink:href="#mfcd26b1c30" y="83.464889"/>
     <use style="fill:#a22382;stroke:#a22382;" x="580.989303" xlink:href="#mfcd26b1c30" y="77.200946"/>
     <use style="fill:#a22382;stroke:#a22382;" x="588.944575" xlink:href="#mfcd26b1c30" y="69.806013"/>
     <use style="fill:#a22382;stroke:#a22382;" x="596.899847" xlink:href="#mfcd26b1c30" y="61.789657"/>
     <use style="fill:#a22382;stroke:#a22382;" x="604.855119" xlink:href="#mfcd26b1c30" y="53.997013"/>
     <use style="fill:#a22382;stroke:#a22382;" x="612.810391" xlink:href="#mfcd26b1c30" y="45.408948"/>
     <use style="fill:#a22382;stroke:#a22382;" x="620.765663" xlink:href="#mfcd26b1c30" y="34.67076"/>
    </g>
   </g>
   <g id="line2d_56">
    <path clip-path="url(#p99cba5e3ac)" d="M 469.615496 150.55371 
L 470.411023 148.080447 
L 471.20655 146.017323 
L 472.797604 142.686496 
L 474.388659 140.113805 
L 476.77524 137.019119 
L 479.161822 134.123288 
L 483.139458 130.220752 
L 483.934985 129.524758 
L 484.730512 129.040048 
L 485.52604 128.157628 
L 487.117094 127.138494 
L 487.912621 126.454929 
L 489.503676 125.47308 
L 490.299203 124.615517 
L 491.09473 124.018951 
L 491.890257 123.074388 
L 495.072366 121.110691 
L 495.867893 120.253128 
L 496.66342 119.656562 
L 498.254475 118.277003 
L 499.845529 117.233012 
L 501.436584 115.903167 
L 502.232111 115.517885 
L 503.027638 114.759749 
L 505.41422 113.355333 
L 507.005274 111.913632 
L 508.596328 110.621072 
L 509.391856 110.360074 
L 510.187383 109.91265 
L 510.98291 109.179371 
L 512.573964 108.06081 
L 515.756073 105.749116 
L 517.347128 105.040694 
L 519.733709 103.362852 
L 522.120291 101.983293 
L 522.915818 101.2003 
L 523.711345 100.71559 
L 526.097927 98.925892 
L 530.87109 95.868491 
L 532.462144 94.538646 
L 533.257672 94.041508 
L 534.053199 93.357943 
L 534.848726 92.835947 
L 535.644253 92.500379 
L 536.43978 91.791957 
L 538.826362 90.089258 
L 542.008471 88.535701 
L 545.190579 86.236436 
L 545.986107 85.813868 
L 546.781634 84.981161 
L 547.577161 84.397024 
L 548.372688 83.663745 
L 549.168215 83.129321 
L 549.963743 82.383614 
L 551.554797 81.215338 
L 552.350324 80.581487 
L 553.145851 80.23349 
L 553.941379 79.723923 
L 554.736906 79.413212 
L 555.532433 78.791789 
L 556.32796 78.331936 
L 557.919015 76.840521 
L 558.714542 76.318526 
L 559.510069 75.535533 
L 560.305596 75.001109 
L 562.692178 73.696121 
L 564.283232 72.701844 
L 565.078759 72.055564 
L 565.874287 71.024002 
L 567.465341 70.178867 
L 569.056395 69.02302 
L 573.034031 65.915905 
L 573.829559 65.518195 
L 575.420613 64.001923 
L 576.21614 63.629069 
L 577.011667 62.970361 
L 577.807195 62.075512 
L 579.398249 60.745667 
L 580.193776 60.161529 
L 580.989303 59.341251 
L 582.580358 58.247546 
L 583.375885 57.427268 
L 584.171412 57.0047 
L 584.966939 56.221708 
L 585.762467 55.774283 
L 586.557994 55.090718 
L 587.353521 54.643293 
L 588.149048 53.649017 
L 588.944575 52.841167 
L 592.126684 50.579187 
L 592.922211 49.99505 
L 593.717739 48.901345 
L 594.513266 48.267494 
L 596.10432 47.422359 
L 597.695375 46.017943 
L 599.286429 44.563813 
L 600.081956 43.519823 
L 600.877483 42.948113 
L 601.673011 42.152692 
L 602.468538 41.792267 
L 603.264065 40.934703 
L 604.059592 40.362994 
L 604.855119 39.965283 
L 606.446174 38.821865 
L 608.832755 37.206165 
L 611.219337 34.645903 
L 612.014864 33.838053 
L 612.810391 33.241487 
L 613.605919 32.309353 
L 615.9925 30.221372 
L 616.788027 29.724233 
L 619.174609 27.698394 
L 620.765663 25.834126 
L 621.561191 25.299702 
L 622.356718 24.218426 
L 623.152245 23.696431 
L 623.947772 22.602726 
L 624.743299 21.832162 
L 625.538827 20.651458 
L 627.925408 18.290051 
L 627.925408 18.290051 
" style="fill:none;stroke:#a22382;stroke-linecap:round;stroke-width:0.8;"/>
    <defs>
     <path d="M -2 2 
L 2 -2 
M -2 -2 
L 2 2 
" id="m24dde95100" style="stroke:#a22382;"/>
    </defs>
    <g clip-path="url(#p99cba5e3ac)">
     <use style="fill:#a22382;stroke:#a22382;" x="469.615496" xlink:href="#m24dde95100" y="150.55371"/>
     <use style="fill:#a22382;stroke:#a22382;" x="477.570768" xlink:href="#m24dde95100" y="136.049699"/>
     <use style="fill:#a22382;stroke:#a22382;" x="485.52604" xlink:href="#m24dde95100" y="128.157628"/>
     <use style="fill:#a22382;stroke:#a22382;" x="493.481312" xlink:href="#m24dde95100" y="121.993112"/>
     <use style="fill:#a22382;stroke:#a22382;" x="501.436584" xlink:href="#m24dde95100" y="115.903167"/>
     <use style="fill:#a22382;stroke:#a22382;" x="509.391856" xlink:href="#m24dde95100" y="110.360074"/>
     <use style="fill:#a22382;stroke:#a22382;" x="517.347128" xlink:href="#m24dde95100" y="105.040694"/>
     <use style="fill:#a22382;stroke:#a22382;" x="525.3024" xlink:href="#m24dde95100" y="99.423031"/>
     <use style="fill:#a22382;stroke:#a22382;" x="533.257672" xlink:href="#m24dde95100" y="94.041508"/>
     <use style="fill:#a22382;stroke:#a22382;" x="541.212943" xlink:href="#m24dde95100" y="88.970697"/>
     <use style="fill:#a22382;stroke:#a22382;" x="549.168215" xlink:href="#m24dde95100" y="83.129321"/>
     <use style="fill:#a22382;stroke:#a22382;" x="557.123487" xlink:href="#m24dde95100" y="77.536515"/>
     <use style="fill:#a22382;stroke:#a22382;" x="565.078759" xlink:href="#m24dde95100" y="72.055564"/>
     <use style="fill:#a22382;stroke:#a22382;" x="573.034031" xlink:href="#m24dde95100" y="65.915905"/>
     <use style="fill:#a22382;stroke:#a22382;" x="580.989303" xlink:href="#m24dde95100" y="59.341251"/>
     <use style="fill:#a22382;stroke:#a22382;" x="588.944575" xlink:href="#m24dde95100" y="52.841167"/>
     <use style="fill:#a22382;stroke:#a22382;" x="596.899847" xlink:href="#m24dde95100" y="46.651794"/>
     <use style="fill:#a22382;stroke:#a22382;" x="604.855119" xlink:href="#m24dde95100" y="39.965283"/>
     <use style="fill:#a22382;stroke:#a22382;" x="612.810391" xlink:href="#m24dde95100" y="33.241487"/>
     <use style="fill:#a22382;stroke:#a22382;" x="620.765663" xlink:href="#m24dde95100" y="25.834126"/>
    </g>
   </g>
   <g id="patch_9">
    <path d="M 456.7 169.852 
L 456.7 11.059795 
" style="fill:none;stroke:#262626;stroke-linecap:square;stroke-linejoin:miter;stroke-width:1.25;"/>
   </g>
   <g id="patch_10">
    <path d="M 461.7 174.852 
L 635.840904 174.852 
" style="fill:none;stroke:#262626;stroke-linecap:square;stroke-linejoin:miter;stroke-width:1.25;"/>
   </g>
   <g id="legend_3">
    <g id="line2d_57">
     <path d="M 468 20.06792 
L 482 20.06792 
" style="fill:none;stroke:#a22382;stroke-linecap:round;stroke-width:0.8;"/>
    </g>
    <g id="line2d_58">
     <g>
      <use style="fill:#a22382;stroke:#a22382;" x="475" xlink:href="#mfcd26b1c30" y="20.06792"/>
     </g>
    </g>
    <g id="text_33">
     <!-- Swift Rapid 100 ng -->
     <defs>
      <path d="M 40.96875 38.875 
Q 47.796875 38.875 51.78125 41.609375 
Q 55.765625 44.34375 55.765625 51.46875 
Q 55.765625 59.125 50.203125 61.921875 
Q 47.21875 63.375 42.234375 63.375 
L 18.5 63.375 
L 18.5 38.875 
z
M 8.796875 71.734375 
L 42 71.734375 
Q 50.203125 71.734375 55.515625 69.34375 
Q 65.625 64.75 65.625 52.390625 
Q 65.625 45.953125 62.953125 41.84375 
Q 60.296875 37.75 55.515625 35.25 
Q 59.71875 33.546875 61.84375 30.765625 
Q 63.96875 27.984375 64.203125 21.734375 
L 64.546875 12.109375 
Q 64.703125 8.015625 65.234375 6 
Q 66.109375 2.59375 68.359375 1.609375 
L 68.359375 0 
L 56.453125 0 
Q 55.953125 0.921875 55.65625 2.390625 
Q 55.375 3.859375 55.171875 8.0625 
L 54.59375 20.015625 
Q 54.25 27.046875 49.359375 29.4375 
Q 46.578125 30.765625 40.625 30.765625 
L 18.5 30.765625 
L 18.5 0 
L 8.796875 0 
z
" id="Helvetica-82"/>
     </defs>
     <g style="fill:#262626;" transform="translate(487.6 22.51792)scale(0.07 -0.07)">
      <use xlink:href="#Helvetica-83"/>
      <use x="66.699219" xlink:href="#Helvetica-119"/>
      <use x="138.916016" xlink:href="#Helvetica-105"/>
      <use x="161.132812" xlink:href="#Helvetica-102"/>
      <use x="188.916016" xlink:href="#Helvetica-116"/>
      <use x="216.699219" xlink:href="#Helvetica-32"/>
      <use x="244.482422" xlink:href="#Helvetica-82"/>
      <use x="316.699219" xlink:href="#Helvetica-97"/>
      <use x="372.314453" xlink:href="#Helvetica-112"/>
      <use x="427.929688" xlink:href="#Helvetica-105"/>
      <use x="450.146484" xlink:href="#Helvetica-100"/>
      <use x="505.761719" xlink:href="#Helvetica-32"/>
      <use x="533.544922" xlink:href="#Helvetica-49"/>
      <use x="589.160156" xlink:href="#Helvetica-48"/>
      <use x="644.775391" xlink:href="#Helvetica-48"/>
      <use x="700.390625" xlink:href="#Helvetica-32"/>
      <use x="728.173828" xlink:href="#Helvetica-110"/>
      <use x="783.789062" xlink:href="#Helvetica-103"/>
     </g>
    </g>
    <g id="line2d_59">
     <path d="M 468 30.274795 
L 482 30.274795 
" style="fill:none;stroke:#a22382;stroke-linecap:round;stroke-width:0.8;"/>
    </g>
    <g id="line2d_60">
     <g>
      <use style="fill:#a22382;stroke:#a22382;" x="475" xlink:href="#m24dde95100" y="30.274795"/>
     </g>
    </g>
    <g id="text_34">
     <!-- Swift Rapid 50 ng -->
     <g style="fill:#262626;" transform="translate(487.6 32.724795)scale(0.07 -0.07)">
      <use xlink:href="#Helvetica-83"/>
      <use x="66.699219" xlink:href="#Helvetica-119"/>
      <use x="138.916016" xlink:href="#Helvetica-105"/>
      <use x="161.132812" xlink:href="#Helvetica-102"/>
      <use x="188.916016" xlink:href="#Helvetica-116"/>
      <use x="216.699219" xlink:href="#Helvetica-32"/>
      <use x="244.482422" xlink:href="#Helvetica-82"/>
      <use x="316.699219" xlink:href="#Helvetica-97"/>
      <use x="372.314453" xlink:href="#Helvetica-112"/>
      <use x="427.929688" xlink:href="#Helvetica-105"/>
      <use x="450.146484" xlink:href="#Helvetica-100"/>
      <use x="505.761719" xlink:href="#Helvetica-32"/>
      <use x="533.544922" xlink:href="#Helvetica-53"/>
      <use x="589.160156" xlink:href="#Helvetica-48"/>
      <use x="644.775391" xlink:href="#Helvetica-32"/>
      <use x="672.558594" xlink:href="#Helvetica-110"/>
      <use x="728.173828" xlink:href="#Helvetica-103"/>
     </g>
    </g>
   </g>
  </g>
 </g>
 <defs>
  <clipPath id="p825ba653a8">
   <rect height="158.792205" width="174.140904" x="67.1" y="11.059795"/>
  </clipPath>
  <clipPath id="p0164fab71d">
   <rect height="158.792205" width="174.140904" x="264.4" y="11.059795"/>
  </clipPath>
  <clipPath id="p99cba5e3ac">
   <rect height="158.792205" width="174.140904" x="461.7" y="11.059795"/>
  </clipPath>
 </defs>
</svg>
