<?xml version="1.0" encoding="utf-8" standalone="no"?>
<!DOCTYPE svg PUBLIC "-//W3C//DTD SVG 1.1//EN"
  "http://www.w3.org/Graphics/SVG/1.1/DTD/svg11.dtd">
<!-- Created with matplotlib (https://matplotlib.org/) -->
<svg height="216pt" version="1.1" viewBox="0 0 648 216" width="648pt" xmlns="http://www.w3.org/2000/svg" xmlns:xlink="http://www.w3.org/1999/xlink">
 <defs>
  <style type="text/css">
*{stroke-linecap:butt;stroke-linejoin:round;}
  </style>
 </defs>
 <g id="figure_1">
  <g id="patch_1">
   <path d="M 0 216 
L 648 216 
L 648 0 
L 0 0 
z
" style="fill:#ffffff;"/>
  </g>
  <g id="axes_1">
   <g id="patch_2">
    <path d="M 67.1 169.852 
L 238.727178 169.852 
L 238.727178 38.52 
L 67.1 38.52 
z
" style="fill:#ffffff;"/>
   </g>
   <g id="matplotlib.axis_1">
    <g id="xtick_1">
     <g id="line2d_1">
      <defs>
       <path d="M 0 0 
L 0 6 
" id="m8481999517" style="stroke:#262626;stroke-width:1.25;"/>
      </defs>
      <g>
       <use style="fill:#262626;stroke:#262626;stroke-width:1.25;" x="74.117192" xlink:href="#m8481999517" y="174.852"/>
      </g>
     </g>
     <g id="text_1">
      <!-- 0.0 -->
      <defs>
       <path d="M 27.046875 69.921875 
Q 40.625 69.921875 46.6875 58.734375 
Q 51.375 50.09375 51.375 35.0625 
Q 51.375 20.796875 47.125 11.46875 
Q 40.96875 -1.90625 27 -1.90625 
Q 14.40625 -1.90625 8.25 9.03125 
Q 3.125 18.171875 3.125 33.546875 
Q 3.125 45.453125 6.203125 54 
Q 11.96875 69.921875 27.046875 69.921875 
z
M 26.953125 6.109375 
Q 33.796875 6.109375 37.84375 12.15625 
Q 41.890625 18.21875 41.890625 34.71875 
Q 41.890625 46.625 38.953125 54.3125 
Q 36.03125 62.015625 27.59375 62.015625 
Q 19.828125 62.015625 16.234375 54.703125 
Q 12.640625 47.40625 12.640625 33.203125 
Q 12.640625 22.515625 14.9375 16.015625 
Q 18.453125 6.109375 26.953125 6.109375 
z
" id="Helvetica-48"/>
       <path d="M 8.546875 10.640625 
L 18.75 10.640625 
L 18.75 0 
L 8.546875 0 
z
" id="Helvetica-46"/>
      </defs>
      <g style="fill:#262626;" transform="translate(68.001192 190.664625)scale(0.088 -0.088)">
       <use xlink:href="#Helvetica-48"/>
       <use x="55.615234" xlink:href="#Helvetica-46"/>
       <use x="83.398438" xlink:href="#Helvetica-48"/>
      </g>
     </g>
    </g>
    <g id="xtick_2">
     <g id="line2d_2">
      <g>
       <use style="fill:#262626;stroke:#262626;stroke-width:1.25;" x="105.478942" xlink:href="#m8481999517" y="174.852"/>
      </g>
     </g>
     <g id="text_2">
      <!-- 0.2 -->
      <defs>
       <path d="M 3.125 0 
Q 3.609375 9.03125 6.859375 15.71875 
Q 10.109375 22.40625 19.53125 27.875 
L 28.90625 33.296875 
Q 35.203125 36.96875 37.75 39.546875 
Q 41.75 43.609375 41.75 48.828125 
Q 41.75 54.9375 38.078125 58.515625 
Q 34.421875 62.109375 28.328125 62.109375 
Q 19.28125 62.109375 15.828125 55.28125 
Q 13.96875 51.609375 13.765625 45.125 
L 4.828125 45.125 
Q 4.984375 54.25 8.203125 60.015625 
Q 13.921875 70.171875 28.375 70.171875 
Q 40.375 70.171875 45.921875 63.671875 
Q 51.46875 57.171875 51.46875 49.21875 
Q 51.46875 40.828125 45.5625 34.859375 
Q 42.140625 31.390625 33.296875 26.46875 
L 26.609375 22.75 
Q 21.828125 20.125 19.09375 17.71875 
Q 14.203125 13.484375 12.9375 8.296875 
L 51.125 8.296875 
L 51.125 0 
L 3.125 0 
z
" id="Helvetica-50"/>
      </defs>
      <g style="fill:#262626;" transform="translate(99.362942 190.664625)scale(0.088 -0.088)">
       <use xlink:href="#Helvetica-48"/>
       <use x="55.615234" xlink:href="#Helvetica-46"/>
       <use x="83.398438" xlink:href="#Helvetica-50"/>
      </g>
     </g>
    </g>
    <g id="xtick_3">
     <g id="line2d_3">
      <g>
       <use style="fill:#262626;stroke:#262626;stroke-width:1.25;" x="136.840692" xlink:href="#m8481999517" y="174.852"/>
      </g>
     </g>
     <g id="text_3">
      <!-- 0.4 -->
      <defs>
       <path d="M 33.0625 24.75 
L 33.0625 56.453125 
L 10.640625 24.75 
z
M 33.203125 0 
L 33.203125 17.09375 
L 2.546875 17.09375 
L 2.546875 25.6875 
L 34.578125 70.125 
L 42 70.125 
L 42 24.75 
L 52.296875 24.75 
L 52.296875 17.09375 
L 42 17.09375 
L 42 0 
z
" id="Helvetica-52"/>
      </defs>
      <g style="fill:#262626;" transform="translate(130.724692 190.664625)scale(0.088 -0.088)">
       <use xlink:href="#Helvetica-48"/>
       <use x="55.615234" xlink:href="#Helvetica-46"/>
       <use x="83.398438" xlink:href="#Helvetica-52"/>
      </g>
     </g>
    </g>
    <g id="xtick_4">
     <g id="line2d_4">
      <g>
       <use style="fill:#262626;stroke:#262626;stroke-width:1.25;" x="168.202442" xlink:href="#m8481999517" y="174.852"/>
      </g>
     </g>
     <g id="text_4">
      <!-- 0.6 -->
      <defs>
       <path d="M 29.25 70.21875 
Q 40.96875 70.21875 45.578125 64.140625 
Q 50.203125 58.0625 50.203125 51.609375 
L 41.5 51.609375 
Q 40.71875 55.765625 39.015625 58.109375 
Q 35.84375 62.5 29.390625 62.5 
Q 22.015625 62.5 17.671875 55.6875 
Q 13.328125 48.875 12.84375 36.1875 
Q 15.875 40.625 20.453125 42.828125 
Q 24.65625 44.78125 29.828125 44.78125 
Q 38.625 44.78125 45.15625 39.15625 
Q 51.703125 33.546875 51.703125 22.40625 
Q 51.703125 12.890625 45.5 5.53125 
Q 39.3125 -1.8125 27.828125 -1.8125 
Q 18.015625 -1.8125 10.890625 5.640625 
Q 3.765625 13.09375 3.765625 30.71875 
Q 3.765625 43.75 6.9375 52.828125 
Q 13.03125 70.21875 29.25 70.21875 
z
M 28.609375 6 
Q 35.546875 6 38.984375 10.65625 
Q 42.4375 15.328125 42.4375 21.6875 
Q 42.4375 27.046875 39.359375 31.90625 
Q 36.28125 36.765625 28.171875 36.765625 
Q 22.515625 36.765625 18.234375 33 
Q 13.96875 29.25 13.96875 21.6875 
Q 13.96875 15.046875 17.84375 10.515625 
Q 21.734375 6 28.609375 6 
z
" id="Helvetica-54"/>
      </defs>
      <g style="fill:#262626;" transform="translate(162.086442 190.664625)scale(0.088 -0.088)">
       <use xlink:href="#Helvetica-48"/>
       <use x="55.615234" xlink:href="#Helvetica-46"/>
       <use x="83.398438" xlink:href="#Helvetica-54"/>
      </g>
     </g>
    </g>
    <g id="xtick_5">
     <g id="line2d_5">
      <g>
       <use style="fill:#262626;stroke:#262626;stroke-width:1.25;" x="199.564193" xlink:href="#m8481999517" y="174.852"/>
      </g>
     </g>
     <g id="text_5">
      <!-- 0.8 -->
      <defs>
       <path d="M 27.203125 40.625 
Q 33.015625 40.625 36.28125 43.875 
Q 39.546875 47.125 39.546875 51.609375 
Q 39.546875 55.515625 36.421875 58.78125 
Q 33.296875 62.0625 26.90625 62.0625 
Q 20.5625 62.0625 17.71875 58.78125 
Q 14.890625 55.515625 14.890625 51.125 
Q 14.890625 46.1875 18.546875 43.40625 
Q 22.21875 40.625 27.203125 40.625 
z
M 27.734375 6 
Q 33.84375 6 37.859375 9.296875 
Q 41.890625 12.59375 41.890625 19.140625 
Q 41.890625 25.921875 37.734375 29.4375 
Q 33.59375 32.953125 27.09375 32.953125 
Q 20.796875 32.953125 16.8125 29.359375 
Q 12.84375 25.78125 12.84375 19.4375 
Q 12.84375 13.96875 16.484375 9.984375 
Q 20.125 6 27.734375 6 
z
M 15.234375 37.25 
Q 11.578125 38.8125 9.515625 40.921875 
Q 5.671875 44.828125 5.671875 51.078125 
Q 5.671875 58.890625 11.328125 64.5 
Q 17 70.125 27.390625 70.125 
Q 37.453125 70.125 43.15625 64.8125 
Q 48.875 59.515625 48.875 52.4375 
Q 48.875 45.90625 45.5625 41.84375 
Q 43.703125 39.546875 39.796875 37.359375 
Q 44.140625 35.359375 46.625 32.765625 
Q 51.265625 27.875 51.265625 20.0625 
Q 51.265625 10.84375 45.0625 4.421875 
Q 38.875 -2 27.546875 -2 
Q 17.328125 -2 10.265625 3.53125 
Q 3.21875 9.078125 3.21875 19.625 
Q 3.21875 25.828125 6.25 30.34375 
Q 9.28125 34.859375 15.234375 37.25 
z
" id="Helvetica-56"/>
      </defs>
      <g style="fill:#262626;" transform="translate(193.448193 190.664625)scale(0.088 -0.088)">
       <use xlink:href="#Helvetica-48"/>
       <use x="55.615234" xlink:href="#Helvetica-46"/>
       <use x="83.398438" xlink:href="#Helvetica-56"/>
      </g>
     </g>
    </g>
    <g id="xtick_6">
     <g id="line2d_6">
      <g>
       <use style="fill:#262626;stroke:#262626;stroke-width:1.25;" x="230.925943" xlink:href="#m8481999517" y="174.852"/>
      </g>
     </g>
     <g id="text_6">
      <!-- 1.0 -->
      <defs>
       <path d="M 9.578125 49.515625 
L 9.578125 56.25 
Q 19.09375 57.171875 22.84375 59.34375 
Q 26.609375 61.53125 28.46875 69.625 
L 35.40625 69.625 
L 35.40625 0 
L 26.03125 0 
L 26.03125 49.515625 
z
" id="Helvetica-49"/>
      </defs>
      <g style="fill:#262626;" transform="translate(224.809943 190.664625)scale(0.088 -0.088)">
       <use xlink:href="#Helvetica-49"/>
       <use x="55.615234" xlink:href="#Helvetica-46"/>
       <use x="83.398438" xlink:href="#Helvetica-48"/>
      </g>
     </g>
    </g>
   </g>
   <g id="matplotlib.axis_2">
    <g id="ytick_1">
     <g id="line2d_7">
      <defs>
       <path d="M 0 0 
L -6 0 
" id="mb8b4c954f8" style="stroke:#262626;stroke-width:1.25;"/>
      </defs>
      <g>
       <use style="fill:#262626;stroke:#262626;stroke-width:1.25;" x="62.1" xlink:href="#mb8b4c954f8" y="163.882364"/>
      </g>
     </g>
     <g id="text_7">
      <!-- 0.0 -->
      <g style="fill:#262626;" transform="translate(40.368 167.038676)scale(0.088 -0.088)">
       <use xlink:href="#Helvetica-48"/>
       <use x="55.615234" xlink:href="#Helvetica-46"/>
       <use x="83.398438" xlink:href="#Helvetica-48"/>
      </g>
     </g>
    </g>
    <g id="ytick_2">
     <g id="line2d_8">
      <g>
       <use style="fill:#262626;stroke:#262626;stroke-width:1.25;" x="62.1" xlink:href="#mb8b4c954f8" y="142.087415"/>
      </g>
     </g>
     <g id="text_8">
      <!-- 2.5 -->
      <defs>
       <path d="M 12.359375 17.828125 
Q 13.234375 10.296875 19.34375 7.421875 
Q 22.46875 5.953125 26.5625 5.953125 
Q 34.375 5.953125 38.125 10.9375 
Q 41.890625 15.921875 41.890625 21.96875 
Q 41.890625 29.296875 37.421875 33.296875 
Q 32.953125 37.3125 26.703125 37.3125 
Q 22.171875 37.3125 18.921875 35.546875 
Q 15.671875 33.796875 13.375 30.671875 
L 5.765625 31.109375 
L 11.078125 68.75 
L 47.40625 68.75 
L 47.40625 60.25 
L 17.671875 60.25 
L 14.703125 40.828125 
Q 17.140625 42.671875 19.34375 43.609375 
Q 23.25 45.21875 28.375 45.21875 
Q 37.984375 45.21875 44.671875 39.015625 
Q 51.375 32.8125 51.375 23.296875 
Q 51.375 13.375 45.234375 5.796875 
Q 39.109375 -1.765625 25.6875 -1.765625 
Q 17.140625 -1.765625 10.5625 3.046875 
Q 4 7.859375 3.21875 17.828125 
z
" id="Helvetica-53"/>
      </defs>
      <g style="fill:#262626;" transform="translate(40.368 145.243728)scale(0.088 -0.088)">
       <use xlink:href="#Helvetica-50"/>
       <use x="55.615234" xlink:href="#Helvetica-46"/>
       <use x="83.398438" xlink:href="#Helvetica-53"/>
      </g>
     </g>
    </g>
    <g id="ytick_3">
     <g id="line2d_9">
      <g>
       <use style="fill:#262626;stroke:#262626;stroke-width:1.25;" x="62.1" xlink:href="#mb8b4c954f8" y="120.292467"/>
      </g>
     </g>
     <g id="text_9">
      <!-- 5.0 -->
      <g style="fill:#262626;" transform="translate(40.368 123.448779)scale(0.088 -0.088)">
       <use xlink:href="#Helvetica-53"/>
       <use x="55.615234" xlink:href="#Helvetica-46"/>
       <use x="83.398438" xlink:href="#Helvetica-48"/>
      </g>
     </g>
    </g>
    <g id="ytick_4">
     <g id="line2d_10">
      <g>
       <use style="fill:#262626;stroke:#262626;stroke-width:1.25;" x="62.1" xlink:href="#mb8b4c954f8" y="98.497518"/>
      </g>
     </g>
     <g id="text_10">
      <!-- 7.5 -->
      <defs>
       <path d="M 52.296875 68.75 
L 52.296875 61.078125 
Q 48.921875 57.8125 43.328125 49.703125 
Q 37.75 41.609375 33.453125 32.234375 
Q 29.203125 23.09375 27 15.578125 
Q 25.59375 10.75 23.34375 0 
L 13.625 0 
Q 16.9375 20.015625 28.265625 39.84375 
Q 34.96875 51.46875 42.328125 59.90625 
L 3.65625 59.90625 
L 3.65625 68.75 
z
" id="Helvetica-55"/>
      </defs>
      <g style="fill:#262626;" transform="translate(40.368 101.653831)scale(0.088 -0.088)">
       <use xlink:href="#Helvetica-55"/>
       <use x="55.615234" xlink:href="#Helvetica-46"/>
       <use x="83.398438" xlink:href="#Helvetica-53"/>
      </g>
     </g>
    </g>
    <g id="ytick_5">
     <g id="line2d_11">
      <g>
       <use style="fill:#262626;stroke:#262626;stroke-width:1.25;" x="62.1" xlink:href="#mb8b4c954f8" y="76.70257"/>
      </g>
     </g>
     <g id="text_11">
      <!-- 10.0 -->
      <g style="fill:#262626;" transform="translate(35.474375 79.858883)scale(0.088 -0.088)">
       <use xlink:href="#Helvetica-49"/>
       <use x="55.615234" xlink:href="#Helvetica-48"/>
       <use x="111.230469" xlink:href="#Helvetica-46"/>
       <use x="139.013672" xlink:href="#Helvetica-48"/>
      </g>
     </g>
    </g>
    <g id="ytick_6">
     <g id="line2d_12">
      <g>
       <use style="fill:#262626;stroke:#262626;stroke-width:1.25;" x="62.1" xlink:href="#mb8b4c954f8" y="54.907622"/>
      </g>
     </g>
     <g id="text_12">
      <!-- 12.5 -->
      <g style="fill:#262626;" transform="translate(35.474375 58.063934)scale(0.088 -0.088)">
       <use xlink:href="#Helvetica-49"/>
       <use x="55.615234" xlink:href="#Helvetica-50"/>
       <use x="111.230469" xlink:href="#Helvetica-46"/>
       <use x="139.013672" xlink:href="#Helvetica-53"/>
      </g>
     </g>
    </g>
    <g id="text_13">
     <!-- Cumulative number -->
     <defs>
      <path d="M 37.84375 73.6875 
Q 51.46875 73.6875 58.984375 66.5 
Q 66.5 59.328125 67.328125 50.203125 
L 57.859375 50.203125 
Q 56.25 57.125 51.4375 61.171875 
Q 46.625 65.234375 37.9375 65.234375 
Q 27.34375 65.234375 20.828125 57.78125 
Q 14.3125 50.34375 14.3125 34.96875 
Q 14.3125 22.359375 20.1875 14.515625 
Q 26.078125 6.6875 37.75 6.6875 
Q 48.484375 6.6875 54.109375 14.9375 
Q 57.078125 19.28125 58.546875 26.375 
L 68.015625 26.375 
Q 66.75 15.046875 59.625 7.375 
Q 51.078125 -1.859375 36.578125 -1.859375 
Q 24.078125 -1.859375 15.578125 5.71875 
Q 4.390625 15.71875 4.390625 36.625 
Q 4.390625 52.484375 12.796875 62.640625 
Q 21.875 73.6875 37.84375 73.6875 
z
M 35.890625 73.6875 
z
" id="Helvetica-67"/>
      <path d="M 15.234375 52.296875 
L 15.234375 17.578125 
Q 15.234375 13.578125 16.5 11.03125 
Q 18.84375 6.34375 25.25 6.34375 
Q 34.421875 6.34375 37.75 14.546875 
Q 39.546875 18.953125 39.546875 26.609375 
L 39.546875 52.296875 
L 48.34375 52.296875 
L 48.34375 0 
L 40.046875 0 
L 40.140625 7.71875 
Q 38.421875 4.734375 35.890625 2.6875 
Q 30.859375 -1.421875 23.6875 -1.421875 
Q 12.5 -1.421875 8.453125 6.0625 
Q 6.25 10.0625 6.25 16.75 
L 6.25 52.296875 
z
M 27.296875 53.5625 
z
" id="Helvetica-117"/>
      <path d="M 6.453125 52.296875 
L 15.140625 52.296875 
L 15.140625 44.875 
Q 18.265625 48.734375 20.796875 50.484375 
Q 25.140625 53.46875 30.671875 53.46875 
Q 36.921875 53.46875 40.71875 50.390625 
Q 42.875 48.640625 44.625 45.21875 
Q 47.5625 49.421875 51.515625 51.4375 
Q 55.46875 53.46875 60.40625 53.46875 
Q 70.953125 53.46875 74.75 45.84375 
Q 76.8125 41.75 76.8125 34.8125 
L 76.8125 0 
L 67.671875 0 
L 67.671875 36.328125 
Q 67.671875 41.546875 65.0625 43.5 
Q 62.453125 45.453125 58.6875 45.453125 
Q 53.515625 45.453125 49.78125 41.984375 
Q 46.046875 38.53125 46.046875 30.421875 
L 46.046875 0 
L 37.109375 0 
L 37.109375 34.125 
Q 37.109375 39.453125 35.84375 41.890625 
Q 33.84375 45.5625 28.375 45.5625 
Q 23.390625 45.5625 19.3125 41.703125 
Q 15.234375 37.84375 15.234375 27.734375 
L 15.234375 0 
L 6.453125 0 
z
" id="Helvetica-109"/>
      <path d="M 6.6875 71.734375 
L 15.484375 71.734375 
L 15.484375 0 
L 6.6875 0 
z
" id="Helvetica-108"/>
      <path d="M 13.1875 13.921875 
Q 13.1875 10.109375 15.96875 7.90625 
Q 18.75 5.71875 22.5625 5.71875 
Q 27.203125 5.71875 31.546875 7.859375 
Q 38.875 11.421875 38.875 19.53125 
L 38.875 26.609375 
Q 37.25 25.59375 34.703125 24.90625 
Q 32.171875 24.21875 29.734375 23.921875 
L 24.421875 23.25 
Q 19.625 22.609375 17.234375 21.234375 
Q 13.1875 18.953125 13.1875 13.921875 
z
M 34.46875 31.6875 
Q 37.5 32.078125 38.53125 34.234375 
Q 39.109375 35.40625 39.109375 37.59375 
Q 39.109375 42.09375 35.90625 44.109375 
Q 32.71875 46.140625 26.765625 46.140625 
Q 19.875 46.140625 17 42.4375 
Q 15.375 40.375 14.890625 36.328125 
L 6.6875 36.328125 
Q 6.9375 46 12.96875 49.78125 
Q 19 53.5625 26.953125 53.5625 
Q 36.1875 53.5625 41.9375 50.046875 
Q 47.65625 46.53125 47.65625 39.109375 
L 47.65625 8.984375 
Q 47.65625 7.625 48.21875 6.78125 
Q 48.78125 5.953125 50.59375 5.953125 
Q 51.171875 5.953125 51.90625 6.03125 
Q 52.640625 6.109375 53.46875 6.25 
L 53.46875 -0.25 
Q 51.421875 -0.828125 50.34375 -0.96875 
Q 49.265625 -1.125 47.40625 -1.125 
Q 42.875 -1.125 40.828125 2.09375 
Q 39.75 3.8125 39.3125 6.9375 
Q 36.625 3.421875 31.59375 0.828125 
Q 26.5625 -1.765625 20.515625 -1.765625 
Q 13.234375 -1.765625 8.609375 2.65625 
Q 4 7.078125 4 13.71875 
Q 4 21 8.546875 25 
Q 13.09375 29 20.453125 29.9375 
z
M 27.203125 53.5625 
z
" id="Helvetica-97"/>
      <path d="M 8.203125 66.890625 
L 17.09375 66.890625 
L 17.09375 52.296875 
L 25.4375 52.296875 
L 25.4375 45.125 
L 17.09375 45.125 
L 17.09375 10.984375 
Q 17.09375 8.25 18.953125 7.328125 
Q 19.96875 6.78125 22.359375 6.78125 
Q 23 6.78125 23.734375 6.8125 
Q 24.46875 6.84375 25.4375 6.9375 
L 25.4375 0 
Q 23.921875 -0.4375 22.28125 -0.625 
Q 20.65625 -0.828125 18.75 -0.828125 
Q 12.59375 -0.828125 10.390625 2.3125 
Q 8.203125 5.46875 8.203125 10.5 
L 8.203125 45.125 
L 1.125 45.125 
L 1.125 52.296875 
L 8.203125 52.296875 
z
" id="Helvetica-116"/>
      <path d="M 6.453125 52.046875 
L 15.375 52.046875 
L 15.375 0 
L 6.453125 0 
z
M 6.453125 71.734375 
L 15.375 71.734375 
L 15.375 61.765625 
L 6.453125 61.765625 
z
" id="Helvetica-105"/>
      <path d="M 10.75 52.296875 
L 24.703125 9.71875 
L 39.3125 52.296875 
L 48.921875 52.296875 
L 29.203125 0 
L 19.828125 0 
L 0.53125 52.296875 
z
" id="Helvetica-118"/>
      <path d="M 28.21875 53.46875 
Q 33.796875 53.46875 39.015625 50.859375 
Q 44.234375 48.25 46.96875 44.09375 
Q 49.609375 40.140625 50.484375 34.859375 
Q 51.265625 31.25 51.265625 23.34375 
L 12.9375 23.34375 
Q 13.1875 15.375 16.703125 10.5625 
Q 20.21875 5.765625 27.59375 5.765625 
Q 34.46875 5.765625 38.578125 10.296875 
Q 40.921875 12.9375 41.890625 16.40625 
L 50.53125 16.40625 
Q 50.203125 13.53125 48.265625 9.984375 
Q 46.34375 6.453125 43.953125 4.203125 
Q 39.9375 0.296875 34.03125 -1.078125 
Q 30.859375 -1.859375 26.859375 -1.859375 
Q 17.09375 -1.859375 10.296875 5.25 
Q 3.515625 12.359375 3.515625 25.140625 
Q 3.515625 37.75 10.34375 45.609375 
Q 17.1875 53.46875 28.21875 53.46875 
z
M 42.234375 30.328125 
Q 41.703125 36.03125 39.75 39.453125 
Q 36.140625 45.796875 27.6875 45.796875 
Q 21.625 45.796875 17.515625 41.421875 
Q 13.421875 37.0625 13.1875 30.328125 
z
M 27.390625 53.5625 
z
" id="Helvetica-101"/>
      <path id="Helvetica-32"/>
      <path d="M 6.453125 52.296875 
L 14.796875 52.296875 
L 14.796875 44.875 
Q 18.5 49.46875 22.65625 51.46875 
Q 26.8125 53.46875 31.890625 53.46875 
Q 43.015625 53.46875 46.921875 45.703125 
Q 49.078125 41.453125 49.078125 33.546875 
L 49.078125 0 
L 40.140625 0 
L 40.140625 32.953125 
Q 40.140625 37.75 38.71875 40.671875 
Q 36.375 45.5625 30.21875 45.5625 
Q 27.09375 45.5625 25.09375 44.921875 
Q 21.484375 43.84375 18.75 40.625 
Q 16.546875 38.03125 15.890625 35.265625 
Q 15.234375 32.515625 15.234375 27.390625 
L 15.234375 0 
L 6.453125 0 
z
M 27.09375 53.5625 
z
" id="Helvetica-110"/>
      <path d="M 5.765625 71.96875 
L 14.3125 71.96875 
L 14.3125 45.953125 
Q 17.1875 49.703125 21.1875 51.671875 
Q 25.203125 53.65625 29.890625 53.65625 
Q 39.65625 53.65625 45.734375 46.9375 
Q 51.8125 40.234375 51.8125 27.15625 
Q 51.8125 14.75 45.796875 6.546875 
Q 39.796875 -1.65625 29.15625 -1.65625 
Q 23.1875 -1.65625 19.09375 1.21875 
Q 16.65625 2.9375 13.875 6.6875 
L 13.875 0 
L 5.765625 0 
z
M 28.609375 6.109375 
Q 35.75 6.109375 39.28125 11.765625 
Q 42.828125 17.4375 42.828125 26.703125 
Q 42.828125 34.96875 39.28125 40.375 
Q 35.75 45.796875 28.859375 45.796875 
Q 22.859375 45.796875 18.328125 41.359375 
Q 13.8125 36.921875 13.8125 26.703125 
Q 13.8125 19.34375 15.671875 14.75 
Q 19.140625 6.109375 28.609375 6.109375 
z
" id="Helvetica-98"/>
      <path d="M 6.6875 52.296875 
L 15.046875 52.296875 
L 15.046875 43.265625 
Q 16.0625 45.90625 20.0625 49.6875 
Q 24.078125 53.46875 29.296875 53.46875 
Q 29.546875 53.46875 30.125 53.421875 
Q 30.71875 53.375 32.125 53.21875 
L 32.125 43.953125 
Q 31.34375 44.09375 30.6875 44.140625 
Q 30.03125 44.1875 29.25 44.1875 
Q 22.609375 44.1875 19.046875 39.90625 
Q 15.484375 35.640625 15.484375 30.078125 
L 15.484375 0 
L 6.6875 0 
z
" id="Helvetica-114"/>
     </defs>
     <g style="fill:#262626;" transform="translate(8.703775 145.80125)rotate(-90)scale(0.096 -0.096)">
      <use xlink:href="#Helvetica-67"/>
      <use x="72.216797" xlink:href="#Helvetica-117"/>
      <use x="127.832031" xlink:href="#Helvetica-109"/>
      <use x="211.132812" xlink:href="#Helvetica-117"/>
      <use x="266.748047" xlink:href="#Helvetica-108"/>
      <use x="288.964844" xlink:href="#Helvetica-97"/>
      <use x="344.580078" xlink:href="#Helvetica-116"/>
      <use x="372.363281" xlink:href="#Helvetica-105"/>
      <use x="394.580078" xlink:href="#Helvetica-118"/>
      <use x="444.580078" xlink:href="#Helvetica-101"/>
      <use x="500.195312" xlink:href="#Helvetica-32"/>
      <use x="527.978516" xlink:href="#Helvetica-110"/>
      <use x="583.59375" xlink:href="#Helvetica-117"/>
      <use x="639.208984" xlink:href="#Helvetica-109"/>
      <use x="722.509766" xlink:href="#Helvetica-98"/>
      <use x="778.125" xlink:href="#Helvetica-101"/>
      <use x="833.740234" xlink:href="#Helvetica-114"/>
     </g>
     <!-- of differentially expressed genes -->
     <defs>
      <path d="M 27.203125 5.671875 
Q 35.9375 5.671875 39.1875 12.28125 
Q 42.4375 18.890625 42.4375 27 
Q 42.4375 34.328125 40.09375 38.921875 
Q 36.375 46.140625 27.296875 46.140625 
Q 19.234375 46.140625 15.578125 39.984375 
Q 11.921875 33.84375 11.921875 25.140625 
Q 11.921875 16.796875 15.578125 11.234375 
Q 19.234375 5.671875 27.203125 5.671875 
z
M 27.546875 53.8125 
Q 37.640625 53.8125 44.625 47.0625 
Q 51.609375 40.328125 51.609375 27.25 
Q 51.609375 14.59375 45.453125 6.34375 
Q 39.3125 -1.90625 26.375 -1.90625 
Q 15.578125 -1.90625 9.21875 5.390625 
Q 2.875 12.703125 2.875 25 
Q 2.875 38.1875 9.5625 46 
Q 16.265625 53.8125 27.546875 53.8125 
z
M 27.25 53.5625 
z
" id="Helvetica-111"/>
      <path d="M 8.640625 60.25 
Q 8.84375 65.71875 10.546875 68.265625 
Q 13.625 72.75 22.40625 72.75 
Q 23.25 72.75 24.125 72.703125 
Q 25 72.65625 26.125 72.5625 
L 26.125 64.546875 
Q 24.75 64.65625 24.140625 64.671875 
Q 23.53125 64.703125 23 64.703125 
Q 19 64.703125 18.21875 62.625 
Q 17.4375 60.546875 17.4375 52.046875 
L 26.125 52.046875 
L 26.125 45.125 
L 17.328125 45.125 
L 17.328125 0 
L 8.640625 0 
L 8.640625 45.125 
L 1.375 45.125 
L 1.375 52.046875 
L 8.640625 52.046875 
L 8.640625 60.25 
z
" id="Helvetica-102"/>
      <path d="M 12.015625 25.53125 
Q 12.015625 17.140625 15.578125 11.46875 
Q 19.140625 5.8125 27 5.8125 
Q 33.109375 5.8125 37.03125 11.0625 
Q 40.96875 16.3125 40.96875 26.125 
Q 40.96875 36.03125 36.90625 40.796875 
Q 32.859375 45.5625 26.90625 45.5625 
Q 20.265625 45.5625 16.140625 40.484375 
Q 12.015625 35.40625 12.015625 25.53125 
z
M 25.25 53.21875 
Q 31.25 53.21875 35.296875 50.6875 
Q 37.640625 49.21875 40.625 45.5625 
L 40.625 71.96875 
L 49.078125 71.96875 
L 49.078125 0 
L 41.15625 0 
L 41.15625 7.28125 
Q 38.09375 2.4375 33.890625 0.28125 
Q 29.6875 -1.859375 24.265625 -1.859375 
Q 15.53125 -1.859375 9.125 5.484375 
Q 2.734375 12.84375 2.734375 25.046875 
Q 2.734375 36.46875 8.5625 44.84375 
Q 14.40625 53.21875 25.25 53.21875 
z
" id="Helvetica-100"/>
      <path d="M 39.109375 52.296875 
L 48.828125 52.296875 
Q 46.96875 47.265625 40.578125 29.34375 
Q 35.796875 15.875 32.5625 7.375 
Q 24.953125 -12.640625 21.828125 -17.03125 
Q 18.703125 -21.4375 11.078125 -21.4375 
Q 9.234375 -21.4375 8.234375 -21.28125 
Q 7.234375 -21.140625 5.765625 -20.75 
L 5.765625 -12.75 
Q 8.0625 -13.375 9.078125 -13.515625 
Q 10.109375 -13.671875 10.890625 -13.671875 
Q 13.328125 -13.671875 14.46875 -12.859375 
Q 15.625 -12.0625 16.40625 -10.890625 
Q 16.65625 -10.5 18.15625 -6.875 
Q 19.671875 -3.265625 20.359375 -1.515625 
L 1.03125 52.296875 
L 10.984375 52.296875 
L 25 9.71875 
z
M 24.953125 53.5625 
z
" id="Helvetica-121"/>
      <path d="M 1.46875 52.296875 
L 12.84375 52.296875 
L 24.859375 33.890625 
L 37.015625 52.296875 
L 47.703125 52.046875 
L 30.078125 26.8125 
L 48.484375 0 
L 37.25 0 
L 24.265625 19.625 
L 11.671875 0 
L 0.53125 0 
L 18.953125 26.8125 
z
" id="Helvetica-120"/>
      <path d="M 28.515625 5.90625 
Q 34.671875 5.90625 38.75 11.0625 
Q 42.828125 16.21875 42.828125 26.46875 
Q 42.828125 32.71875 41.015625 37.203125 
Q 37.59375 45.84375 28.515625 45.84375 
Q 19.390625 45.84375 16.015625 36.71875 
Q 14.203125 31.84375 14.203125 24.3125 
Q 14.203125 18.265625 16.015625 14.015625 
Q 19.4375 5.90625 28.515625 5.90625 
z
M 5.765625 52.046875 
L 14.3125 52.046875 
L 14.3125 45.125 
Q 16.9375 48.6875 20.0625 50.640625 
Q 24.515625 53.5625 30.515625 53.5625 
Q 39.40625 53.5625 45.609375 46.75 
Q 51.8125 39.9375 51.8125 27.296875 
Q 51.8125 10.203125 42.875 2.875 
Q 37.203125 -1.765625 29.6875 -1.765625 
Q 23.78125 -1.765625 19.78125 0.828125 
Q 17.4375 2.296875 14.546875 5.859375 
L 14.546875 -20.84375 
L 5.765625 -20.84375 
z
" id="Helvetica-112"/>
      <path d="M 11.671875 16.40625 
Q 12.0625 12.015625 13.875 9.671875 
Q 17.1875 5.421875 25.390625 5.421875 
Q 30.28125 5.421875 33.984375 7.546875 
Q 37.703125 9.671875 37.703125 14.109375 
Q 37.703125 17.484375 34.71875 19.234375 
Q 32.8125 20.3125 27.203125 21.734375 
L 20.21875 23.484375 
Q 13.53125 25.140625 10.359375 27.203125 
Q 4.6875 30.765625 4.6875 37.0625 
Q 4.6875 44.484375 10.03125 49.0625 
Q 15.375 53.65625 24.421875 53.65625 
Q 36.234375 53.65625 41.453125 46.734375 
Q 44.734375 42.328125 44.625 37.25 
L 36.328125 37.25 
Q 36.078125 40.234375 34.234375 42.671875 
Q 31.203125 46.140625 23.734375 46.140625 
Q 18.75 46.140625 16.1875 44.234375 
Q 13.625 42.328125 13.625 39.203125 
Q 13.625 35.796875 17 33.734375 
Q 18.953125 32.515625 22.75 31.59375 
L 28.5625 30.171875 
Q 38.03125 27.875 41.265625 25.734375 
Q 46.390625 22.359375 46.390625 15.140625 
Q 46.390625 8.15625 41.09375 3.078125 
Q 35.796875 -2 24.953125 -2 
Q 13.28125 -2 8.421875 3.296875 
Q 3.5625 8.59375 3.21875 16.40625 
z
M 24.65625 53.5625 
z
" id="Helvetica-115"/>
      <path d="M 24.90625 53.21875 
Q 31.0625 53.21875 35.640625 50.203125 
Q 38.140625 48.484375 40.71875 45.21875 
L 40.71875 51.8125 
L 48.828125 51.8125 
L 48.828125 4.25 
Q 48.828125 -5.71875 45.90625 -11.46875 
Q 40.4375 -22.125 25.25 -22.125 
Q 16.796875 -22.125 11.03125 -18.328125 
Q 5.28125 -14.546875 4.59375 -6.5 
L 13.53125 -6.5 
Q 14.15625 -10.015625 16.0625 -11.921875 
Q 19.046875 -14.84375 25.4375 -14.84375 
Q 35.546875 -14.84375 38.671875 -7.71875 
Q 40.53125 -3.515625 40.375 7.28125 
Q 37.75 3.265625 34.03125 1.3125 
Q 30.328125 -0.640625 24.21875 -0.640625 
Q 15.71875 -0.640625 9.34375 5.390625 
Q 2.984375 11.421875 2.984375 25.34375 
Q 2.984375 38.484375 9.40625 45.84375 
Q 15.828125 53.21875 24.90625 53.21875 
z
M 40.71875 26.375 
Q 40.71875 36.078125 36.71875 40.765625 
Q 32.71875 45.453125 26.515625 45.453125 
Q 17.234375 45.453125 13.8125 36.765625 
Q 12.015625 32.125 12.015625 24.609375 
Q 12.015625 15.765625 15.59375 11.15625 
Q 19.1875 6.546875 25.25 6.546875 
Q 34.71875 6.546875 38.578125 15.09375 
Q 40.71875 19.921875 40.71875 26.375 
z
M 25.921875 53.5625 
z
" id="Helvetica-103"/>
     </defs>
     <g style="fill:#262626;" transform="translate(19.085575 173.02175)rotate(-90)scale(0.096 -0.096)">
      <use xlink:href="#Helvetica-111"/>
      <use x="55.615234" xlink:href="#Helvetica-102"/>
      <use x="83.398438" xlink:href="#Helvetica-32"/>
      <use x="111.181641" xlink:href="#Helvetica-100"/>
      <use x="166.796875" xlink:href="#Helvetica-105"/>
      <use x="189.013672" xlink:href="#Helvetica-102"/>
      <use x="216.796875" xlink:href="#Helvetica-102"/>
      <use x="244.580078" xlink:href="#Helvetica-101"/>
      <use x="300.195312" xlink:href="#Helvetica-114"/>
      <use x="333.496094" xlink:href="#Helvetica-101"/>
      <use x="389.111328" xlink:href="#Helvetica-110"/>
      <use x="444.726562" xlink:href="#Helvetica-116"/>
      <use x="472.509766" xlink:href="#Helvetica-105"/>
      <use x="494.726562" xlink:href="#Helvetica-97"/>
      <use x="550.341797" xlink:href="#Helvetica-108"/>
      <use x="572.558594" xlink:href="#Helvetica-108"/>
      <use x="594.775391" xlink:href="#Helvetica-121"/>
      <use x="644.775391" xlink:href="#Helvetica-32"/>
      <use x="672.558594" xlink:href="#Helvetica-101"/>
      <use x="728.173828" xlink:href="#Helvetica-120"/>
      <use x="778.173828" xlink:href="#Helvetica-112"/>
      <use x="833.789062" xlink:href="#Helvetica-114"/>
      <use x="867.089844" xlink:href="#Helvetica-101"/>
      <use x="922.705078" xlink:href="#Helvetica-115"/>
      <use x="972.705078" xlink:href="#Helvetica-115"/>
      <use x="1022.705078" xlink:href="#Helvetica-101"/>
      <use x="1078.320312" xlink:href="#Helvetica-100"/>
      <use x="1133.935547" xlink:href="#Helvetica-32"/>
      <use x="1161.71875" xlink:href="#Helvetica-103"/>
      <use x="1217.333984" xlink:href="#Helvetica-101"/>
      <use x="1272.949219" xlink:href="#Helvetica-110"/>
      <use x="1328.564453" xlink:href="#Helvetica-101"/>
      <use x="1384.179688" xlink:href="#Helvetica-115"/>
     </g>
     <!-- thousands -->
     <defs>
      <path d="M 6.453125 71.96875 
L 15.234375 71.96875 
L 15.234375 45.21875 
Q 18.359375 49.171875 20.84375 50.78125 
Q 25.09375 53.5625 31.453125 53.5625 
Q 42.828125 53.5625 46.875 45.609375 
Q 49.078125 41.265625 49.078125 33.546875 
L 49.078125 0 
L 40.046875 0 
L 40.046875 32.953125 
Q 40.046875 38.71875 38.578125 41.40625 
Q 36.1875 45.703125 29.59375 45.703125 
Q 24.125 45.703125 19.671875 41.9375 
Q 15.234375 38.1875 15.234375 27.734375 
L 15.234375 0 
L 6.453125 0 
z
" id="Helvetica-104"/>
     </defs>
     <g style="fill:#262626;" transform="translate(29.473375 126.335)rotate(-90)scale(0.096 -0.096)">
      <use xlink:href="#Helvetica-116"/>
      <use x="27.783203" xlink:href="#Helvetica-104"/>
      <use x="83.398438" xlink:href="#Helvetica-111"/>
      <use x="139.013672" xlink:href="#Helvetica-117"/>
      <use x="194.628906" xlink:href="#Helvetica-115"/>
      <use x="244.628906" xlink:href="#Helvetica-97"/>
      <use x="300.244141" xlink:href="#Helvetica-110"/>
      <use x="355.859375" xlink:href="#Helvetica-100"/>
      <use x="411.474609" xlink:href="#Helvetica-115"/>
     </g>
    </g>
   </g>
   <g id="line2d_13">
    <path clip-path="url(#p1a9a5e7f6c)" d="M 74.901235 162.653129 
L 75.685279 162.382871 
L 77.253367 162.069024 
L 78.03741 161.877228 
L 78.821454 161.807485 
L 80.389542 161.476201 
L 81.957629 161.249534 
L 84.30976 160.865943 
L 85.877848 160.709019 
L 86.661892 160.525942 
L 89.014023 160.27312 
L 90.582111 160.072607 
L 92.934242 159.723887 
L 94.502329 159.566964 
L 96.070417 159.314142 
L 98.422548 159.052603 
L 99.990636 158.76491 
L 102.342767 158.564396 
L 103.126811 158.50337 
L 105.478942 157.94542 
L 111.751292 156.960288 
L 113.319379 156.690031 
L 114.103423 156.585415 
L 115.671511 156.114644 
L 117.239598 155.870541 
L 118.807686 155.347462 
L 119.591729 155.303872 
L 121.943861 154.841819 
L 125.86408 154.004893 
L 126.648123 153.725918 
L 129.784298 153.246429 
L 132.13643 152.923864 
L 132.920473 152.662324 
L 133.704517 152.531555 
L 136.840692 151.642321 
L 138.40878 151.328473 
L 141.544955 151.04078 
L 143.113042 150.735651 
L 146.249217 149.959751 
L 148.601348 148.704362 
L 149.385392 148.6259 
L 151.737523 147.666922 
L 152.521567 147.448973 
L 154.089655 146.734098 
L 154.873699 146.585893 
L 156.441786 145.958198 
L 157.22583 145.8623 
L 158.009874 145.478709 
L 158.793917 145.243324 
L 159.577961 144.824861 
L 160.362005 144.633065 
L 162.714136 143.769985 
L 164.282224 142.697674 
L 166.634355 141.869466 
L 167.418399 141.233053 
L 168.202442 141.084848 
L 169.77053 140.518179 
L 170.554574 139.960228 
L 172.122661 139.254072 
L 173.690749 138.931507 
L 174.474792 138.722275 
L 175.258836 138.338684 
L 179.179055 137.187911 
L 179.963099 136.778166 
L 180.747142 136.089445 
L 181.531186 135.880214 
L 182.31523 135.20893 
L 183.099274 134.982262 
L 184.667361 133.962258 
L 187.019493 132.610972 
L 187.803536 132.244817 
L 188.58758 131.71302 
L 191.723755 130.169937 
L 192.507799 129.577115 
L 194.85993 128.548393 
L 195.643974 128.182238 
L 196.428018 127.676595 
L 197.212061 127.327876 
L 197.996105 126.743772 
L 200.348236 125.549408 
L 202.700368 124.285301 
L 203.484411 124.006326 
L 204.268455 123.404785 
L 205.052499 122.611449 
L 205.836543 122.149396 
L 207.40463 121.077085 
L 208.188674 120.676058 
L 208.972718 119.778106 
L 211.324849 118.958616 
L 213.67698 116.892455 
L 215.245068 115.898605 
L 216.813155 114.146291 
L 218.381243 112.85603 
L 219.94933 112.053976 
L 221.517418 109.53448 
L 223.869549 107.450883 
L 225.437637 106.526777 
L 226.22168 105.933955 
L 227.005724 105.498056 
L 228.573812 103.614972 
L 229.357855 101.932402 
L 230.141899 100.851373 
L 230.925943 100.040601 
L 230.925943 100.040601 
" style="fill:none;stroke:#bd9020;stroke-linecap:round;stroke-width:0.8;"/>
    <defs>
     <path d="M 0 1 
C 0.265203 1 0.51958 0.894634 0.707107 0.707107 
C 0.894634 0.51958 1 0.265203 1 0 
C 1 -0.265203 0.894634 -0.51958 0.707107 -0.707107 
C 0.51958 -0.894634 0.265203 -1 0 -1 
C -0.265203 -1 -0.51958 -0.894634 -0.707107 -0.707107 
C -0.894634 -0.51958 -1 -0.265203 -1 0 
C -1 0.265203 -0.894634 0.51958 -0.707107 0.707107 
C -0.51958 0.894634 -0.265203 1 0 1 
z
" id="mcbfa05346f" style="stroke:#bd9020;"/>
    </defs>
    <g clip-path="url(#p1a9a5e7f6c)">
     <use style="fill:#bd9020;stroke:#bd9020;" x="74.901235" xlink:href="#mcbfa05346f" y="162.653129"/>
     <use style="fill:#bd9020;stroke:#bd9020;" x="82.741673" xlink:href="#mcbfa05346f" y="161.101328"/>
     <use style="fill:#bd9020;stroke:#bd9020;" x="90.582111" xlink:href="#mcbfa05346f" y="160.072607"/>
     <use style="fill:#bd9020;stroke:#bd9020;" x="98.422548" xlink:href="#mcbfa05346f" y="159.052603"/>
     <use style="fill:#bd9020;stroke:#bd9020;" x="106.262986" xlink:href="#mcbfa05346f" y="157.832086"/>
     <use style="fill:#bd9020;stroke:#bd9020;" x="114.103423" xlink:href="#mcbfa05346f" y="156.585415"/>
     <use style="fill:#bd9020;stroke:#bd9020;" x="121.943861" xlink:href="#mcbfa05346f" y="154.841819"/>
     <use style="fill:#bd9020;stroke:#bd9020;" x="129.784298" xlink:href="#mcbfa05346f" y="153.246429"/>
     <use style="fill:#bd9020;stroke:#bd9020;" x="137.624736" xlink:href="#mcbfa05346f" y="151.441807"/>
     <use style="fill:#bd9020;stroke:#bd9020;" x="145.465173" xlink:href="#mcbfa05346f" y="150.064366"/>
     <use style="fill:#bd9020;stroke:#bd9020;" x="153.305611" xlink:href="#mcbfa05346f" y="147.074099"/>
     <use style="fill:#bd9020;stroke:#bd9020;" x="161.146049" xlink:href="#mcbfa05346f" y="144.3105"/>
     <use style="fill:#bd9020;stroke:#bd9020;" x="168.986486" xlink:href="#mcbfa05346f" y="140.753564"/>
     <use style="fill:#bd9020;stroke:#bd9020;" x="176.826924" xlink:href="#mcbfa05346f" y="137.867913"/>
     <use style="fill:#bd9020;stroke:#bd9020;" x="184.667361" xlink:href="#mcbfa05346f" y="133.962258"/>
     <use style="fill:#bd9020;stroke:#bd9020;" x="192.507799" xlink:href="#mcbfa05346f" y="129.577115"/>
     <use style="fill:#bd9020;stroke:#bd9020;" x="200.348236" xlink:href="#mcbfa05346f" y="125.549408"/>
     <use style="fill:#bd9020;stroke:#bd9020;" x="208.188674" xlink:href="#mcbfa05346f" y="120.676058"/>
     <use style="fill:#bd9020;stroke:#bd9020;" x="216.029112" xlink:href="#mcbfa05346f" y="115.018089"/>
     <use style="fill:#bd9020;stroke:#bd9020;" x="223.869549" xlink:href="#mcbfa05346f" y="107.450883"/>
    </g>
   </g>
   <g id="line2d_14">
    <path clip-path="url(#p1a9a5e7f6c)" d="M 74.901235 160.508506 
L 75.685279 159.575682 
L 76.469323 158.886961 
L 78.03741 157.265417 
L 78.821454 156.759775 
L 80.389542 155.95772 
L 85.877848 153.185403 
L 86.661892 152.915146 
L 87.445935 152.383349 
L 89.014023 151.868988 
L 95.286373 148.887439 
L 96.070417 148.547438 
L 97.638504 148.128975 
L 99.206592 147.335639 
L 99.990636 147.013074 
L 100.774679 146.446405 
L 112.535336 141.389977 
L 113.319379 140.884334 
L 114.103423 140.666385 
L 118.023642 139.001251 
L 119.591729 138.687403 
L 125.080036 136.150471 
L 125.86408 135.967394 
L 127.432167 135.261237 
L 130.568342 134.206362 
L 132.13643 133.290974 
L 133.704517 132.602254 
L 135.272605 132.253535 
L 136.840692 131.521224 
L 138.40878 130.640708 
L 139.192823 130.422759 
L 140.760911 129.524807 
L 143.113042 128.21711 
L 143.897086 127.467364 
L 145.465173 126.883259 
L 146.249217 126.464796 
L 148.601348 125.558126 
L 158.793917 121.103239 
L 161.146049 119.743234 
L 162.714136 119.185283 
L 164.282224 118.313486 
L 165.850311 117.694509 
L 166.634355 117.049379 
L 168.202442 116.168863 
L 169.77053 115.113987 
L 170.554574 114.721678 
L 171.338617 114.041676 
L 173.690749 112.882184 
L 175.258836 112.106284 
L 176.04288 111.452436 
L 176.826924 111.156024 
L 180.747142 108.941658 
L 183.099274 107.564217 
L 184.667361 106.884215 
L 185.451405 106.369854 
L 186.235449 105.681133 
L 187.019493 105.210363 
L 187.803536 104.913951 
L 188.58758 104.103179 
L 190.155668 103.118048 
L 191.723755 102.11548 
L 192.507799 101.278554 
L 194.075886 100.371884 
L 195.643974 98.83752 
L 196.428018 98.297005 
L 197.212061 97.904696 
L 199.564193 95.829817 
L 200.348236 95.446226 
L 202.700368 93.955451 
L 205.052499 92.482113 
L 207.40463 90.198002 
L 208.188674 89.570308 
L 209.756761 87.547736 
L 211.324849 86.553887 
L 212.108893 85.612345 
L 212.892936 84.845163 
L 213.67698 84.51388 
L 217.597199 81.227201 
L 218.381243 79.684119 
L 219.165287 78.733859 
L 219.94933 78.228216 
L 220.733374 77.879497 
L 223.085505 74.897948 
L 224.653593 73.912817 
L 226.22168 72.587684 
L 227.005724 71.82922 
L 227.789768 70.83537 
L 230.925943 67.635872 
L 230.925943 67.635872 
" style="fill:none;stroke:#bd9020;stroke-linecap:round;stroke-width:0.8;"/>
    <defs>
     <path d="M -2 2 
L 2 -2 
M -2 -2 
L 2 2 
" id="mdc941b17c8" style="stroke:#bd9020;"/>
    </defs>
    <g clip-path="url(#p1a9a5e7f6c)">
     <use style="fill:#bd9020;stroke:#bd9020;" x="74.901235" xlink:href="#mdc941b17c8" y="160.508506"/>
     <use style="fill:#bd9020;stroke:#bd9020;" x="82.741673" xlink:href="#mdc941b17c8" y="154.676177"/>
     <use style="fill:#bd9020;stroke:#bd9020;" x="90.582111" xlink:href="#mdc941b17c8" y="151.145396"/>
     <use style="fill:#bd9020;stroke:#bd9020;" x="98.422548" xlink:href="#mdc941b17c8" y="147.67564"/>
     <use style="fill:#bd9020;stroke:#bd9020;" x="106.262986" xlink:href="#mdc941b17c8" y="144.162294"/>
     <use style="fill:#bd9020;stroke:#bd9020;" x="114.103423" xlink:href="#mdc941b17c8" y="140.666385"/>
     <use style="fill:#bd9020;stroke:#bd9020;" x="121.943861" xlink:href="#mdc941b17c8" y="137.510476"/>
     <use style="fill:#bd9020;stroke:#bd9020;" x="129.784298" xlink:href="#mdc941b17c8" y="134.528927"/>
     <use style="fill:#bd9020;stroke:#bd9020;" x="137.624736" xlink:href="#mdc941b17c8" y="131.059171"/>
     <use style="fill:#bd9020;stroke:#bd9020;" x="145.465173" xlink:href="#mdc941b17c8" y="126.883259"/>
     <use style="fill:#bd9020;stroke:#bd9020;" x="153.305611" xlink:href="#mdc941b17c8" y="123.561709"/>
     <use style="fill:#bd9020;stroke:#bd9020;" x="161.146049" xlink:href="#mdc941b17c8" y="119.743234"/>
     <use style="fill:#bd9020;stroke:#bd9020;" x="168.986486" xlink:href="#mdc941b17c8" y="115.602194"/>
     <use style="fill:#bd9020;stroke:#bd9020;" x="176.826924" xlink:href="#mdc941b17c8" y="111.156024"/>
     <use style="fill:#bd9020;stroke:#bd9020;" x="184.667361" xlink:href="#mdc941b17c8" y="106.884215"/>
     <use style="fill:#bd9020;stroke:#bd9020;" x="192.507799" xlink:href="#mdc941b17c8" y="101.278554"/>
     <use style="fill:#bd9020;stroke:#bd9020;" x="200.348236" xlink:href="#mdc941b17c8" y="95.446226"/>
     <use style="fill:#bd9020;stroke:#bd9020;" x="208.188674" xlink:href="#mdc941b17c8" y="89.570308"/>
     <use style="fill:#bd9020;stroke:#bd9020;" x="216.029112" xlink:href="#mdc941b17c8" y="82.517462"/>
     <use style="fill:#bd9020;stroke:#bd9020;" x="223.869549" xlink:href="#mdc941b17c8" y="74.435895"/>
    </g>
   </g>
   <g id="line2d_15">
    <path clip-path="url(#p1a9a5e7f6c)" d="M 74.901235 163.324413 
L 76.469323 163.115181 
L 82.741673 162.452615 
L 89.014023 162.051588 
L 90.582111 161.9121 
L 105.478942 160.979277 
L 108.615117 160.717737 
L 110.183204 160.552096 
L 111.751292 160.430044 
L 112.535336 160.412608 
L 113.319379 160.255684 
L 122.727905 159.636708 
L 127.432167 159.357732 
L 129.784298 159.235681 
L 132.13643 158.860808 
L 133.704517 158.651576 
L 135.272605 158.477216 
L 139.192823 158.154651 
L 144.68113 157.622854 
L 147.033261 157.483367 
L 147.817305 157.317725 
L 148.601348 157.274135 
L 149.385392 156.99516 
L 150.95348 156.751057 
L 153.305611 156.550543 
L 154.089655 156.323876 
L 155.657742 156.158234 
L 162.714136 155.216692 
L 164.282224 154.859255 
L 165.066267 154.728485 
L 166.634355 154.187971 
L 168.202442 154.039765 
L 168.986486 153.612584 
L 173.690749 152.740786 
L 176.04288 152.540272 
L 176.826924 152.383349 
L 177.610967 151.99104 
L 178.395011 151.94745 
L 179.179055 151.694628 
L 181.531186 151.380781 
L 183.099274 151.005908 
L 185.451405 149.715647 
L 189.371624 148.512566 
L 194.075886 147.405383 
L 197.212061 146.978202 
L 197.996105 146.402815 
L 198.780149 144.798707 
L 199.564193 144.720245 
L 203.484411 142.723828 
L 204.268455 142.54075 
L 205.836543 141.642798 
L 206.620586 140.762282 
L 208.188674 139.689971 
L 208.972718 139.515611 
L 209.756761 138.338684 
L 210.540805 137.545348 
L 211.324849 136.438165 
L 212.108893 136.220215 
L 212.892936 133.857643 
L 213.67698 132.48892 
L 215.245068 130.248399 
L 216.029112 129.995578 
L 216.813155 129.411473 
L 217.597199 127.728903 
L 218.381243 126.421206 
L 219.94933 122.471962 
L 220.733374 121.425804 
L 221.517418 118.81041 
L 222.301462 118.095536 
L 223.085505 115.288347 
L 223.869549 114.137573 
L 224.653593 111.792437 
L 225.437637 107.825756 
L 226.22168 105.088311 
L 227.005724 99.212393 
L 227.789768 90.834415 
L 228.573812 88.515432 
L 229.357855 84.845163 
L 230.141899 76.310261 
L 230.925943 69.954854 
L 230.925943 69.954854 
" style="fill:none;stroke:#bd9020;stroke-linecap:round;stroke-width:0.8;"/>
    <defs>
     <path d="M 0 -2 
L -2 2 
L 2 2 
z
" id="mfe5fe7638f" style="stroke:#bd9020;stroke-linejoin:miter;"/>
    </defs>
    <g clip-path="url(#p1a9a5e7f6c)">
     <use style="fill:#bd9020;stroke:#bd9020;stroke-linejoin:miter;" x="74.901235" xlink:href="#mfe5fe7638f" y="163.324413"/>
     <use style="fill:#bd9020;stroke:#bd9020;stroke-linejoin:miter;" x="82.741673" xlink:href="#mfe5fe7638f" y="162.452615"/>
     <use style="fill:#bd9020;stroke:#bd9020;stroke-linejoin:miter;" x="90.582111" xlink:href="#mfe5fe7638f" y="161.9121"/>
     <use style="fill:#bd9020;stroke:#bd9020;stroke-linejoin:miter;" x="98.422548" xlink:href="#mfe5fe7638f" y="161.537227"/>
     <use style="fill:#bd9020;stroke:#bd9020;stroke-linejoin:miter;" x="106.262986" xlink:href="#mfe5fe7638f" y="160.926969"/>
     <use style="fill:#bd9020;stroke:#bd9020;stroke-linejoin:miter;" x="114.103423" xlink:href="#mfe5fe7638f" y="160.212094"/>
     <use style="fill:#bd9020;stroke:#bd9020;stroke-linejoin:miter;" x="121.943861" xlink:href="#mfe5fe7638f" y="159.689016"/>
     <use style="fill:#bd9020;stroke:#bd9020;stroke-linejoin:miter;" x="129.784298" xlink:href="#mfe5fe7638f" y="159.235681"/>
     <use style="fill:#bd9020;stroke:#bd9020;stroke-linejoin:miter;" x="137.624736" xlink:href="#mfe5fe7638f" y="158.285421"/>
     <use style="fill:#bd9020;stroke:#bd9020;stroke-linejoin:miter;" x="145.465173" xlink:href="#mfe5fe7638f" y="157.605419"/>
     <use style="fill:#bd9020;stroke:#bd9020;stroke-linejoin:miter;" x="153.305611" xlink:href="#mfe5fe7638f" y="156.550543"/>
     <use style="fill:#bd9020;stroke:#bd9020;stroke-linejoin:miter;" x="161.146049" xlink:href="#mfe5fe7638f" y="155.39977"/>
     <use style="fill:#bd9020;stroke:#bd9020;stroke-linejoin:miter;" x="168.986486" xlink:href="#mfe5fe7638f" y="153.612584"/>
     <use style="fill:#bd9020;stroke:#bd9020;stroke-linejoin:miter;" x="176.826924" xlink:href="#mfe5fe7638f" y="152.383349"/>
     <use style="fill:#bd9020;stroke:#bd9020;stroke-linejoin:miter;" x="184.667361" xlink:href="#mfe5fe7638f" y="150.081802"/>
     <use style="fill:#bd9020;stroke:#bd9020;stroke-linejoin:miter;" x="192.507799" xlink:href="#mfe5fe7638f" y="147.71923"/>
     <use style="fill:#bd9020;stroke:#bd9020;stroke-linejoin:miter;" x="200.348236" xlink:href="#mfe5fe7638f" y="144.301782"/>
     <use style="fill:#bd9020;stroke:#bd9020;stroke-linejoin:miter;" x="208.188674" xlink:href="#mfe5fe7638f" y="139.689971"/>
     <use style="fill:#bd9020;stroke:#bd9020;stroke-linejoin:miter;" x="216.029112" xlink:href="#mfe5fe7638f" y="129.995578"/>
     <use style="fill:#bd9020;stroke:#bd9020;stroke-linejoin:miter;" x="223.869549" xlink:href="#mfe5fe7638f" y="114.137573"/>
    </g>
   </g>
   <g id="patch_3">
    <path d="M 62.1 169.852 
L 62.1 38.52 
" style="fill:none;stroke:#262626;stroke-linecap:square;stroke-linejoin:miter;stroke-width:1.25;"/>
   </g>
   <g id="patch_4">
    <path d="M 67.1 174.852 
L 238.727178 174.852 
" style="fill:none;stroke:#262626;stroke-linecap:square;stroke-linejoin:miter;stroke-width:1.25;"/>
   </g>
   <g id="text_14">
    <!-- a -->
    <defs>
     <path d="M 35.84375 25.875 
Q 34.515625 25.046875 33.171875 24.53125 
Q 31.84375 24.03125 29.5 23.578125 
L 26.375 23 
Q 21.96875 22.21875 20.0625 21.09375 
Q 16.84375 19.1875 16.84375 15.1875 
Q 16.84375 11.625 18.8125 10.03125 
Q 20.796875 8.453125 23.640625 8.453125 
Q 28.125 8.453125 31.90625 11.078125 
Q 35.6875 13.71875 35.84375 20.703125 
z
M 27.390625 32.375 
Q 31.25 32.859375 32.90625 33.59375 
Q 35.890625 34.859375 35.890625 37.546875 
Q 35.890625 40.828125 33.609375 42.0625 
Q 31.34375 43.3125 26.953125 43.3125 
Q 22.015625 43.3125 19.96875 40.875 
Q 18.5 39.0625 18.015625 35.984375 
L 4.59375 35.984375 
Q 5.03125 42.96875 8.5 47.46875 
Q 14.015625 54.5 27.4375 54.5 
Q 36.1875 54.5 42.96875 51.03125 
Q 49.75 47.5625 49.75 37.9375 
L 49.75 13.53125 
Q 49.75 10.984375 49.859375 7.375 
Q 50 4.640625 50.6875 3.65625 
Q 51.375 2.6875 52.734375 2.046875 
L 52.734375 0 
L 37.59375 0 
Q 36.96875 1.609375 36.71875 3.015625 
Q 36.46875 4.4375 36.328125 6.25 
Q 33.453125 3.125 29.6875 0.921875 
Q 25.203125 -1.65625 19.53125 -1.65625 
Q 12.3125 -1.65625 7.59375 2.46875 
Q 2.875 6.59375 2.875 14.15625 
Q 2.875 23.96875 10.453125 28.375 
Q 14.59375 30.765625 22.65625 31.78125 
z
M 28.125 54.640625 
z
" id="Helvetica-Bold-97"/>
    </defs>
    <g style="fill:#262626;" transform="translate(49.937282 25.3868)scale(0.16 -0.16)">
     <use xlink:href="#Helvetica-Bold-97"/>
    </g>
   </g>
   <g id="legend_1">
    <g id="line2d_16">
     <path d="M 73.4 47.391406 
L 87.4 47.391406 
" style="fill:none;stroke:#bd9020;stroke-linecap:round;stroke-width:0.8;"/>
    </g>
    <g id="line2d_17">
     <g>
      <use style="fill:#bd9020;stroke:#bd9020;" x="80.4" xlink:href="#mcbfa05346f" y="47.391406"/>
     </g>
    </g>
    <g id="text_15">
     <!-- Illumina truseq 100 ng -->
     <defs>
      <path d="M 9.8125 71.734375 
L 19.625 71.734375 
L 19.625 0 
L 9.8125 0 
z
" id="Helvetica-73"/>
      <path d="M 12.109375 25.4375 
Q 12.109375 18.65625 14.015625 14.0625 
Q 17.390625 5.90625 26.078125 5.90625 
Q 35.25 5.90625 38.71875 14.5 
Q 40.625 19.234375 40.625 26.609375 
Q 40.625 33.40625 38.53125 37.9375 
Q 34.96875 45.703125 25.984375 45.703125 
Q 20.265625 45.703125 16.1875 40.75 
Q 12.109375 35.796875 12.109375 25.4375 
z
M 25.09375 53.46875 
Q 31.59375 53.46875 36.03125 50.203125 
Q 38.484375 48.4375 40.71875 45.015625 
L 40.71875 52.296875 
L 49.078125 52.296875 
L 49.078125 -20.84375 
L 40.234375 -20.84375 
L 40.234375 6 
Q 38.03125 2.484375 34.15625 0.40625 
Q 30.28125 -1.65625 24.46875 -1.65625 
Q 16.109375 -1.65625 9.515625 4.875 
Q 2.9375 11.421875 2.9375 24.8125 
Q 2.9375 37.359375 9.109375 45.40625 
Q 15.28125 53.46875 25.09375 53.46875 
z
" id="Helvetica-113"/>
     </defs>
     <g style="fill:#262626;" transform="translate(93 49.841406)scale(0.07 -0.07)">
      <use xlink:href="#Helvetica-73"/>
      <use x="27.783203" xlink:href="#Helvetica-108"/>
      <use x="50" xlink:href="#Helvetica-108"/>
      <use x="72.216797" xlink:href="#Helvetica-117"/>
      <use x="127.832031" xlink:href="#Helvetica-109"/>
      <use x="211.132812" xlink:href="#Helvetica-105"/>
      <use x="233.349609" xlink:href="#Helvetica-110"/>
      <use x="288.964844" xlink:href="#Helvetica-97"/>
      <use x="344.580078" xlink:href="#Helvetica-32"/>
      <use x="372.363281" xlink:href="#Helvetica-116"/>
      <use x="400.146484" xlink:href="#Helvetica-114"/>
      <use x="433.447266" xlink:href="#Helvetica-117"/>
      <use x="489.0625" xlink:href="#Helvetica-115"/>
      <use x="539.0625" xlink:href="#Helvetica-101"/>
      <use x="594.677734" xlink:href="#Helvetica-113"/>
      <use x="650.292969" xlink:href="#Helvetica-32"/>
      <use x="678.076172" xlink:href="#Helvetica-49"/>
      <use x="733.691406" xlink:href="#Helvetica-48"/>
      <use x="789.306641" xlink:href="#Helvetica-48"/>
      <use x="844.921875" xlink:href="#Helvetica-32"/>
      <use x="872.705078" xlink:href="#Helvetica-110"/>
      <use x="928.320312" xlink:href="#Helvetica-103"/>
     </g>
    </g>
    <g id="line2d_18">
     <path d="M 73.4 57.461563 
L 87.4 57.461563 
" style="fill:none;stroke:#bd9020;stroke-linecap:round;stroke-width:0.8;"/>
    </g>
    <g id="line2d_19">
     <g>
      <use style="fill:#bd9020;stroke:#bd9020;" x="80.4" xlink:href="#mdc941b17c8" y="57.461563"/>
     </g>
    </g>
    <g id="text_16">
     <!-- Illumina truseq 50 ng -->
     <g style="fill:#262626;" transform="translate(93 59.911563)scale(0.07 -0.07)">
      <use xlink:href="#Helvetica-73"/>
      <use x="27.783203" xlink:href="#Helvetica-108"/>
      <use x="50" xlink:href="#Helvetica-108"/>
      <use x="72.216797" xlink:href="#Helvetica-117"/>
      <use x="127.832031" xlink:href="#Helvetica-109"/>
      <use x="211.132812" xlink:href="#Helvetica-105"/>
      <use x="233.349609" xlink:href="#Helvetica-110"/>
      <use x="288.964844" xlink:href="#Helvetica-97"/>
      <use x="344.580078" xlink:href="#Helvetica-32"/>
      <use x="372.363281" xlink:href="#Helvetica-116"/>
      <use x="400.146484" xlink:href="#Helvetica-114"/>
      <use x="433.447266" xlink:href="#Helvetica-117"/>
      <use x="489.0625" xlink:href="#Helvetica-115"/>
      <use x="539.0625" xlink:href="#Helvetica-101"/>
      <use x="594.677734" xlink:href="#Helvetica-113"/>
      <use x="650.292969" xlink:href="#Helvetica-32"/>
      <use x="678.076172" xlink:href="#Helvetica-53"/>
      <use x="733.691406" xlink:href="#Helvetica-48"/>
      <use x="789.306641" xlink:href="#Helvetica-32"/>
      <use x="817.089844" xlink:href="#Helvetica-110"/>
      <use x="872.705078" xlink:href="#Helvetica-103"/>
     </g>
    </g>
    <g id="line2d_20">
     <path d="M 73.4 67.531719 
L 87.4 67.531719 
" style="fill:none;stroke:#bd9020;stroke-linecap:round;stroke-width:0.8;"/>
    </g>
    <g id="line2d_21">
     <g>
      <use style="fill:#bd9020;stroke:#bd9020;stroke-linejoin:miter;" x="80.4" xlink:href="#mfe5fe7638f" y="67.531719"/>
     </g>
    </g>
    <g id="text_17">
     <!-- Illumina truseq 200 ng -->
     <g style="fill:#262626;" transform="translate(93 69.981719)scale(0.07 -0.07)">
      <use xlink:href="#Helvetica-73"/>
      <use x="27.783203" xlink:href="#Helvetica-108"/>
      <use x="50" xlink:href="#Helvetica-108"/>
      <use x="72.216797" xlink:href="#Helvetica-117"/>
      <use x="127.832031" xlink:href="#Helvetica-109"/>
      <use x="211.132812" xlink:href="#Helvetica-105"/>
      <use x="233.349609" xlink:href="#Helvetica-110"/>
      <use x="288.964844" xlink:href="#Helvetica-97"/>
      <use x="344.580078" xlink:href="#Helvetica-32"/>
      <use x="372.363281" xlink:href="#Helvetica-116"/>
      <use x="400.146484" xlink:href="#Helvetica-114"/>
      <use x="433.447266" xlink:href="#Helvetica-117"/>
      <use x="489.0625" xlink:href="#Helvetica-115"/>
      <use x="539.0625" xlink:href="#Helvetica-101"/>
      <use x="594.677734" xlink:href="#Helvetica-113"/>
      <use x="650.292969" xlink:href="#Helvetica-32"/>
      <use x="678.076172" xlink:href="#Helvetica-50"/>
      <use x="733.691406" xlink:href="#Helvetica-48"/>
      <use x="789.306641" xlink:href="#Helvetica-48"/>
      <use x="844.921875" xlink:href="#Helvetica-32"/>
      <use x="872.705078" xlink:href="#Helvetica-110"/>
      <use x="928.320312" xlink:href="#Helvetica-103"/>
     </g>
    </g>
   </g>
  </g>
  <g id="axes_2">
   <g id="patch_5">
    <path d="M 265.656863 169.852 
L 437.284041 169.852 
L 437.284041 38.52 
L 265.656863 38.52 
z
" style="fill:#ffffff;"/>
   </g>
   <g id="matplotlib.axis_3">
    <g id="xtick_7">
     <g id="line2d_22">
      <g>
       <use style="fill:#262626;stroke:#262626;stroke-width:1.25;" x="272.674054" xlink:href="#m8481999517" y="174.852"/>
      </g>
     </g>
     <g id="text_18">
      <!-- 0.0 -->
      <g style="fill:#262626;" transform="translate(266.558054 190.664625)scale(0.088 -0.088)">
       <use xlink:href="#Helvetica-48"/>
       <use x="55.615234" xlink:href="#Helvetica-46"/>
       <use x="83.398438" xlink:href="#Helvetica-48"/>
      </g>
     </g>
    </g>
    <g id="xtick_8">
     <g id="line2d_23">
      <g>
       <use style="fill:#262626;stroke:#262626;stroke-width:1.25;" x="304.035805" xlink:href="#m8481999517" y="174.852"/>
      </g>
     </g>
     <g id="text_19">
      <!-- 0.2 -->
      <g style="fill:#262626;" transform="translate(297.919805 190.664625)scale(0.088 -0.088)">
       <use xlink:href="#Helvetica-48"/>
       <use x="55.615234" xlink:href="#Helvetica-46"/>
       <use x="83.398438" xlink:href="#Helvetica-50"/>
      </g>
     </g>
    </g>
    <g id="xtick_9">
     <g id="line2d_24">
      <g>
       <use style="fill:#262626;stroke:#262626;stroke-width:1.25;" x="335.397555" xlink:href="#m8481999517" y="174.852"/>
      </g>
     </g>
     <g id="text_20">
      <!-- 0.4 -->
      <g style="fill:#262626;" transform="translate(329.281555 190.664625)scale(0.088 -0.088)">
       <use xlink:href="#Helvetica-48"/>
       <use x="55.615234" xlink:href="#Helvetica-46"/>
       <use x="83.398438" xlink:href="#Helvetica-52"/>
      </g>
     </g>
    </g>
    <g id="xtick_10">
     <g id="line2d_25">
      <g>
       <use style="fill:#262626;stroke:#262626;stroke-width:1.25;" x="366.759305" xlink:href="#m8481999517" y="174.852"/>
      </g>
     </g>
     <g id="text_21">
      <!-- 0.6 -->
      <g style="fill:#262626;" transform="translate(360.643305 190.664625)scale(0.088 -0.088)">
       <use xlink:href="#Helvetica-48"/>
       <use x="55.615234" xlink:href="#Helvetica-46"/>
       <use x="83.398438" xlink:href="#Helvetica-54"/>
      </g>
     </g>
    </g>
    <g id="xtick_11">
     <g id="line2d_26">
      <g>
       <use style="fill:#262626;stroke:#262626;stroke-width:1.25;" x="398.121055" xlink:href="#m8481999517" y="174.852"/>
      </g>
     </g>
     <g id="text_22">
      <!-- 0.8 -->
      <g style="fill:#262626;" transform="translate(392.005055 190.664625)scale(0.088 -0.088)">
       <use xlink:href="#Helvetica-48"/>
       <use x="55.615234" xlink:href="#Helvetica-46"/>
       <use x="83.398438" xlink:href="#Helvetica-56"/>
      </g>
     </g>
    </g>
    <g id="xtick_12">
     <g id="line2d_27">
      <g>
       <use style="fill:#262626;stroke:#262626;stroke-width:1.25;" x="429.482806" xlink:href="#m8481999517" y="174.852"/>
      </g>
     </g>
     <g id="text_23">
      <!-- 1.0 -->
      <g style="fill:#262626;" transform="translate(423.366806 190.664625)scale(0.088 -0.088)">
       <use xlink:href="#Helvetica-49"/>
       <use x="55.615234" xlink:href="#Helvetica-46"/>
       <use x="83.398438" xlink:href="#Helvetica-48"/>
      </g>
     </g>
    </g>
    <g id="text_24">
     <!-- p adjusted -->
     <defs>
      <path d="M 15.234375 61.578125 
L 6.453125 61.578125 
L 6.453125 71.734375 
L 15.234375 71.734375 
z
M -1.859375 -13.234375 
Q 4.046875 -13.03125 5.25 -12.171875 
Q 6.453125 -11.328125 6.453125 -6.84375 
L 6.453125 52.046875 
L 15.234375 52.046875 
L 15.234375 -7.765625 
Q 15.234375 -13.484375 13.375 -16.3125 
Q 10.296875 -21.09375 1.703125 -21.09375 
Q 1.078125 -21.09375 0.359375 -21.046875 
Q -0.34375 -21 -1.859375 -20.84375 
z
" id="Helvetica-106"/>
     </defs>
     <g style="fill:#262626;" transform="translate(329.321452 203.407875)scale(0.096 -0.096)">
      <use xlink:href="#Helvetica-112"/>
      <use x="55.615234" xlink:href="#Helvetica-32"/>
      <use x="83.398438" xlink:href="#Helvetica-97"/>
      <use x="139.013672" xlink:href="#Helvetica-100"/>
      <use x="194.628906" xlink:href="#Helvetica-106"/>
      <use x="216.845703" xlink:href="#Helvetica-117"/>
      <use x="272.460938" xlink:href="#Helvetica-115"/>
      <use x="322.460938" xlink:href="#Helvetica-116"/>
      <use x="350.244141" xlink:href="#Helvetica-101"/>
      <use x="405.859375" xlink:href="#Helvetica-100"/>
     </g>
    </g>
   </g>
   <g id="matplotlib.axis_4">
    <g id="ytick_7">
     <g id="line2d_28">
      <g>
       <use style="fill:#262626;stroke:#262626;stroke-width:1.25;" x="260.656863" xlink:href="#mb8b4c954f8" y="163.882364"/>
      </g>
     </g>
    </g>
    <g id="ytick_8">
     <g id="line2d_29">
      <g>
       <use style="fill:#262626;stroke:#262626;stroke-width:1.25;" x="260.656863" xlink:href="#mb8b4c954f8" y="142.087415"/>
      </g>
     </g>
    </g>
    <g id="ytick_9">
     <g id="line2d_30">
      <g>
       <use style="fill:#262626;stroke:#262626;stroke-width:1.25;" x="260.656863" xlink:href="#mb8b4c954f8" y="120.292467"/>
      </g>
     </g>
    </g>
    <g id="ytick_10">
     <g id="line2d_31">
      <g>
       <use style="fill:#262626;stroke:#262626;stroke-width:1.25;" x="260.656863" xlink:href="#mb8b4c954f8" y="98.497518"/>
      </g>
     </g>
    </g>
    <g id="ytick_11">
     <g id="line2d_32">
      <g>
       <use style="fill:#262626;stroke:#262626;stroke-width:1.25;" x="260.656863" xlink:href="#mb8b4c954f8" y="76.70257"/>
      </g>
     </g>
    </g>
    <g id="ytick_12">
     <g id="line2d_33">
      <g>
       <use style="fill:#262626;stroke:#262626;stroke-width:1.25;" x="260.656863" xlink:href="#mb8b4c954f8" y="54.907622"/>
      </g>
     </g>
    </g>
   </g>
   <g id="line2d_34">
    <path clip-path="url(#p1828ea48f4)" d="M 273.458098 163.63826 
L 274.242142 163.481337 
L 275.810229 162.810052 
L 277.378317 162.278255 
L 278.162361 161.95569 
L 279.730448 160.996712 
L 281.298536 160.168504 
L 282.082579 159.645426 
L 284.434711 158.669012 
L 285.218754 158.329011 
L 286.786842 157.335161 
L 287.570886 156.942852 
L 288.354929 156.376183 
L 289.923017 155.643873 
L 290.707061 155.042333 
L 293.059192 153.926431 
L 293.843236 153.263865 
L 294.62728 153.089505 
L 296.195367 152.496683 
L 297.763455 151.528987 
L 298.547498 150.892574 
L 299.331542 150.482829 
L 300.89963 149.480262 
L 302.467717 148.808977 
L 303.251761 148.233591 
L 308.740067 145.914608 
L 312.660286 143.944345 
L 314.228373 143.27306 
L 315.012417 142.985367 
L 317.364548 141.817158 
L 318.932636 140.997668 
L 319.71668 140.788436 
L 320.500723 140.204332 
L 322.068811 139.506893 
L 322.852855 139.2192 
L 324.420942 138.425864 
L 325.204986 138.164325 
L 325.98903 137.62381 
L 327.557117 137.048423 
L 328.341161 136.638678 
L 329.125205 136.464319 
L 329.909249 136.124317 
L 330.693292 135.644829 
L 334.613511 133.927387 
L 335.397555 133.360718 
L 340.885861 130.553529 
L 341.669905 130.335579 
L 342.453949 129.969424 
L 343.237992 129.350447 
L 344.022036 129.0366 
L 345.590124 128.077622 
L 347.158211 127.240696 
L 348.726299 126.604284 
L 349.510342 126.229411 
L 350.294386 125.636588 
L 351.07843 125.470947 
L 354.214605 124.198122 
L 355.782693 123.666325 
L 358.918868 121.931447 
L 360.486955 121.286317 
L 362.839086 119.943748 
L 363.62313 119.734516 
L 367.543349 117.711945 
L 368.327393 117.493995 
L 370.679524 116.412966 
L 372.247611 115.375527 
L 373.031655 114.974499 
L 374.599743 113.989368 
L 375.383786 113.466289 
L 376.951874 112.768851 
L 378.519961 111.487308 
L 379.304005 111.025255 
L 380.872093 110.345252 
L 382.44018 109.255505 
L 383.224224 108.436015 
L 384.792312 107.302678 
L 386.360399 106.326264 
L 391.064662 103.379587 
L 392.632749 102.638559 
L 393.416793 102.089326 
L 394.200837 101.871376 
L 400.473187 97.88726 
L 402.041274 97.006744 
L 402.825318 96.710333 
L 403.609362 96.283152 
L 404.393405 95.672893 
L 405.961493 94.888275 
L 408.313624 93.510834 
L 412.233843 90.834415 
L 414.585974 89.518 
L 415.370018 88.820561 
L 416.938106 87.966199 
L 417.722149 87.260043 
L 419.290237 86.248757 
L 420.858324 85.525165 
L 421.642368 84.757983 
L 422.426412 84.365674 
L 423.994499 83.127721 
L 424.778543 82.83131 
L 425.562587 81.767716 
L 426.346631 81.288227 
L 427.130674 80.983098 
L 427.914718 80.494891 
L 428.698762 79.701555 
L 429.482806 79.213348 
L 429.482806 79.213348 
" style="fill:none;stroke:#315498;stroke-linecap:round;stroke-width:0.8;"/>
    <defs>
     <path d="M -2 0 
L 2 0 
M 0 2 
L 0 -2 
" id="mc71bb052a6" style="stroke:#315498;"/>
    </defs>
    <g clip-path="url(#p1828ea48f4)">
     <use style="fill:#315498;stroke:#315498;" x="273.458098" xlink:href="#mc71bb052a6" y="163.63826"/>
     <use style="fill:#315498;stroke:#315498;" x="281.298536" xlink:href="#mc71bb052a6" y="160.168504"/>
     <use style="fill:#315498;stroke:#315498;" x="289.138973" xlink:href="#mc71bb052a6" y="155.983874"/>
     <use style="fill:#315498;stroke:#315498;" x="296.979411" xlink:href="#mc71bb052a6" y="152.052066"/>
     <use style="fill:#315498;stroke:#315498;" x="304.819848" xlink:href="#mc71bb052a6" y="147.509998"/>
     <use style="fill:#315498;stroke:#315498;" x="312.660286" xlink:href="#mc71bb052a6" y="143.944345"/>
     <use style="fill:#315498;stroke:#315498;" x="320.500723" xlink:href="#mc71bb052a6" y="140.204332"/>
     <use style="fill:#315498;stroke:#315498;" x="328.341161" xlink:href="#mc71bb052a6" y="136.638678"/>
     <use style="fill:#315498;stroke:#315498;" x="336.181599" xlink:href="#mc71bb052a6" y="132.950973"/>
     <use style="fill:#315498;stroke:#315498;" x="344.022036" xlink:href="#mc71bb052a6" y="129.0366"/>
     <use style="fill:#315498;stroke:#315498;" x="351.862474" xlink:href="#mc71bb052a6" y="125.130945"/>
     <use style="fill:#315498;stroke:#315498;" x="359.702911" xlink:href="#mc71bb052a6" y="121.652472"/>
     <use style="fill:#315498;stroke:#315498;" x="367.543349" xlink:href="#mc71bb052a6" y="117.711945"/>
     <use style="fill:#315498;stroke:#315498;" x="375.383786" xlink:href="#mc71bb052a6" y="113.466289"/>
     <use style="fill:#315498;stroke:#315498;" x="383.224224" xlink:href="#mc71bb052a6" y="108.436015"/>
     <use style="fill:#315498;stroke:#315498;" x="391.064662" xlink:href="#mc71bb052a6" y="103.379587"/>
     <use style="fill:#315498;stroke:#315498;" x="398.905099" xlink:href="#mc71bb052a6" y="98.854956"/>
     <use style="fill:#315498;stroke:#315498;" x="406.745537" xlink:href="#mc71bb052a6" y="94.461094"/>
     <use style="fill:#315498;stroke:#315498;" x="414.585974" xlink:href="#mc71bb052a6" y="89.518"/>
     <use style="fill:#315498;stroke:#315498;" x="422.426412" xlink:href="#mc71bb052a6" y="84.365674"/>
    </g>
   </g>
   <g id="line2d_35">
    <path clip-path="url(#p1828ea48f4)" d="M 273.458098 163.882364 
L 398.121055 163.803902 
L 399.689143 163.734158 
L 420.858324 163.734158 
L 421.642368 98.419057 
L 422.426412 97.137514 
L 423.210456 89.805693 
L 423.994499 76.563082 
L 424.778543 74.37487 
L 425.562587 71.759476 
L 426.346631 67.008177 
L 427.130674 64.506117 
L 428.698762 49.380423 
L 429.482806 44.489636 
L 429.482806 44.489636 
" style="fill:none;stroke:#315498;stroke-linecap:round;stroke-width:0.8;"/>
    <defs>
     <path d="M -2 2 
L 2 -2 
M -2 -2 
L 2 2 
" id="m871d418029" style="stroke:#315498;"/>
    </defs>
    <g clip-path="url(#p1828ea48f4)">
     <use style="fill:#315498;stroke:#315498;" x="273.458098" xlink:href="#m871d418029" y="163.882364"/>
     <use style="fill:#315498;stroke:#315498;" x="281.298536" xlink:href="#m871d418029" y="163.873646"/>
     <use style="fill:#315498;stroke:#315498;" x="289.138973" xlink:href="#m871d418029" y="163.873646"/>
     <use style="fill:#315498;stroke:#315498;" x="296.979411" xlink:href="#m871d418029" y="163.873646"/>
     <use style="fill:#315498;stroke:#315498;" x="304.819848" xlink:href="#m871d418029" y="163.873646"/>
     <use style="fill:#315498;stroke:#315498;" x="312.660286" xlink:href="#m871d418029" y="163.873646"/>
     <use style="fill:#315498;stroke:#315498;" x="320.500723" xlink:href="#m871d418029" y="163.873646"/>
     <use style="fill:#315498;stroke:#315498;" x="328.341161" xlink:href="#m871d418029" y="163.873646"/>
     <use style="fill:#315498;stroke:#315498;" x="336.181599" xlink:href="#m871d418029" y="163.873646"/>
     <use style="fill:#315498;stroke:#315498;" x="344.022036" xlink:href="#m871d418029" y="163.873646"/>
     <use style="fill:#315498;stroke:#315498;" x="351.862474" xlink:href="#m871d418029" y="163.830056"/>
     <use style="fill:#315498;stroke:#315498;" x="359.702911" xlink:href="#m871d418029" y="163.830056"/>
     <use style="fill:#315498;stroke:#315498;" x="367.543349" xlink:href="#m871d418029" y="163.830056"/>
     <use style="fill:#315498;stroke:#315498;" x="375.383786" xlink:href="#m871d418029" y="163.803902"/>
     <use style="fill:#315498;stroke:#315498;" x="383.224224" xlink:href="#m871d418029" y="163.803902"/>
     <use style="fill:#315498;stroke:#315498;" x="391.064662" xlink:href="#m871d418029" y="163.803902"/>
     <use style="fill:#315498;stroke:#315498;" x="398.905099" xlink:href="#m871d418029" y="163.734158"/>
     <use style="fill:#315498;stroke:#315498;" x="406.745537" xlink:href="#m871d418029" y="163.734158"/>
     <use style="fill:#315498;stroke:#315498;" x="414.585974" xlink:href="#m871d418029" y="163.734158"/>
     <use style="fill:#315498;stroke:#315498;" x="422.426412" xlink:href="#m871d418029" y="97.137514"/>
    </g>
   </g>
   <g id="patch_6">
    <path d="M 260.656863 169.852 
L 260.656863 38.52 
" style="fill:none;stroke:#262626;stroke-linecap:square;stroke-linejoin:miter;stroke-width:1.25;"/>
   </g>
   <g id="patch_7">
    <path d="M 265.656863 174.852 
L 437.284041 174.852 
" style="fill:none;stroke:#262626;stroke-linecap:square;stroke-linejoin:miter;stroke-width:1.25;"/>
   </g>
   <g id="text_25">
    <!-- b -->
    <defs>
     <path d="M 35.25 54.390625 
Q 45.75 54.390625 51.6875 46.828125 
Q 57.625 39.265625 57.625 27.296875 
Q 57.625 14.890625 51.765625 6.734375 
Q 45.90625 -1.421875 35.40625 -1.421875 
Q 28.8125 -1.421875 24.8125 1.21875 
Q 22.40625 2.78125 19.625 6.6875 
L 19.625 0 
L 6 0 
L 6 71.875 
L 19.875 71.875 
L 19.875 46.296875 
Q 22.515625 50 25.6875 51.953125 
Q 29.4375 54.390625 35.25 54.390625 
z
M 31.6875 10.0625 
Q 37.0625 10.0625 40.03125 14.40625 
Q 43.015625 18.75 43.015625 25.828125 
Q 43.015625 31.5 41.546875 35.203125 
Q 38.765625 42.234375 31.296875 42.234375 
Q 23.734375 42.234375 20.90625 35.359375 
Q 19.4375 31.6875 19.4375 25.875 
Q 19.4375 19.046875 22.453125 14.546875 
Q 25.484375 10.0625 31.6875 10.0625 
z
" id="Helvetica-Bold-98"/>
    </defs>
    <g style="fill:#262626;" transform="translate(248.494145 25.3868)scale(0.16 -0.16)">
     <use xlink:href="#Helvetica-Bold-98"/>
    </g>
   </g>
   <g id="legend_2">
    <g id="line2d_36">
     <path d="M 271.956863 47.528125 
L 285.956863 47.528125 
" style="fill:none;stroke:#315498;stroke-linecap:round;stroke-width:0.8;"/>
    </g>
    <g id="line2d_37">
     <g>
      <use style="fill:#315498;stroke:#315498;" x="278.956863" xlink:href="#mc71bb052a6" y="47.528125"/>
     </g>
    </g>
    <g id="text_26">
     <!-- Swift 10 ng -->
     <defs>
      <path d="M 13.96875 23.140625 
Q 14.3125 17.046875 16.84375 13.234375 
Q 21.6875 6.109375 33.890625 6.109375 
Q 39.359375 6.109375 43.84375 7.671875 
Q 52.546875 10.6875 52.546875 18.5 
Q 52.546875 24.359375 48.875 26.859375 
Q 45.171875 29.296875 37.25 31.109375 
L 27.546875 33.296875 
Q 18.015625 35.453125 14.0625 38.03125 
Q 7.234375 42.53125 7.234375 51.46875 
Q 7.234375 61.140625 13.921875 67.328125 
Q 20.609375 73.53125 32.859375 73.53125 
Q 44.140625 73.53125 52.015625 68.078125 
Q 59.90625 62.640625 59.90625 50.6875 
L 50.78125 50.6875 
Q 50.046875 56.453125 47.65625 59.515625 
Q 43.21875 65.140625 32.5625 65.140625 
Q 23.96875 65.140625 20.203125 61.515625 
Q 16.453125 57.90625 16.453125 53.125 
Q 16.453125 47.859375 20.84375 45.40625 
Q 23.734375 43.84375 33.890625 41.5 
L 43.953125 39.203125 
Q 51.21875 37.546875 55.171875 34.671875 
Q 62.015625 29.640625 62.015625 20.0625 
Q 62.015625 8.15625 53.34375 3.03125 
Q 44.671875 -2.09375 33.203125 -2.09375 
Q 19.828125 -2.09375 12.25 4.734375 
Q 4.6875 11.53125 4.828125 23.140625 
z
M 33.59375 73.6875 
z
" id="Helvetica-83"/>
      <path d="M 10.5 52.296875 
L 20.5625 11.078125 
L 30.765625 52.296875 
L 40.625 52.296875 
L 50.875 11.328125 
L 61.578125 52.296875 
L 70.359375 52.296875 
L 55.171875 0 
L 46.046875 0 
L 35.40625 40.484375 
L 25.09375 0 
L 15.96875 0 
L 0.875 52.296875 
z
" id="Helvetica-119"/>
     </defs>
     <g style="fill:#262626;" transform="translate(291.556863 49.978125)scale(0.07 -0.07)">
      <use xlink:href="#Helvetica-83"/>
      <use x="66.699219" xlink:href="#Helvetica-119"/>
      <use x="138.916016" xlink:href="#Helvetica-105"/>
      <use x="161.132812" xlink:href="#Helvetica-102"/>
      <use x="188.916016" xlink:href="#Helvetica-116"/>
      <use x="216.699219" xlink:href="#Helvetica-32"/>
      <use x="244.482422" xlink:href="#Helvetica-49"/>
      <use x="300.097656" xlink:href="#Helvetica-48"/>
      <use x="355.712891" xlink:href="#Helvetica-32"/>
      <use x="383.496094" xlink:href="#Helvetica-110"/>
      <use x="439.111328" xlink:href="#Helvetica-103"/>
     </g>
    </g>
    <g id="line2d_38">
     <path d="M 271.956863 57.735 
L 285.956863 57.735 
" style="fill:none;stroke:#315498;stroke-linecap:round;stroke-width:0.8;"/>
    </g>
    <g id="line2d_39">
     <g>
      <use style="fill:#315498;stroke:#315498;" x="278.956863" xlink:href="#m871d418029" y="57.735"/>
     </g>
    </g>
    <g id="text_27">
     <!-- Swift 50 ng -->
     <g style="fill:#262626;" transform="translate(291.556863 60.185)scale(0.07 -0.07)">
      <use xlink:href="#Helvetica-83"/>
      <use x="66.699219" xlink:href="#Helvetica-119"/>
      <use x="138.916016" xlink:href="#Helvetica-105"/>
      <use x="161.132812" xlink:href="#Helvetica-102"/>
      <use x="188.916016" xlink:href="#Helvetica-116"/>
      <use x="216.699219" xlink:href="#Helvetica-32"/>
      <use x="244.482422" xlink:href="#Helvetica-53"/>
      <use x="300.097656" xlink:href="#Helvetica-48"/>
      <use x="355.712891" xlink:href="#Helvetica-32"/>
      <use x="383.496094" xlink:href="#Helvetica-110"/>
      <use x="439.111328" xlink:href="#Helvetica-103"/>
     </g>
    </g>
   </g>
  </g>
  <g id="axes_3">
   <g id="patch_8">
    <path d="M 464.213725 169.852 
L 635.840904 169.852 
L 635.840904 38.52 
L 464.213725 38.52 
z
" style="fill:#ffffff;"/>
   </g>
   <g id="matplotlib.axis_5">
    <g id="xtick_13">
     <g id="line2d_40">
      <g>
       <use style="fill:#262626;stroke:#262626;stroke-width:1.25;" x="471.230917" xlink:href="#m8481999517" y="174.852"/>
      </g>
     </g>
     <g id="text_28">
      <!-- 0.0 -->
      <g style="fill:#262626;" transform="translate(465.114917 190.664625)scale(0.088 -0.088)">
       <use xlink:href="#Helvetica-48"/>
       <use x="55.615234" xlink:href="#Helvetica-46"/>
       <use x="83.398438" xlink:href="#Helvetica-48"/>
      </g>
     </g>
    </g>
    <g id="xtick_14">
     <g id="line2d_41">
      <g>
       <use style="fill:#262626;stroke:#262626;stroke-width:1.25;" x="502.592667" xlink:href="#m8481999517" y="174.852"/>
      </g>
     </g>
     <g id="text_29">
      <!-- 0.2 -->
      <g style="fill:#262626;" transform="translate(496.476667 190.664625)scale(0.088 -0.088)">
       <use xlink:href="#Helvetica-48"/>
       <use x="55.615234" xlink:href="#Helvetica-46"/>
       <use x="83.398438" xlink:href="#Helvetica-50"/>
      </g>
     </g>
    </g>
    <g id="xtick_15">
     <g id="line2d_42">
      <g>
       <use style="fill:#262626;stroke:#262626;stroke-width:1.25;" x="533.954418" xlink:href="#m8481999517" y="174.852"/>
      </g>
     </g>
     <g id="text_30">
      <!-- 0.4 -->
      <g style="fill:#262626;" transform="translate(527.838418 190.664625)scale(0.088 -0.088)">
       <use xlink:href="#Helvetica-48"/>
       <use x="55.615234" xlink:href="#Helvetica-46"/>
       <use x="83.398438" xlink:href="#Helvetica-52"/>
      </g>
     </g>
    </g>
    <g id="xtick_16">
     <g id="line2d_43">
      <g>
       <use style="fill:#262626;stroke:#262626;stroke-width:1.25;" x="565.316168" xlink:href="#m8481999517" y="174.852"/>
      </g>
     </g>
     <g id="text_31">
      <!-- 0.6 -->
      <g style="fill:#262626;" transform="translate(559.200168 190.664625)scale(0.088 -0.088)">
       <use xlink:href="#Helvetica-48"/>
       <use x="55.615234" xlink:href="#Helvetica-46"/>
       <use x="83.398438" xlink:href="#Helvetica-54"/>
      </g>
     </g>
    </g>
    <g id="xtick_17">
     <g id="line2d_44">
      <g>
       <use style="fill:#262626;stroke:#262626;stroke-width:1.25;" x="596.677918" xlink:href="#m8481999517" y="174.852"/>
      </g>
     </g>
     <g id="text_32">
      <!-- 0.8 -->
      <g style="fill:#262626;" transform="translate(590.561918 190.664625)scale(0.088 -0.088)">
       <use xlink:href="#Helvetica-48"/>
       <use x="55.615234" xlink:href="#Helvetica-46"/>
       <use x="83.398438" xlink:href="#Helvetica-56"/>
      </g>
     </g>
    </g>
    <g id="xtick_18">
     <g id="line2d_45">
      <g>
       <use style="fill:#262626;stroke:#262626;stroke-width:1.25;" x="628.039668" xlink:href="#m8481999517" y="174.852"/>
      </g>
     </g>
     <g id="text_33">
      <!-- 1.0 -->
      <g style="fill:#262626;" transform="translate(621.923668 190.664625)scale(0.088 -0.088)">
       <use xlink:href="#Helvetica-49"/>
       <use x="55.615234" xlink:href="#Helvetica-46"/>
       <use x="83.398438" xlink:href="#Helvetica-48"/>
      </g>
     </g>
    </g>
   </g>
   <g id="matplotlib.axis_6">
    <g id="ytick_13">
     <g id="line2d_46">
      <g>
       <use style="fill:#262626;stroke:#262626;stroke-width:1.25;" x="459.213725" xlink:href="#mb8b4c954f8" y="163.882364"/>
      </g>
     </g>
    </g>
    <g id="ytick_14">
     <g id="line2d_47">
      <g>
       <use style="fill:#262626;stroke:#262626;stroke-width:1.25;" x="459.213725" xlink:href="#mb8b4c954f8" y="142.087415"/>
      </g>
     </g>
    </g>
    <g id="ytick_15">
     <g id="line2d_48">
      <g>
       <use style="fill:#262626;stroke:#262626;stroke-width:1.25;" x="459.213725" xlink:href="#mb8b4c954f8" y="120.292467"/>
      </g>
     </g>
    </g>
    <g id="ytick_16">
     <g id="line2d_49">
      <g>
       <use style="fill:#262626;stroke:#262626;stroke-width:1.25;" x="459.213725" xlink:href="#mb8b4c954f8" y="98.497518"/>
      </g>
     </g>
    </g>
    <g id="ytick_17">
     <g id="line2d_50">
      <g>
       <use style="fill:#262626;stroke:#262626;stroke-width:1.25;" x="459.213725" xlink:href="#mb8b4c954f8" y="76.70257"/>
      </g>
     </g>
    </g>
    <g id="ytick_18">
     <g id="line2d_51">
      <g>
       <use style="fill:#262626;stroke:#262626;stroke-width:1.25;" x="459.213725" xlink:href="#mb8b4c954f8" y="54.907622"/>
      </g>
     </g>
    </g>
   </g>
   <g id="line2d_52">
    <path clip-path="url(#pd2ec778178)" d="M 472.014961 163.830056 
L 475.151136 163.72544 
L 479.855398 163.59467 
L 481.423486 163.524926 
L 482.20753 163.498773 
L 483.775617 163.237233 
L 485.343705 163.150053 
L 486.127748 163.123899 
L 487.695836 162.810052 
L 490.832011 162.539795 
L 491.616055 162.374153 
L 493.968186 162.234666 
L 494.75223 161.894664 
L 497.104361 161.554663 
L 500.240536 161.39774 
L 508.080974 159.924401 
L 508.865017 159.880811 
L 510.433105 159.558246 
L 522.977805 157.666444 
L 526.11398 157.422341 
L 529.250155 156.934134 
L 531.602286 156.594133 
L 532.38633 156.297722 
L 533.170374 156.26285 
L 533.954418 155.992592 
L 538.65868 155.18182 
L 540.226768 154.772075 
L 541.010811 154.711049 
L 544.146986 153.882841 
L 544.93103 153.577712 
L 546.499118 153.194121 
L 547.283161 152.880274 
L 549.635293 152.383349 
L 550.419336 152.156681 
L 551.20338 152.060784 
L 551.987424 151.738218 
L 553.555512 151.467961 
L 554.339555 151.284883 
L 555.123599 151.267448 
L 557.47573 150.587445 
L 558.259774 150.456675 
L 559.827862 149.523852 
L 561.395949 149.349492 
L 562.964037 148.904875 
L 564.532124 148.608464 
L 566.100212 148.373078 
L 566.884255 147.998205 
L 567.668299 147.80641 
L 569.236387 147.169997 
L 570.804474 146.925894 
L 571.588518 146.664354 
L 572.372562 146.612047 
L 573.156605 146.446405 
L 573.940649 145.766403 
L 577.860868 144.572039 
L 578.644912 144.144858 
L 579.428955 143.996653 
L 582.565131 142.915623 
L 584.133218 142.619212 
L 585.701306 142.139723 
L 586.485349 142.052543 
L 587.269393 141.747414 
L 588.837481 141.433567 
L 592.757699 140.16946 
L 594.325787 139.332534 
L 596.677918 138.757147 
L 601.382181 137.248937 
L 602.166224 136.80432 
L 606.086443 135.16534 
L 607.654531 134.476619 
L 609.222618 133.840207 
L 610.006662 133.718155 
L 611.574749 133.020717 
L 612.358793 132.846357 
L 613.142837 132.244817 
L 613.926881 131.852507 
L 614.710925 131.050453 
L 615.494968 130.84994 
L 618.631143 129.428909 
L 619.415187 129.263268 
L 620.199231 128.836087 
L 622.551362 128.234546 
L 623.335406 127.641723 
L 624.11945 127.35403 
L 624.903493 126.839669 
L 625.687537 126.630438 
L 626.471581 126.133513 
L 627.255625 125.985307 
L 628.039668 125.505819 
L 628.039668 125.505819 
" style="fill:none;stroke:#a22382;stroke-linecap:round;stroke-width:0.8;"/>
    <defs>
     <path d="M 0 1 
C 0.265203 1 0.51958 0.894634 0.707107 0.707107 
C 0.894634 0.51958 1 0.265203 1 0 
C 1 -0.265203 0.894634 -0.51958 0.707107 -0.707107 
C 0.51958 -0.894634 0.265203 -1 0 -1 
C -0.265203 -1 -0.51958 -0.894634 -0.707107 -0.707107 
C -0.894634 -0.51958 -1 -0.265203 -1 0 
C -1 0.265203 -0.894634 0.51958 -0.707107 0.707107 
C -0.51958 0.894634 -0.265203 1 0 1 
z
" id="mb28c079239" style="stroke:#a22382;"/>
    </defs>
    <g clip-path="url(#pd2ec778178)">
     <use style="fill:#a22382;stroke:#a22382;" x="472.014961" xlink:href="#mb28c079239" y="163.830056"/>
     <use style="fill:#a22382;stroke:#a22382;" x="479.855398" xlink:href="#mb28c079239" y="163.59467"/>
     <use style="fill:#a22382;stroke:#a22382;" x="487.695836" xlink:href="#mb28c079239" y="162.810052"/>
     <use style="fill:#a22382;stroke:#a22382;" x="495.536274" xlink:href="#mb28c079239" y="161.772613"/>
     <use style="fill:#a22382;stroke:#a22382;" x="503.376711" xlink:href="#mb28c079239" y="160.839789"/>
     <use style="fill:#a22382;stroke:#a22382;" x="511.217149" xlink:href="#mb28c079239" y="159.436194"/>
     <use style="fill:#a22382;stroke:#a22382;" x="519.057586" xlink:href="#mb28c079239" y="158.241831"/>
     <use style="fill:#a22382;stroke:#a22382;" x="526.898024" xlink:href="#mb28c079239" y="157.282853"/>
     <use style="fill:#a22382;stroke:#a22382;" x="534.738461" xlink:href="#mb28c079239" y="155.861823"/>
     <use style="fill:#a22382;stroke:#a22382;" x="542.578899" xlink:href="#mb28c079239" y="154.344894"/>
     <use style="fill:#a22382;stroke:#a22382;" x="550.419336" xlink:href="#mb28c079239" y="152.156681"/>
     <use style="fill:#a22382;stroke:#a22382;" x="558.259774" xlink:href="#mb28c079239" y="150.456675"/>
     <use style="fill:#a22382;stroke:#a22382;" x="566.100212" xlink:href="#mb28c079239" y="148.373078"/>
     <use style="fill:#a22382;stroke:#a22382;" x="573.940649" xlink:href="#mb28c079239" y="145.766403"/>
     <use style="fill:#a22382;stroke:#a22382;" x="581.781087" xlink:href="#mb28c079239" y="143.246907"/>
     <use style="fill:#a22382;stroke:#a22382;" x="589.621524" xlink:href="#mb28c079239" y="141.163309"/>
     <use style="fill:#a22382;stroke:#a22382;" x="597.461962" xlink:href="#mb28c079239" y="138.521762"/>
     <use style="fill:#a22382;stroke:#a22382;" x="605.302399" xlink:href="#mb28c079239" y="135.6797"/>
     <use style="fill:#a22382;stroke:#a22382;" x="613.142837" xlink:href="#mb28c079239" y="132.244817"/>
     <use style="fill:#a22382;stroke:#a22382;" x="620.983275" xlink:href="#mb28c079239" y="128.635573"/>
    </g>
   </g>
   <g id="line2d_53">
    <path clip-path="url(#pd2ec778178)" d="M 472.014961 162.461333 
L 472.799005 161.859792 
L 474.367092 160.874661 
L 475.93518 160.351582 
L 479.855398 158.756192 
L 480.639442 158.494652 
L 483.775617 157.047468 
L 490.047967 154.833101 
L 490.832011 154.693613 
L 500.240536 151.206422 
L 501.808624 150.474111 
L 503.376711 150.003341 
L 504.160755 149.794109 
L 506.512886 148.800259 
L 508.080974 148.268463 
L 509.649061 147.658204 
L 512.001192 146.72538 
L 513.56928 145.81871 
L 515.137367 144.842297 
L 517.489499 143.761267 
L 518.273542 143.44742 
L 519.057586 142.976649 
L 521.409718 142.000235 
L 522.193761 141.817158 
L 522.977805 141.424849 
L 525.329936 140.640231 
L 526.11398 140.099716 
L 527.682068 139.541765 
L 529.250155 138.905353 
L 530.818243 138.547916 
L 532.38633 137.414578 
L 533.170374 137.135603 
L 535.522505 135.688418 
L 537.090593 134.929954 
L 537.874636 134.424311 
L 538.65868 134.101746 
L 539.442724 133.43918 
L 540.226768 133.064307 
L 541.794855 132.166355 
L 542.578899 131.878661 
L 543.362943 131.373019 
L 546.499118 130.03045 
L 547.283161 129.455063 
L 548.067205 129.21096 
L 551.987424 127.031465 
L 552.771468 126.429924 
L 554.339555 125.80223 
L 555.123599 125.052484 
L 556.691687 124.110942 
L 558.259774 123.326324 
L 559.043818 122.838117 
L 560.611905 122.027345 
L 562.179993 120.867853 
L 562.964037 120.318621 
L 563.74808 119.97862 
L 564.532124 119.359643 
L 566.100212 118.801692 
L 566.884255 118.583743 
L 567.668299 118.20887 
L 568.452343 117.633483 
L 569.236387 117.249892 
L 571.588518 115.759118 
L 575.508737 113.692956 
L 576.29278 113.178596 
L 577.860868 111.504744 
L 578.644912 111.068845 
L 579.428955 110.816023 
L 580.212999 110.39756 
L 580.997043 110.153457 
L 581.781087 109.57807 
L 582.565131 109.168325 
L 583.349174 108.62781 
L 586.485349 106.936522 
L 587.269393 106.500624 
L 588.053437 105.515492 
L 589.621524 104.103179 
L 591.973656 103.274971 
L 594.325787 101.662145 
L 595.109831 101.200092 
L 595.893874 100.371884 
L 600.598137 96.588281 
L 602.166224 95.742637 
L 602.950268 95.071353 
L 603.734312 94.696479 
L 610.006662 90.189284 
L 610.790706 89.221588 
L 612.358793 88.027225 
L 615.494968 84.200032 
L 617.063056 82.901053 
L 618.631143 80.608225 
L 619.415187 79.963094 
L 620.199231 78.812321 
L 620.983275 78.358986 
L 622.551362 76.388723 
L 623.335406 75.822054 
L 626.471581 72.204093 
L 627.255625 70.626138 
L 628.039668 69.954854 
L 628.039668 69.954854 
" style="fill:none;stroke:#a22382;stroke-linecap:round;stroke-width:0.8;"/>
    <defs>
     <path d="M -2 2 
L 2 -2 
M -2 -2 
L 2 2 
" id="m7fe724db8d" style="stroke:#a22382;"/>
    </defs>
    <g clip-path="url(#pd2ec778178)">
     <use style="fill:#a22382;stroke:#a22382;" x="472.014961" xlink:href="#m7fe724db8d" y="162.461333"/>
     <use style="fill:#a22382;stroke:#a22382;" x="479.855398" xlink:href="#m7fe724db8d" y="158.756192"/>
     <use style="fill:#a22382;stroke:#a22382;" x="487.695836" xlink:href="#m7fe724db8d" y="155.643873"/>
     <use style="fill:#a22382;stroke:#a22382;" x="495.536274" xlink:href="#m7fe724db8d" y="152.984889"/>
     <use style="fill:#a22382;stroke:#a22382;" x="503.376711" xlink:href="#m7fe724db8d" y="150.003341"/>
     <use style="fill:#a22382;stroke:#a22382;" x="511.217149" xlink:href="#m7fe724db8d" y="147.021792"/>
     <use style="fill:#a22382;stroke:#a22382;" x="519.057586" xlink:href="#m7fe724db8d" y="142.976649"/>
     <use style="fill:#a22382;stroke:#a22382;" x="526.898024" xlink:href="#m7fe724db8d" y="139.768433"/>
     <use style="fill:#a22382;stroke:#a22382;" x="534.738461" xlink:href="#m7fe724db8d" y="136.089445"/>
     <use style="fill:#a22382;stroke:#a22382;" x="542.578899" xlink:href="#m7fe724db8d" y="131.878661"/>
     <use style="fill:#a22382;stroke:#a22382;" x="550.419336" xlink:href="#m7fe724db8d" y="127.964289"/>
     <use style="fill:#a22382;stroke:#a22382;" x="558.259774" xlink:href="#m7fe724db8d" y="123.326324"/>
     <use style="fill:#a22382;stroke:#a22382;" x="566.100212" xlink:href="#m7fe724db8d" y="118.801692"/>
     <use style="fill:#a22382;stroke:#a22382;" x="573.940649" xlink:href="#m7fe724db8d" y="114.704242"/>
     <use style="fill:#a22382;stroke:#a22382;" x="581.781087" xlink:href="#m7fe724db8d" y="109.57807"/>
     <use style="fill:#a22382;stroke:#a22382;" x="589.621524" xlink:href="#m7fe724db8d" y="104.103179"/>
     <use style="fill:#a22382;stroke:#a22382;" x="597.461962" xlink:href="#m7fe724db8d" y="99.099059"/>
     <use style="fill:#a22382;stroke:#a22382;" x="605.302399" xlink:href="#m7fe724db8d" y="93.598014"/>
     <use style="fill:#a22382;stroke:#a22382;" x="613.142837" xlink:href="#m7fe724db8d" y="87.068248"/>
     <use style="fill:#a22382;stroke:#a22382;" x="620.983275" xlink:href="#m7fe724db8d" y="78.358986"/>
    </g>
   </g>
   <g id="patch_9">
    <path d="M 459.213725 169.852 
L 459.213725 38.52 
" style="fill:none;stroke:#262626;stroke-linecap:square;stroke-linejoin:miter;stroke-width:1.25;"/>
   </g>
   <g id="patch_10">
    <path d="M 464.213725 174.852 
L 635.840904 174.852 
" style="fill:none;stroke:#262626;stroke-linecap:square;stroke-linejoin:miter;stroke-width:1.25;"/>
   </g>
   <g id="text_34">
    <!-- c -->
    <defs>
     <path d="M 38.28125 34.125 
Q 37.890625 37.109375 36.28125 39.5 
Q 33.9375 42.71875 29 42.71875 
Q 21.96875 42.71875 19.390625 35.75 
Q 18.015625 32.03125 18.015625 25.875 
Q 18.015625 20.015625 19.390625 16.453125 
Q 21.875 9.8125 28.765625 9.8125 
Q 33.640625 9.8125 35.6875 12.453125 
Q 37.75 15.09375 38.1875 19.28125 
L 52.390625 19.28125 
Q 51.90625 12.9375 47.796875 7.28125 
Q 41.265625 -1.859375 28.421875 -1.859375 
Q 15.578125 -1.859375 9.515625 5.75 
Q 3.46875 13.375 3.46875 25.53125 
Q 3.46875 39.265625 10.15625 46.875 
Q 16.84375 54.5 28.609375 54.5 
Q 38.625 54.5 45 50 
Q 51.375 45.515625 52.546875 34.125 
z
M 28.859375 54.640625 
z
" id="Helvetica-Bold-99"/>
    </defs>
    <g style="fill:#262626;" transform="translate(447.051008 25.3868)scale(0.16 -0.16)">
     <use xlink:href="#Helvetica-Bold-99"/>
    </g>
   </g>
   <g id="legend_3">
    <g id="line2d_54">
     <path d="M 470.513725 47.528125 
L 484.513725 47.528125 
" style="fill:none;stroke:#a22382;stroke-linecap:round;stroke-width:0.8;"/>
    </g>
    <g id="line2d_55">
     <g>
      <use style="fill:#a22382;stroke:#a22382;" x="477.513725" xlink:href="#mb28c079239" y="47.528125"/>
     </g>
    </g>
    <g id="text_35">
     <!-- Swift Rapid 100 ng -->
     <defs>
      <path d="M 40.96875 38.875 
Q 47.796875 38.875 51.78125 41.609375 
Q 55.765625 44.34375 55.765625 51.46875 
Q 55.765625 59.125 50.203125 61.921875 
Q 47.21875 63.375 42.234375 63.375 
L 18.5 63.375 
L 18.5 38.875 
z
M 8.796875 71.734375 
L 42 71.734375 
Q 50.203125 71.734375 55.515625 69.34375 
Q 65.625 64.75 65.625 52.390625 
Q 65.625 45.953125 62.953125 41.84375 
Q 60.296875 37.75 55.515625 35.25 
Q 59.71875 33.546875 61.84375 30.765625 
Q 63.96875 27.984375 64.203125 21.734375 
L 64.546875 12.109375 
Q 64.703125 8.015625 65.234375 6 
Q 66.109375 2.59375 68.359375 1.609375 
L 68.359375 0 
L 56.453125 0 
Q 55.953125 0.921875 55.65625 2.390625 
Q 55.375 3.859375 55.171875 8.0625 
L 54.59375 20.015625 
Q 54.25 27.046875 49.359375 29.4375 
Q 46.578125 30.765625 40.625 30.765625 
L 18.5 30.765625 
L 18.5 0 
L 8.796875 0 
z
" id="Helvetica-82"/>
     </defs>
     <g style="fill:#262626;" transform="translate(490.113725 49.978125)scale(0.07 -0.07)">
      <use xlink:href="#Helvetica-83"/>
      <use x="66.699219" xlink:href="#Helvetica-119"/>
      <use x="138.916016" xlink:href="#Helvetica-105"/>
      <use x="161.132812" xlink:href="#Helvetica-102"/>
      <use x="188.916016" xlink:href="#Helvetica-116"/>
      <use x="216.699219" xlink:href="#Helvetica-32"/>
      <use x="244.482422" xlink:href="#Helvetica-82"/>
      <use x="316.699219" xlink:href="#Helvetica-97"/>
      <use x="372.314453" xlink:href="#Helvetica-112"/>
      <use x="427.929688" xlink:href="#Helvetica-105"/>
      <use x="450.146484" xlink:href="#Helvetica-100"/>
      <use x="505.761719" xlink:href="#Helvetica-32"/>
      <use x="533.544922" xlink:href="#Helvetica-49"/>
      <use x="589.160156" xlink:href="#Helvetica-48"/>
      <use x="644.775391" xlink:href="#Helvetica-48"/>
      <use x="700.390625" xlink:href="#Helvetica-32"/>
      <use x="728.173828" xlink:href="#Helvetica-110"/>
      <use x="783.789062" xlink:href="#Helvetica-103"/>
     </g>
    </g>
    <g id="line2d_56">
     <path d="M 470.513725 57.735 
L 484.513725 57.735 
" style="fill:none;stroke:#a22382;stroke-linecap:round;stroke-width:0.8;"/>
    </g>
    <g id="line2d_57">
     <g>
      <use style="fill:#a22382;stroke:#a22382;" x="477.513725" xlink:href="#m7fe724db8d" y="57.735"/>
     </g>
    </g>
    <g id="text_36">
     <!-- Swift Rapid 50 ng -->
     <g style="fill:#262626;" transform="translate(490.113725 60.185)scale(0.07 -0.07)">
      <use xlink:href="#Helvetica-83"/>
      <use x="66.699219" xlink:href="#Helvetica-119"/>
      <use x="138.916016" xlink:href="#Helvetica-105"/>
      <use x="161.132812" xlink:href="#Helvetica-102"/>
      <use x="188.916016" xlink:href="#Helvetica-116"/>
      <use x="216.699219" xlink:href="#Helvetica-32"/>
      <use x="244.482422" xlink:href="#Helvetica-82"/>
      <use x="316.699219" xlink:href="#Helvetica-97"/>
      <use x="372.314453" xlink:href="#Helvetica-112"/>
      <use x="427.929688" xlink:href="#Helvetica-105"/>
      <use x="450.146484" xlink:href="#Helvetica-100"/>
      <use x="505.761719" xlink:href="#Helvetica-32"/>
      <use x="533.544922" xlink:href="#Helvetica-53"/>
      <use x="589.160156" xlink:href="#Helvetica-48"/>
      <use x="644.775391" xlink:href="#Helvetica-32"/>
      <use x="672.558594" xlink:href="#Helvetica-110"/>
      <use x="728.173828" xlink:href="#Helvetica-103"/>
     </g>
    </g>
   </g>
  </g>
 </g>
 <defs>
  <clipPath id="p1a9a5e7f6c">
   <rect height="131.332" width="171.627178" x="67.1" y="38.52"/>
  </clipPath>
  <clipPath id="p1828ea48f4">
   <rect height="131.332" width="171.627178" x="265.656863" y="38.52"/>
  </clipPath>
  <clipPath id="pd2ec778178">
   <rect height="131.332" width="171.627178" x="464.213725" y="38.52"/>
  </clipPath>
 </defs>
</svg>
