<?xml version="1.0" encoding="utf-8" standalone="no"?>
<!DOCTYPE svg PUBLIC "-//W3C//DTD SVG 1.1//EN"
  "http://www.w3.org/Graphics/SVG/1.1/DTD/svg11.dtd">
<!-- Created with matplotlib (https://matplotlib.org/) -->
<svg height="180pt" version="1.1" viewBox="0 0 648 180" width="648pt" xmlns="http://www.w3.org/2000/svg" xmlns:xlink="http://www.w3.org/1999/xlink">
 <defs>
  <style type="text/css">
*{stroke-linecap:butt;stroke-linejoin:round;}
  </style>
 </defs>
 <g id="figure_1">
  <g id="patch_1">
   <path d="M 0 180 
L 648 180 
L 648 0 
L 0 0 
z
" style="fill:#ffffff;"/>
  </g>
  <g id="axes_1">
   <g id="patch_2">
    <path d="M 210.242 137.028 
L 638.928 137.028 
L 638.928 20.832 
L 210.242 20.832 
z
" style="fill:#ffffff;"/>
   </g>
   <g id="matplotlib.axis_1">
    <g id="xtick_1">
     <g id="line2d_1">
      <defs>
       <path d="M 0 0 
L 0 6 
" id="ma3122dac2d" style="stroke:#262626;stroke-width:1.25;"/>
      </defs>
      <g>
       <use style="fill:#262626;stroke:#262626;stroke-width:1.25;" x="221.523211" xlink:href="#ma3122dac2d" y="143.028"/>
      </g>
     </g>
     <g id="text_1">
      <!-- −0.15 -->
      <defs>
       <path d="M 55.421875 29.59375 
L 55.421875 21.390625 
L 4.5 21.390625 
L 4.5 29.59375 
z
" id="Helvetica-8722"/>
       <path d="M 27.046875 69.921875 
Q 40.625 69.921875 46.6875 58.734375 
Q 51.375 50.09375 51.375 35.0625 
Q 51.375 20.796875 47.125 11.46875 
Q 40.96875 -1.90625 27 -1.90625 
Q 14.40625 -1.90625 8.25 9.03125 
Q 3.125 18.171875 3.125 33.546875 
Q 3.125 45.453125 6.203125 54 
Q 11.96875 69.921875 27.046875 69.921875 
z
M 26.953125 6.109375 
Q 33.796875 6.109375 37.84375 12.15625 
Q 41.890625 18.21875 41.890625 34.71875 
Q 41.890625 46.625 38.953125 54.3125 
Q 36.03125 62.015625 27.59375 62.015625 
Q 19.828125 62.015625 16.234375 54.703125 
Q 12.640625 47.40625 12.640625 33.203125 
Q 12.640625 22.515625 14.9375 16.015625 
Q 18.453125 6.109375 26.953125 6.109375 
z
" id="Helvetica-48"/>
       <path d="M 8.546875 10.640625 
L 18.75 10.640625 
L 18.75 0 
L 8.546875 0 
z
" id="Helvetica-46"/>
       <path d="M 9.578125 49.515625 
L 9.578125 56.25 
Q 19.09375 57.171875 22.84375 59.34375 
Q 26.609375 61.53125 28.46875 69.625 
L 35.40625 69.625 
L 35.40625 0 
L 26.03125 0 
L 26.03125 49.515625 
z
" id="Helvetica-49"/>
       <path d="M 12.359375 17.828125 
Q 13.234375 10.296875 19.34375 7.421875 
Q 22.46875 5.953125 26.5625 5.953125 
Q 34.375 5.953125 38.125 10.9375 
Q 41.890625 15.921875 41.890625 21.96875 
Q 41.890625 29.296875 37.421875 33.296875 
Q 32.953125 37.3125 26.703125 37.3125 
Q 22.171875 37.3125 18.921875 35.546875 
Q 15.671875 33.796875 13.375 30.671875 
L 5.765625 31.109375 
L 11.078125 68.75 
L 47.40625 68.75 
L 47.40625 60.25 
L 17.671875 60.25 
L 14.703125 40.828125 
Q 17.140625 42.671875 19.34375 43.609375 
Q 23.25 45.21875 28.375 45.21875 
Q 37.984375 45.21875 44.671875 39.015625 
Q 51.375 32.8125 51.375 23.296875 
Q 51.375 13.375 45.234375 5.796875 
Q 39.109375 -1.765625 25.6875 -1.765625 
Q 17.140625 -1.765625 10.5625 3.046875 
Q 4 7.859375 3.21875 17.828125 
z
" id="Helvetica-53"/>
      </defs>
      <g style="fill:#262626;" transform="translate(211.782109 158.051547)scale(0.077 -0.077)">
       <use xlink:href="#Helvetica-8722"/>
       <use x="58.398438" xlink:href="#Helvetica-48"/>
       <use x="114.013672" xlink:href="#Helvetica-46"/>
       <use x="141.796875" xlink:href="#Helvetica-49"/>
       <use x="197.412109" xlink:href="#Helvetica-53"/>
      </g>
     </g>
    </g>
    <g id="xtick_2">
     <g id="line2d_2">
      <g>
       <use style="fill:#262626;stroke:#262626;stroke-width:1.25;" x="277.929263" xlink:href="#ma3122dac2d" y="143.028"/>
      </g>
     </g>
     <g id="text_2">
      <!-- −0.10 -->
      <g style="fill:#262626;" transform="translate(268.188162 158.051547)scale(0.077 -0.077)">
       <use xlink:href="#Helvetica-8722"/>
       <use x="58.398438" xlink:href="#Helvetica-48"/>
       <use x="114.013672" xlink:href="#Helvetica-46"/>
       <use x="141.796875" xlink:href="#Helvetica-49"/>
       <use x="197.412109" xlink:href="#Helvetica-48"/>
      </g>
     </g>
    </g>
    <g id="xtick_3">
     <g id="line2d_3">
      <g>
       <use style="fill:#262626;stroke:#262626;stroke-width:1.25;" x="334.335316" xlink:href="#ma3122dac2d" y="143.028"/>
      </g>
     </g>
     <g id="text_3">
      <!-- −0.05 -->
      <g style="fill:#262626;" transform="translate(324.594214 158.051547)scale(0.077 -0.077)">
       <use xlink:href="#Helvetica-8722"/>
       <use x="58.398438" xlink:href="#Helvetica-48"/>
       <use x="114.013672" xlink:href="#Helvetica-46"/>
       <use x="141.796875" xlink:href="#Helvetica-48"/>
       <use x="197.412109" xlink:href="#Helvetica-53"/>
      </g>
     </g>
    </g>
    <g id="xtick_4">
     <g id="line2d_4">
      <g>
       <use style="fill:#262626;stroke:#262626;stroke-width:1.25;" x="390.741368" xlink:href="#ma3122dac2d" y="143.028"/>
      </g>
     </g>
     <g id="text_4">
      <!-- 0.00 -->
      <g style="fill:#262626;" transform="translate(383.248907 158.051547)scale(0.077 -0.077)">
       <use xlink:href="#Helvetica-48"/>
       <use x="55.615234" xlink:href="#Helvetica-46"/>
       <use x="83.398438" xlink:href="#Helvetica-48"/>
       <use x="139.013672" xlink:href="#Helvetica-48"/>
      </g>
     </g>
    </g>
    <g id="xtick_5">
     <g id="line2d_5">
      <g>
       <use style="fill:#262626;stroke:#262626;stroke-width:1.25;" x="447.147421" xlink:href="#ma3122dac2d" y="143.028"/>
      </g>
     </g>
     <g id="text_5">
      <!-- 0.05 -->
      <g style="fill:#262626;" transform="translate(439.65496 158.051547)scale(0.077 -0.077)">
       <use xlink:href="#Helvetica-48"/>
       <use x="55.615234" xlink:href="#Helvetica-46"/>
       <use x="83.398438" xlink:href="#Helvetica-48"/>
       <use x="139.013672" xlink:href="#Helvetica-53"/>
      </g>
     </g>
    </g>
    <g id="xtick_6">
     <g id="line2d_6">
      <g>
       <use style="fill:#262626;stroke:#262626;stroke-width:1.25;" x="503.553474" xlink:href="#ma3122dac2d" y="143.028"/>
      </g>
     </g>
     <g id="text_6">
      <!-- 0.10 -->
      <g style="fill:#262626;" transform="translate(496.061013 158.051547)scale(0.077 -0.077)">
       <use xlink:href="#Helvetica-48"/>
       <use x="55.615234" xlink:href="#Helvetica-46"/>
       <use x="83.398438" xlink:href="#Helvetica-49"/>
       <use x="139.013672" xlink:href="#Helvetica-48"/>
      </g>
     </g>
    </g>
    <g id="xtick_7">
     <g id="line2d_7">
      <g>
       <use style="fill:#262626;stroke:#262626;stroke-width:1.25;" x="559.959526" xlink:href="#ma3122dac2d" y="143.028"/>
      </g>
     </g>
     <g id="text_7">
      <!-- 0.15 -->
      <g style="fill:#262626;" transform="translate(552.467065 158.051547)scale(0.077 -0.077)">
       <use xlink:href="#Helvetica-48"/>
       <use x="55.615234" xlink:href="#Helvetica-46"/>
       <use x="83.398438" xlink:href="#Helvetica-49"/>
       <use x="139.013672" xlink:href="#Helvetica-53"/>
      </g>
     </g>
    </g>
    <g id="xtick_8">
     <g id="line2d_8">
      <g>
       <use style="fill:#262626;stroke:#262626;stroke-width:1.25;" x="616.365579" xlink:href="#ma3122dac2d" y="143.028"/>
      </g>
     </g>
     <g id="text_8">
      <!-- 0.20 -->
      <defs>
       <path d="M 3.125 0 
Q 3.609375 9.03125 6.859375 15.71875 
Q 10.109375 22.40625 19.53125 27.875 
L 28.90625 33.296875 
Q 35.203125 36.96875 37.75 39.546875 
Q 41.75 43.609375 41.75 48.828125 
Q 41.75 54.9375 38.078125 58.515625 
Q 34.421875 62.109375 28.328125 62.109375 
Q 19.28125 62.109375 15.828125 55.28125 
Q 13.96875 51.609375 13.765625 45.125 
L 4.828125 45.125 
Q 4.984375 54.25 8.203125 60.015625 
Q 13.921875 70.171875 28.375 70.171875 
Q 40.375 70.171875 45.921875 63.671875 
Q 51.46875 57.171875 51.46875 49.21875 
Q 51.46875 40.828125 45.5625 34.859375 
Q 42.140625 31.390625 33.296875 26.46875 
L 26.609375 22.75 
Q 21.828125 20.125 19.09375 17.71875 
Q 14.203125 13.484375 12.9375 8.296875 
L 51.125 8.296875 
L 51.125 0 
L 3.125 0 
z
" id="Helvetica-50"/>
      </defs>
      <g style="fill:#262626;" transform="translate(608.873118 158.051547)scale(0.077 -0.077)">
       <use xlink:href="#Helvetica-48"/>
       <use x="55.615234" xlink:href="#Helvetica-46"/>
       <use x="83.398438" xlink:href="#Helvetica-50"/>
       <use x="139.013672" xlink:href="#Helvetica-48"/>
      </g>
     </g>
    </g>
    <g id="text_9">
     <!-- log2 fold change -->
     <defs>
      <path d="M 6.6875 71.734375 
L 15.484375 71.734375 
L 15.484375 0 
L 6.6875 0 
z
" id="Helvetica-108"/>
      <path d="M 27.203125 5.671875 
Q 35.9375 5.671875 39.1875 12.28125 
Q 42.4375 18.890625 42.4375 27 
Q 42.4375 34.328125 40.09375 38.921875 
Q 36.375 46.140625 27.296875 46.140625 
Q 19.234375 46.140625 15.578125 39.984375 
Q 11.921875 33.84375 11.921875 25.140625 
Q 11.921875 16.796875 15.578125 11.234375 
Q 19.234375 5.671875 27.203125 5.671875 
z
M 27.546875 53.8125 
Q 37.640625 53.8125 44.625 47.0625 
Q 51.609375 40.328125 51.609375 27.25 
Q 51.609375 14.59375 45.453125 6.34375 
Q 39.3125 -1.90625 26.375 -1.90625 
Q 15.578125 -1.90625 9.21875 5.390625 
Q 2.875 12.703125 2.875 25 
Q 2.875 38.1875 9.5625 46 
Q 16.265625 53.8125 27.546875 53.8125 
z
M 27.25 53.5625 
z
" id="Helvetica-111"/>
      <path d="M 24.90625 53.21875 
Q 31.0625 53.21875 35.640625 50.203125 
Q 38.140625 48.484375 40.71875 45.21875 
L 40.71875 51.8125 
L 48.828125 51.8125 
L 48.828125 4.25 
Q 48.828125 -5.71875 45.90625 -11.46875 
Q 40.4375 -22.125 25.25 -22.125 
Q 16.796875 -22.125 11.03125 -18.328125 
Q 5.28125 -14.546875 4.59375 -6.5 
L 13.53125 -6.5 
Q 14.15625 -10.015625 16.0625 -11.921875 
Q 19.046875 -14.84375 25.4375 -14.84375 
Q 35.546875 -14.84375 38.671875 -7.71875 
Q 40.53125 -3.515625 40.375 7.28125 
Q 37.75 3.265625 34.03125 1.3125 
Q 30.328125 -0.640625 24.21875 -0.640625 
Q 15.71875 -0.640625 9.34375 5.390625 
Q 2.984375 11.421875 2.984375 25.34375 
Q 2.984375 38.484375 9.40625 45.84375 
Q 15.828125 53.21875 24.90625 53.21875 
z
M 40.71875 26.375 
Q 40.71875 36.078125 36.71875 40.765625 
Q 32.71875 45.453125 26.515625 45.453125 
Q 17.234375 45.453125 13.8125 36.765625 
Q 12.015625 32.125 12.015625 24.609375 
Q 12.015625 15.765625 15.59375 11.15625 
Q 19.1875 6.546875 25.25 6.546875 
Q 34.71875 6.546875 38.578125 15.09375 
Q 40.71875 19.921875 40.71875 26.375 
z
M 25.921875 53.5625 
z
" id="Helvetica-103"/>
      <path id="Helvetica-32"/>
      <path d="M 8.640625 60.25 
Q 8.84375 65.71875 10.546875 68.265625 
Q 13.625 72.75 22.40625 72.75 
Q 23.25 72.75 24.125 72.703125 
Q 25 72.65625 26.125 72.5625 
L 26.125 64.546875 
Q 24.75 64.65625 24.140625 64.671875 
Q 23.53125 64.703125 23 64.703125 
Q 19 64.703125 18.21875 62.625 
Q 17.4375 60.546875 17.4375 52.046875 
L 26.125 52.046875 
L 26.125 45.125 
L 17.328125 45.125 
L 17.328125 0 
L 8.640625 0 
L 8.640625 45.125 
L 1.375 45.125 
L 1.375 52.046875 
L 8.640625 52.046875 
L 8.640625 60.25 
z
" id="Helvetica-102"/>
      <path d="M 12.015625 25.53125 
Q 12.015625 17.140625 15.578125 11.46875 
Q 19.140625 5.8125 27 5.8125 
Q 33.109375 5.8125 37.03125 11.0625 
Q 40.96875 16.3125 40.96875 26.125 
Q 40.96875 36.03125 36.90625 40.796875 
Q 32.859375 45.5625 26.90625 45.5625 
Q 20.265625 45.5625 16.140625 40.484375 
Q 12.015625 35.40625 12.015625 25.53125 
z
M 25.25 53.21875 
Q 31.25 53.21875 35.296875 50.6875 
Q 37.640625 49.21875 40.625 45.5625 
L 40.625 71.96875 
L 49.078125 71.96875 
L 49.078125 0 
L 41.15625 0 
L 41.15625 7.28125 
Q 38.09375 2.4375 33.890625 0.28125 
Q 29.6875 -1.859375 24.265625 -1.859375 
Q 15.53125 -1.859375 9.125 5.484375 
Q 2.734375 12.84375 2.734375 25.046875 
Q 2.734375 36.46875 8.5625 44.84375 
Q 14.40625 53.21875 25.25 53.21875 
z
" id="Helvetica-100"/>
      <path d="M 26.609375 53.8125 
Q 35.453125 53.8125 40.984375 49.515625 
Q 46.53125 45.21875 47.65625 34.71875 
L 39.109375 34.71875 
Q 38.328125 39.546875 35.546875 42.75 
Q 32.765625 45.953125 26.609375 45.953125 
Q 18.21875 45.953125 14.59375 37.75 
Q 12.25 32.421875 12.25 24.609375 
Q 12.25 16.75 15.5625 11.375 
Q 18.890625 6 26.03125 6 
Q 31.5 6 34.6875 9.34375 
Q 37.890625 12.703125 39.109375 18.5 
L 47.65625 18.5 
Q 46.1875 8.109375 40.328125 3.296875 
Q 34.46875 -1.515625 25.34375 -1.515625 
Q 15.09375 -1.515625 8.984375 5.984375 
Q 2.875 13.484375 2.875 24.703125 
Q 2.875 38.484375 9.5625 46.140625 
Q 16.265625 53.8125 26.609375 53.8125 
z
M 25.25 53.5625 
z
" id="Helvetica-99"/>
      <path d="M 6.453125 71.96875 
L 15.234375 71.96875 
L 15.234375 45.21875 
Q 18.359375 49.171875 20.84375 50.78125 
Q 25.09375 53.5625 31.453125 53.5625 
Q 42.828125 53.5625 46.875 45.609375 
Q 49.078125 41.265625 49.078125 33.546875 
L 49.078125 0 
L 40.046875 0 
L 40.046875 32.953125 
Q 40.046875 38.71875 38.578125 41.40625 
Q 36.1875 45.703125 29.59375 45.703125 
Q 24.125 45.703125 19.671875 41.9375 
Q 15.234375 38.1875 15.234375 27.734375 
L 15.234375 0 
L 6.453125 0 
z
" id="Helvetica-104"/>
      <path d="M 13.1875 13.921875 
Q 13.1875 10.109375 15.96875 7.90625 
Q 18.75 5.71875 22.5625 5.71875 
Q 27.203125 5.71875 31.546875 7.859375 
Q 38.875 11.421875 38.875 19.53125 
L 38.875 26.609375 
Q 37.25 25.59375 34.703125 24.90625 
Q 32.171875 24.21875 29.734375 23.921875 
L 24.421875 23.25 
Q 19.625 22.609375 17.234375 21.234375 
Q 13.1875 18.953125 13.1875 13.921875 
z
M 34.46875 31.6875 
Q 37.5 32.078125 38.53125 34.234375 
Q 39.109375 35.40625 39.109375 37.59375 
Q 39.109375 42.09375 35.90625 44.109375 
Q 32.71875 46.140625 26.765625 46.140625 
Q 19.875 46.140625 17 42.4375 
Q 15.375 40.375 14.890625 36.328125 
L 6.6875 36.328125 
Q 6.9375 46 12.96875 49.78125 
Q 19 53.5625 26.953125 53.5625 
Q 36.1875 53.5625 41.9375 50.046875 
Q 47.65625 46.53125 47.65625 39.109375 
L 47.65625 8.984375 
Q 47.65625 7.625 48.21875 6.78125 
Q 48.78125 5.953125 50.59375 5.953125 
Q 51.171875 5.953125 51.90625 6.03125 
Q 52.640625 6.109375 53.46875 6.25 
L 53.46875 -0.25 
Q 51.421875 -0.828125 50.34375 -0.96875 
Q 49.265625 -1.125 47.40625 -1.125 
Q 42.875 -1.125 40.828125 2.09375 
Q 39.75 3.8125 39.3125 6.9375 
Q 36.625 3.421875 31.59375 0.828125 
Q 26.5625 -1.765625 20.515625 -1.765625 
Q 13.234375 -1.765625 8.609375 2.65625 
Q 4 7.078125 4 13.71875 
Q 4 21 8.546875 25 
Q 13.09375 29 20.453125 29.9375 
z
M 27.203125 53.5625 
z
" id="Helvetica-97"/>
      <path d="M 6.453125 52.296875 
L 14.796875 52.296875 
L 14.796875 44.875 
Q 18.5 49.46875 22.65625 51.46875 
Q 26.8125 53.46875 31.890625 53.46875 
Q 43.015625 53.46875 46.921875 45.703125 
Q 49.078125 41.453125 49.078125 33.546875 
L 49.078125 0 
L 40.140625 0 
L 40.140625 32.953125 
Q 40.140625 37.75 38.71875 40.671875 
Q 36.375 45.5625 30.21875 45.5625 
Q 27.09375 45.5625 25.09375 44.921875 
Q 21.484375 43.84375 18.75 40.625 
Q 16.546875 38.03125 15.890625 35.265625 
Q 15.234375 32.515625 15.234375 27.390625 
L 15.234375 0 
L 6.453125 0 
z
M 27.09375 53.5625 
z
" id="Helvetica-110"/>
      <path d="M 28.21875 53.46875 
Q 33.796875 53.46875 39.015625 50.859375 
Q 44.234375 48.25 46.96875 44.09375 
Q 49.609375 40.140625 50.484375 34.859375 
Q 51.265625 31.25 51.265625 23.34375 
L 12.9375 23.34375 
Q 13.1875 15.375 16.703125 10.5625 
Q 20.21875 5.765625 27.59375 5.765625 
Q 34.46875 5.765625 38.578125 10.296875 
Q 40.921875 12.9375 41.890625 16.40625 
L 50.53125 16.40625 
Q 50.203125 13.53125 48.265625 9.984375 
Q 46.34375 6.453125 43.953125 4.203125 
Q 39.9375 0.296875 34.03125 -1.078125 
Q 30.859375 -1.859375 26.859375 -1.859375 
Q 17.09375 -1.859375 10.296875 5.25 
Q 3.515625 12.359375 3.515625 25.140625 
Q 3.515625 37.75 10.34375 45.609375 
Q 17.1875 53.46875 28.21875 53.46875 
z
M 42.234375 30.328125 
Q 41.703125 36.03125 39.75 39.453125 
Q 36.140625 45.796875 27.6875 45.796875 
Q 21.625 45.796875 17.515625 41.421875 
Q 13.421875 37.0625 13.1875 30.328125 
z
M 27.390625 53.5625 
z
" id="Helvetica-101"/>
     </defs>
     <g style="fill:#262626;" transform="translate(393.76225 169.767516)scale(0.084 -0.084)">
      <use xlink:href="#Helvetica-108"/>
      <use x="22.216797" xlink:href="#Helvetica-111"/>
      <use x="77.832031" xlink:href="#Helvetica-103"/>
      <use x="133.447266" xlink:href="#Helvetica-50"/>
      <use x="189.0625" xlink:href="#Helvetica-32"/>
      <use x="216.845703" xlink:href="#Helvetica-102"/>
      <use x="244.628906" xlink:href="#Helvetica-111"/>
      <use x="300.244141" xlink:href="#Helvetica-108"/>
      <use x="322.460938" xlink:href="#Helvetica-100"/>
      <use x="378.076172" xlink:href="#Helvetica-32"/>
      <use x="405.859375" xlink:href="#Helvetica-99"/>
      <use x="455.859375" xlink:href="#Helvetica-104"/>
      <use x="511.474609" xlink:href="#Helvetica-97"/>
      <use x="567.089844" xlink:href="#Helvetica-110"/>
      <use x="622.705078" xlink:href="#Helvetica-103"/>
      <use x="678.320312" xlink:href="#Helvetica-101"/>
     </g>
    </g>
   </g>
   <g id="matplotlib.axis_2">
    <g id="ytick_1">
     <g id="line2d_9">
      <defs>
       <path d="M 0 0 
L -6 0 
" id="mbbe6e1e45e" style="stroke:#262626;stroke-width:1.25;"/>
      </defs>
      <g>
       <use style="fill:#262626;stroke:#262626;stroke-width:1.25;" x="204.242" xlink:href="#mbbe6e1e45e" y="131.746364"/>
      </g>
     </g>
     <g id="text_10">
      <!-- KEGG_SPLICEOSOME -->
      <defs>
       <path d="M 7.625 71.734375 
L 17.09375 71.734375 
L 17.09375 36.765625 
L 52.046875 71.734375 
L 65.484375 71.734375 
L 35.640625 42.828125 
L 66.3125 0 
L 53.65625 0 
L 28.5625 35.984375 
L 17.09375 25 
L 17.09375 0 
L 7.625 0 
z
" id="Helvetica-75"/>
       <path d="M 8.546875 71.734375 
L 60.84375 71.734375 
L 60.84375 62.9375 
L 18.015625 62.9375 
L 18.015625 41.15625 
L 57.625 41.15625 
L 57.625 32.859375 
L 18.015625 32.859375 
L 18.015625 8.546875 
L 61.578125 8.546875 
L 61.578125 0 
L 8.546875 0 
z
M 35.0625 71.734375 
z
" id="Helvetica-69"/>
       <path d="M 38.625 73.578125 
Q 48.734375 73.578125 56.109375 69.671875 
Q 66.796875 64.0625 69.1875 50 
L 59.578125 50 
Q 57.8125 57.859375 52.296875 61.453125 
Q 46.78125 65.046875 38.375 65.046875 
Q 28.421875 65.046875 21.609375 57.5625 
Q 14.796875 50.09375 14.796875 35.296875 
Q 14.796875 22.515625 20.40625 14.484375 
Q 26.03125 6.453125 38.71875 6.453125 
Q 48.4375 6.453125 54.8125 12.078125 
Q 61.1875 17.71875 61.328125 30.328125 
L 38.875 30.328125 
L 38.875 38.375 
L 70.359375 38.375 
L 70.359375 0 
L 64.109375 0 
L 61.765625 9.234375 
Q 56.84375 3.8125 53.03125 1.703125 
Q 46.625 -1.90625 36.765625 -1.90625 
Q 24.03125 -1.90625 14.84375 6.34375 
Q 4.828125 16.703125 4.828125 34.765625 
Q 4.828125 52.78125 14.59375 63.421875 
Q 23.875 73.578125 38.625 73.578125 
z
M 37.015625 73.6875 
z
" id="Helvetica-71"/>
       <path d="M 0 -12.5 
L 0 -7.5625 
L 55.609375 -7.5625 
L 55.609375 -12.5 
z
" id="Helvetica-95"/>
       <path d="M 13.96875 23.140625 
Q 14.3125 17.046875 16.84375 13.234375 
Q 21.6875 6.109375 33.890625 6.109375 
Q 39.359375 6.109375 43.84375 7.671875 
Q 52.546875 10.6875 52.546875 18.5 
Q 52.546875 24.359375 48.875 26.859375 
Q 45.171875 29.296875 37.25 31.109375 
L 27.546875 33.296875 
Q 18.015625 35.453125 14.0625 38.03125 
Q 7.234375 42.53125 7.234375 51.46875 
Q 7.234375 61.140625 13.921875 67.328125 
Q 20.609375 73.53125 32.859375 73.53125 
Q 44.140625 73.53125 52.015625 68.078125 
Q 59.90625 62.640625 59.90625 50.6875 
L 50.78125 50.6875 
Q 50.046875 56.453125 47.65625 59.515625 
Q 43.21875 65.140625 32.5625 65.140625 
Q 23.96875 65.140625 20.203125 61.515625 
Q 16.453125 57.90625 16.453125 53.125 
Q 16.453125 47.859375 20.84375 45.40625 
Q 23.734375 43.84375 33.890625 41.5 
L 43.953125 39.203125 
Q 51.21875 37.546875 55.171875 34.671875 
Q 62.015625 29.640625 62.015625 20.0625 
Q 62.015625 8.15625 53.34375 3.03125 
Q 44.671875 -2.09375 33.203125 -2.09375 
Q 19.828125 -2.09375 12.25 4.734375 
Q 4.6875 11.53125 4.828125 23.140625 
z
M 33.59375 73.6875 
z
" id="Helvetica-83"/>
       <path d="M 8.546875 71.734375 
L 40.828125 71.734375 
Q 50.390625 71.734375 56.25 66.328125 
Q 62.109375 60.9375 62.109375 51.171875 
Q 62.109375 42.78125 56.875 36.546875 
Q 51.65625 30.328125 40.828125 30.328125 
L 18.265625 30.328125 
L 18.265625 0 
L 8.546875 0 
z
M 52.296875 51.125 
Q 52.296875 59.03125 46.4375 61.859375 
Q 43.21875 63.375 37.59375 63.375 
L 18.265625 63.375 
L 18.265625 38.53125 
L 37.59375 38.53125 
Q 44.140625 38.53125 48.21875 41.3125 
Q 52.296875 44.09375 52.296875 51.125 
z
" id="Helvetica-80"/>
       <path d="M 7.625 71.734375 
L 17.328125 71.734375 
L 17.328125 8.546875 
L 53.65625 8.546875 
L 53.65625 0 
L 7.625 0 
z
" id="Helvetica-76"/>
       <path d="M 9.8125 71.734375 
L 19.625 71.734375 
L 19.625 0 
L 9.8125 0 
z
" id="Helvetica-73"/>
       <path d="M 37.84375 73.6875 
Q 51.46875 73.6875 58.984375 66.5 
Q 66.5 59.328125 67.328125 50.203125 
L 57.859375 50.203125 
Q 56.25 57.125 51.4375 61.171875 
Q 46.625 65.234375 37.9375 65.234375 
Q 27.34375 65.234375 20.828125 57.78125 
Q 14.3125 50.34375 14.3125 34.96875 
Q 14.3125 22.359375 20.1875 14.515625 
Q 26.078125 6.6875 37.75 6.6875 
Q 48.484375 6.6875 54.109375 14.9375 
Q 57.078125 19.28125 58.546875 26.375 
L 68.015625 26.375 
Q 66.75 15.046875 59.625 7.375 
Q 51.078125 -1.859375 36.578125 -1.859375 
Q 24.078125 -1.859375 15.578125 5.71875 
Q 4.390625 15.71875 4.390625 36.625 
Q 4.390625 52.484375 12.796875 62.640625 
Q 21.875 73.6875 37.84375 73.6875 
z
M 35.890625 73.6875 
z
" id="Helvetica-67"/>
       <path d="M 38.578125 73.6875 
Q 57.5625 73.6875 66.703125 61.46875 
Q 73.828125 51.953125 73.828125 37.109375 
Q 73.828125 21.046875 65.671875 10.40625 
Q 56.109375 -2.09375 38.375 -2.09375 
Q 21.828125 -2.09375 12.359375 8.84375 
Q 3.90625 19.390625 3.90625 35.5 
Q 3.90625 50.046875 11.140625 60.40625 
Q 20.40625 73.6875 38.578125 73.6875 
z
M 39.546875 6.59375 
Q 52.390625 6.59375 58.125 15.796875 
Q 63.875 25 63.875 36.96875 
Q 63.875 49.609375 57.25 57.328125 
Q 50.640625 65.046875 39.15625 65.046875 
Q 28.03125 65.046875 21 57.390625 
Q 13.96875 49.75 13.96875 34.859375 
Q 13.96875 22.953125 20 14.765625 
Q 26.03125 6.59375 39.546875 6.59375 
z
M 38.875 73.6875 
z
" id="Helvetica-79"/>
       <path d="M 7.375 71.734375 
L 21.296875 71.734375 
L 41.890625 11.078125 
L 62.359375 71.734375 
L 76.125 71.734375 
L 76.125 0 
L 66.890625 0 
L 66.890625 42.328125 
Q 66.890625 44.53125 66.984375 49.609375 
Q 67.09375 54.6875 67.09375 60.5 
L 46.625 0 
L 37.015625 0 
L 16.40625 60.5 
L 16.40625 58.296875 
Q 16.40625 55.671875 16.53125 50.265625 
Q 16.65625 44.875 16.65625 42.328125 
L 16.65625 0 
L 7.375 0 
z
" id="Helvetica-77"/>
      </defs>
      <g style="fill:#262626;" transform="translate(112.154687 134.508137)scale(0.077 -0.077)">
       <use xlink:href="#Helvetica-75"/>
       <use x="66.699219" xlink:href="#Helvetica-69"/>
       <use x="133.398438" xlink:href="#Helvetica-71"/>
       <use x="211.181641" xlink:href="#Helvetica-71"/>
       <use x="288.964844" xlink:href="#Helvetica-95"/>
       <use x="344.580078" xlink:href="#Helvetica-83"/>
       <use x="411.279297" xlink:href="#Helvetica-80"/>
       <use x="477.978516" xlink:href="#Helvetica-76"/>
       <use x="533.59375" xlink:href="#Helvetica-73"/>
       <use x="561.376953" xlink:href="#Helvetica-67"/>
       <use x="633.59375" xlink:href="#Helvetica-69"/>
       <use x="700.292969" xlink:href="#Helvetica-79"/>
       <use x="778.076172" xlink:href="#Helvetica-83"/>
       <use x="844.775391" xlink:href="#Helvetica-79"/>
       <use x="922.558594" xlink:href="#Helvetica-77"/>
       <use x="1005.859375" xlink:href="#Helvetica-69"/>
      </g>
     </g>
    </g>
    <g id="ytick_2">
     <g id="line2d_10">
      <g>
       <use style="fill:#262626;stroke:#262626;stroke-width:1.25;" x="204.242" xlink:href="#mbbe6e1e45e" y="105.338182"/>
      </g>
     </g>
     <g id="text_11">
      <!-- KEGG_LYSOSOME -->
      <defs>
       <path d="M 2.046875 71.734375 
L 13.375 71.734375 
L 33.984375 37.25 
L 54.59375 71.734375 
L 65.96875 71.734375 
L 38.875 28.90625 
L 38.875 0 
L 29.15625 0 
L 29.15625 28.90625 
z
M 34.125 71.734375 
z
" id="Helvetica-89"/>
      </defs>
      <g style="fill:#262626;" transform="translate(124.990828 108.099955)scale(0.077 -0.077)">
       <use xlink:href="#Helvetica-75"/>
       <use x="66.699219" xlink:href="#Helvetica-69"/>
       <use x="133.398438" xlink:href="#Helvetica-71"/>
       <use x="211.181641" xlink:href="#Helvetica-71"/>
       <use x="288.964844" xlink:href="#Helvetica-95"/>
       <use x="344.580078" xlink:href="#Helvetica-76"/>
       <use x="400.195312" xlink:href="#Helvetica-89"/>
       <use x="466.894531" xlink:href="#Helvetica-83"/>
       <use x="533.59375" xlink:href="#Helvetica-79"/>
       <use x="611.376953" xlink:href="#Helvetica-83"/>
       <use x="678.076172" xlink:href="#Helvetica-79"/>
       <use x="755.859375" xlink:href="#Helvetica-77"/>
       <use x="839.160156" xlink:href="#Helvetica-69"/>
      </g>
     </g>
    </g>
    <g id="ytick_3">
     <g id="line2d_11">
      <g>
       <use style="fill:#262626;stroke:#262626;stroke-width:1.25;" x="204.242" xlink:href="#mbbe6e1e45e" y="78.93"/>
      </g>
     </g>
     <g id="text_12">
      <!-- KEGG_N_GLYCAN_BIOSYNTHESIS -->
      <defs>
       <path d="M 7.625 71.734375 
L 19.09375 71.734375 
L 55.328125 13.625 
L 55.328125 71.734375 
L 64.546875 71.734375 
L 64.546875 0 
L 53.65625 0 
L 16.890625 58.0625 
L 16.890625 0 
L 7.625 0 
z
M 35.453125 71.734375 
z
" id="Helvetica-78"/>
       <path d="M 44.4375 29.390625 
L 33.546875 61.078125 
L 21.96875 29.390625 
z
M 28.46875 71.734375 
L 39.453125 71.734375 
L 65.484375 0 
L 54.828125 0 
L 47.5625 21.484375 
L 19.1875 21.484375 
L 11.421875 0 
L 1.46875 0 
z
M 33.5 71.734375 
z
" id="Helvetica-65"/>
       <path d="M 34.578125 41.40625 
Q 40.71875 41.40625 44.140625 43.109375 
Q 49.515625 45.796875 49.515625 52.78125 
Q 49.515625 59.8125 43.796875 62.25 
Q 40.578125 63.625 34.234375 63.625 
L 16.890625 63.625 
L 16.890625 41.40625 
z
M 37.84375 8.296875 
Q 46.78125 8.296875 50.59375 13.484375 
Q 52.984375 16.75 52.984375 21.390625 
Q 52.984375 29.203125 46 32.03125 
Q 42.28125 33.546875 36.1875 33.546875 
L 16.890625 33.546875 
L 16.890625 8.296875 
z
M 7.375 71.734375 
L 38.1875 71.734375 
Q 50.78125 71.734375 56.109375 64.203125 
Q 59.234375 59.765625 59.234375 53.953125 
Q 59.234375 47.171875 55.375 42.828125 
Q 53.375 40.53125 49.609375 38.625 
Q 55.125 36.53125 57.859375 33.890625 
Q 62.703125 29.203125 62.703125 20.953125 
Q 62.703125 14.015625 58.34375 8.40625 
Q 51.859375 0 37.703125 0 
L 7.375 0 
z
" id="Helvetica-66"/>
       <path d="M 59.8125 71.734375 
L 59.8125 63.1875 
L 35.640625 63.1875 
L 35.640625 0 
L 25.78125 0 
L 25.78125 63.1875 
L 1.609375 63.1875 
L 1.609375 71.734375 
z
" id="Helvetica-84"/>
       <path d="M 7.859375 71.734375 
L 17.671875 71.734375 
L 17.671875 42.09375 
L 54.984375 42.09375 
L 54.984375 71.734375 
L 64.796875 71.734375 
L 64.796875 0 
L 54.984375 0 
L 54.984375 33.546875 
L 17.671875 33.546875 
L 17.671875 0 
L 7.859375 0 
z
" id="Helvetica-72"/>
      </defs>
      <g style="fill:#262626;" transform="translate(65.510734 81.691773)scale(0.077 -0.077)">
       <use xlink:href="#Helvetica-75"/>
       <use x="66.699219" xlink:href="#Helvetica-69"/>
       <use x="133.398438" xlink:href="#Helvetica-71"/>
       <use x="211.181641" xlink:href="#Helvetica-71"/>
       <use x="288.964844" xlink:href="#Helvetica-95"/>
       <use x="344.580078" xlink:href="#Helvetica-78"/>
       <use x="416.796875" xlink:href="#Helvetica-95"/>
       <use x="472.412109" xlink:href="#Helvetica-71"/>
       <use x="550.195312" xlink:href="#Helvetica-76"/>
       <use x="605.810547" xlink:href="#Helvetica-89"/>
       <use x="672.509766" xlink:href="#Helvetica-67"/>
       <use x="744.726562" xlink:href="#Helvetica-65"/>
       <use x="811.425781" xlink:href="#Helvetica-78"/>
       <use x="883.642578" xlink:href="#Helvetica-95"/>
       <use x="939.257812" xlink:href="#Helvetica-66"/>
       <use x="1005.957031" xlink:href="#Helvetica-73"/>
       <use x="1033.740234" xlink:href="#Helvetica-79"/>
       <use x="1111.523438" xlink:href="#Helvetica-83"/>
       <use x="1178.222656" xlink:href="#Helvetica-89"/>
       <use x="1244.921875" xlink:href="#Helvetica-78"/>
       <use x="1317.138672" xlink:href="#Helvetica-84"/>
       <use x="1378.222656" xlink:href="#Helvetica-72"/>
       <use x="1450.439453" xlink:href="#Helvetica-69"/>
       <use x="1517.138672" xlink:href="#Helvetica-83"/>
       <use x="1583.837891" xlink:href="#Helvetica-73"/>
       <use x="1611.621094" xlink:href="#Helvetica-83"/>
      </g>
     </g>
    </g>
    <g id="ytick_4">
     <g id="line2d_12">
      <g>
       <use style="fill:#262626;stroke:#262626;stroke-width:1.25;" x="204.242" xlink:href="#mbbe6e1e45e" y="52.521818"/>
      </g>
     </g>
     <g id="text_13">
      <!-- KEGG_SPHINGOLIPID_METABOLISM -->
      <defs>
       <path d="M 35.15625 8.296875 
Q 40.09375 8.296875 43.265625 9.328125 
Q 48.921875 11.234375 52.546875 16.65625 
Q 55.421875 21 56.6875 27.78125 
Q 57.421875 31.84375 57.421875 35.296875 
Q 57.421875 48.640625 52.125 56 
Q 46.828125 63.375 35.0625 63.375 
L 17.828125 63.375 
L 17.828125 8.296875 
z
M 8.0625 71.734375 
L 37.109375 71.734375 
Q 51.90625 71.734375 60.0625 61.234375 
Q 67.328125 51.765625 67.328125 36.96875 
Q 67.328125 25.53125 63.03125 16.3125 
Q 55.46875 0 37.015625 0 
L 8.0625 0 
z
" id="Helvetica-68"/>
      </defs>
      <g style="fill:#262626;" transform="translate(58.673375 55.283592)scale(0.077 -0.077)">
       <use xlink:href="#Helvetica-75"/>
       <use x="66.699219" xlink:href="#Helvetica-69"/>
       <use x="133.398438" xlink:href="#Helvetica-71"/>
       <use x="211.181641" xlink:href="#Helvetica-71"/>
       <use x="288.964844" xlink:href="#Helvetica-95"/>
       <use x="344.580078" xlink:href="#Helvetica-83"/>
       <use x="411.279297" xlink:href="#Helvetica-80"/>
       <use x="477.978516" xlink:href="#Helvetica-72"/>
       <use x="550.195312" xlink:href="#Helvetica-73"/>
       <use x="577.978516" xlink:href="#Helvetica-78"/>
       <use x="650.195312" xlink:href="#Helvetica-71"/>
       <use x="727.978516" xlink:href="#Helvetica-79"/>
       <use x="805.761719" xlink:href="#Helvetica-76"/>
       <use x="861.376953" xlink:href="#Helvetica-73"/>
       <use x="889.160156" xlink:href="#Helvetica-80"/>
       <use x="955.859375" xlink:href="#Helvetica-73"/>
       <use x="983.642578" xlink:href="#Helvetica-68"/>
       <use x="1055.859375" xlink:href="#Helvetica-95"/>
       <use x="1111.474609" xlink:href="#Helvetica-77"/>
       <use x="1194.775391" xlink:href="#Helvetica-69"/>
       <use x="1261.474609" xlink:href="#Helvetica-84"/>
       <use x="1322.558594" xlink:href="#Helvetica-65"/>
       <use x="1389.257812" xlink:href="#Helvetica-66"/>
       <use x="1455.957031" xlink:href="#Helvetica-79"/>
       <use x="1533.740234" xlink:href="#Helvetica-76"/>
       <use x="1589.355469" xlink:href="#Helvetica-73"/>
       <use x="1617.138672" xlink:href="#Helvetica-83"/>
       <use x="1683.837891" xlink:href="#Helvetica-77"/>
      </g>
     </g>
    </g>
    <g id="ytick_5">
     <g id="line2d_13">
      <g>
       <use style="fill:#262626;stroke:#262626;stroke-width:1.25;" x="204.242" xlink:href="#mbbe6e1e45e" y="26.113636"/>
      </g>
     </g>
     <g id="text_14">
      <!-- KEGG_GLYCOSYLPHOSPHATIDYLINOSITOL_GPI... -->
      <g style="fill:#262626;" transform="translate(7.319187 28.87541)scale(0.077 -0.077)">
       <use xlink:href="#Helvetica-75"/>
       <use x="66.699219" xlink:href="#Helvetica-69"/>
       <use x="133.398438" xlink:href="#Helvetica-71"/>
       <use x="211.181641" xlink:href="#Helvetica-71"/>
       <use x="288.964844" xlink:href="#Helvetica-95"/>
       <use x="344.580078" xlink:href="#Helvetica-71"/>
       <use x="422.363281" xlink:href="#Helvetica-76"/>
       <use x="477.978516" xlink:href="#Helvetica-89"/>
       <use x="544.677734" xlink:href="#Helvetica-67"/>
       <use x="616.894531" xlink:href="#Helvetica-79"/>
       <use x="694.677734" xlink:href="#Helvetica-83"/>
       <use x="761.376953" xlink:href="#Helvetica-89"/>
       <use x="828.076172" xlink:href="#Helvetica-76"/>
       <use x="883.691406" xlink:href="#Helvetica-80"/>
       <use x="950.390625" xlink:href="#Helvetica-72"/>
       <use x="1022.607422" xlink:href="#Helvetica-79"/>
       <use x="1100.390625" xlink:href="#Helvetica-83"/>
       <use x="1167.089844" xlink:href="#Helvetica-80"/>
       <use x="1233.789062" xlink:href="#Helvetica-72"/>
       <use x="1306.005859" xlink:href="#Helvetica-65"/>
       <use x="1372.705078" xlink:href="#Helvetica-84"/>
       <use x="1433.789062" xlink:href="#Helvetica-73"/>
       <use x="1461.572266" xlink:href="#Helvetica-68"/>
       <use x="1533.789062" xlink:href="#Helvetica-89"/>
       <use x="1600.488281" xlink:href="#Helvetica-76"/>
       <use x="1656.103516" xlink:href="#Helvetica-73"/>
       <use x="1683.886719" xlink:href="#Helvetica-78"/>
       <use x="1756.103516" xlink:href="#Helvetica-79"/>
       <use x="1833.886719" xlink:href="#Helvetica-83"/>
       <use x="1900.585938" xlink:href="#Helvetica-73"/>
       <use x="1928.369141" xlink:href="#Helvetica-84"/>
       <use x="1989.453125" xlink:href="#Helvetica-79"/>
       <use x="2067.236328" xlink:href="#Helvetica-76"/>
       <use x="2122.851562" xlink:href="#Helvetica-95"/>
       <use x="2178.466797" xlink:href="#Helvetica-71"/>
       <use x="2256.25" xlink:href="#Helvetica-80"/>
       <use x="2322.949219" xlink:href="#Helvetica-73"/>
       <use x="2350.732422" xlink:href="#Helvetica-46"/>
       <use x="2378.515625" xlink:href="#Helvetica-46"/>
       <use x="2406.298828" xlink:href="#Helvetica-46"/>
      </g>
     </g>
    </g>
   </g>
   <g id="PathCollection_1">
    <defs>
     <path d="M 0 3 
C 0.795609 3 1.55874 2.683901 2.12132 2.12132 
C 2.683901 1.55874 3 0.795609 3 0 
C 3 -0.795609 2.683901 -1.55874 2.12132 -2.12132 
C 1.55874 -2.683901 0.795609 -3 0 -3 
C -0.795609 -3 -1.55874 -2.683901 -2.12132 -2.12132 
C -2.683901 -1.55874 -3 -0.795609 -3 0 
C -3 0.795609 -2.683901 1.55874 -2.12132 2.12132 
C -1.55874 2.683901 -0.795609 3 0 3 
z
" id="md53107d62b" style="stroke:#66a5ad;"/>
    </defs>
    <g clip-path="url(#pe27269df45)">
     <use style="fill:#66a5ad;stroke:#66a5ad;" x="291.207303" xlink:href="#md53107d62b" y="131.746364"/>
     <use style="fill:#66a5ad;stroke:#66a5ad;" x="423.048014" xlink:href="#md53107d62b" y="105.338182"/>
     <use style="fill:#66a5ad;stroke:#66a5ad;" x="436.048753" xlink:href="#md53107d62b" y="78.93"/>
     <use style="fill:#66a5ad;stroke:#66a5ad;" x="478.539818" xlink:href="#md53107d62b" y="52.521818"/>
     <use style="fill:#66a5ad;stroke:#66a5ad;" x="539.79429" xlink:href="#md53107d62b" y="26.113636"/>
    </g>
   </g>
   <g id="PathCollection_2">
    <defs>
     <path d="M 0 3 
C 0.795609 3 1.55874 2.683901 2.12132 2.12132 
C 2.683901 1.55874 3 0.795609 3 0 
C 3 -0.795609 2.683901 -1.55874 2.12132 -2.12132 
C 1.55874 -2.683901 0.795609 -3 0 -3 
C -0.795609 -3 -1.55874 -2.683901 -2.12132 -2.12132 
C -2.683901 -1.55874 -3 -0.795609 -3 0 
C -3 0.795609 -2.683901 1.55874 -2.12132 2.12132 
C -1.55874 2.683901 -0.795609 3 0 3 
z
" id="mdbf857edeb" style="stroke:#c4dfe6;"/>
    </defs>
    <g clip-path="url(#pe27269df45)">
     <use style="fill:#c4dfe6;stroke:#c4dfe6;" x="232.016285" xlink:href="#mdbf857edeb" y="131.746364"/>
     <use style="fill:#c4dfe6;stroke:#c4dfe6;" x="480.385929" xlink:href="#mdbf857edeb" y="105.338182"/>
     <use style="fill:#c4dfe6;stroke:#c4dfe6;" x="509.676984" xlink:href="#mdbf857edeb" y="78.93"/>
     <use style="fill:#c4dfe6;stroke:#c4dfe6;" x="568.301262" xlink:href="#mdbf857edeb" y="52.521818"/>
     <use style="fill:#c4dfe6;stroke:#c4dfe6;" x="615.899455" xlink:href="#mdbf857edeb" y="26.113636"/>
    </g>
   </g>
   <g id="LineCollection_1">
    <path clip-path="url(#pe27269df45)" d="M 232.016285 131.746364 
L 291.207303 131.746364 
" style="fill:none;stroke:#808080;stroke-opacity:0.8;stroke-width:1.5;"/>
    <path clip-path="url(#pe27269df45)" d="M 423.048014 105.338182 
L 480.385929 105.338182 
" style="fill:none;stroke:#808080;stroke-opacity:0.8;stroke-width:1.5;"/>
    <path clip-path="url(#pe27269df45)" d="M 436.048753 78.93 
L 509.676984 78.93 
" style="fill:none;stroke:#808080;stroke-opacity:0.8;stroke-width:1.5;"/>
    <path clip-path="url(#pe27269df45)" d="M 478.539818 52.521818 
L 568.301262 52.521818 
" style="fill:none;stroke:#808080;stroke-opacity:0.8;stroke-width:1.5;"/>
    <path clip-path="url(#pe27269df45)" d="M 539.79429 26.113636 
L 615.899455 26.113636 
" style="fill:none;stroke:#808080;stroke-opacity:0.8;stroke-width:1.5;"/>
   </g>
   <g id="patch_3">
    <path d="M 204.242 137.028 
L 204.242 20.832 
" style="fill:none;stroke:#262626;stroke-linecap:square;stroke-linejoin:miter;stroke-width:1.25;"/>
   </g>
   <g id="patch_4">
    <path d="M 210.242 143.028 
L 638.928 143.028 
" style="fill:none;stroke:#262626;stroke-linecap:square;stroke-linejoin:miter;stroke-width:1.25;"/>
   </g>
   <g id="text_15">
    <!-- Swift -->
    <defs>
     <path d="M 10.5 52.296875 
L 20.5625 11.078125 
L 30.765625 52.296875 
L 40.625 52.296875 
L 50.875 11.328125 
L 61.578125 52.296875 
L 70.359375 52.296875 
L 55.171875 0 
L 46.046875 0 
L 35.40625 40.484375 
L 25.09375 0 
L 15.96875 0 
L 0.875 52.296875 
z
" id="Helvetica-119"/>
     <path d="M 6.453125 52.046875 
L 15.375 52.046875 
L 15.375 0 
L 6.453125 0 
z
M 6.453125 71.734375 
L 15.375 71.734375 
L 15.375 61.765625 
L 6.453125 61.765625 
z
" id="Helvetica-105"/>
     <path d="M 8.203125 66.890625 
L 17.09375 66.890625 
L 17.09375 52.296875 
L 25.4375 52.296875 
L 25.4375 45.125 
L 17.09375 45.125 
L 17.09375 10.984375 
Q 17.09375 8.25 18.953125 7.328125 
Q 19.96875 6.78125 22.359375 6.78125 
Q 23 6.78125 23.734375 6.8125 
Q 24.46875 6.84375 25.4375 6.9375 
L 25.4375 0 
Q 23.921875 -0.4375 22.28125 -0.625 
Q 20.65625 -0.828125 18.75 -0.828125 
Q 12.59375 -0.828125 10.390625 2.3125 
Q 8.203125 5.46875 8.203125 10.5 
L 8.203125 45.125 
L 1.125 45.125 
L 1.125 52.296875 
L 8.203125 52.296875 
z
" id="Helvetica-116"/>
    </defs>
    <g style="fill:#262626;" transform="translate(210.242 14.832)scale(0.084 -0.084)">
     <use xlink:href="#Helvetica-83"/>
     <use x="66.699219" xlink:href="#Helvetica-119"/>
     <use x="138.916016" xlink:href="#Helvetica-105"/>
     <use x="161.132812" xlink:href="#Helvetica-102"/>
     <use x="188.916016" xlink:href="#Helvetica-116"/>
    </g>
   </g>
   <g id="legend_1">
    <g id="PathCollection_3">
     <g>
      <use style="fill:#66a5ad;stroke:#66a5ad;" x="224.872" xlink:href="#md53107d62b" y="31.264297"/>
     </g>
    </g>
    <g id="text_16">
     <!-- 50_ng -->
     <g style="fill:#262626;" transform="translate(238.732 33.285547)scale(0.077 -0.077)">
      <use xlink:href="#Helvetica-53"/>
      <use x="55.615234" xlink:href="#Helvetica-48"/>
      <use x="111.230469" xlink:href="#Helvetica-95"/>
      <use x="166.845703" xlink:href="#Helvetica-110"/>
      <use x="222.460938" xlink:href="#Helvetica-103"/>
     </g>
    </g>
    <g id="PathCollection_4">
     <g>
      <use style="fill:#c4dfe6;stroke:#c4dfe6;" x="224.872" xlink:href="#mdbf857edeb" y="42.341469"/>
     </g>
    </g>
    <g id="text_17">
     <!-- 10_ng -->
     <g style="fill:#262626;" transform="translate(238.732 44.362719)scale(0.077 -0.077)">
      <use xlink:href="#Helvetica-49"/>
      <use x="55.615234" xlink:href="#Helvetica-48"/>
      <use x="111.230469" xlink:href="#Helvetica-95"/>
      <use x="166.845703" xlink:href="#Helvetica-110"/>
      <use x="222.460938" xlink:href="#Helvetica-103"/>
     </g>
    </g>
   </g>
  </g>
 </g>
 <defs>
  <clipPath id="pe27269df45">
   <rect height="116.196" width="428.686" x="210.242" y="20.832"/>
  </clipPath>
 </defs>
</svg>
